<svg width="70" height="75" viewBox="0 0 70 75" fill="none" xmlns="http://www.w3.org/2000/svg">
<path fill-rule="evenodd" clip-rule="evenodd" d="M45 17.5C45 20.1522 43.9464 22.6957 42.0711 24.5711C40.1957 26.4464 37.6522 27.5 35 27.5C32.3478 27.5 29.8043 26.4464 27.9289 24.5711C26.0536 22.6957 25 20.1522 25 17.5C25 14.8478 26.0536 12.3043 27.9289 10.4289C29.8043 8.55357 32.3478 7.5 35 7.5C37.6522 7.5 40.1957 8.55357 42.0711 10.4289C43.9464 12.3043 45 14.8478 45 17.5ZM52.5 17.5C52.5 22.1413 50.6563 26.5925 47.3744 29.8744C44.0925 33.1563 39.6413 35 35 35C30.3587 35 25.9075 33.1563 22.6256 29.8744C19.3437 26.5925 17.5 22.1413 17.5 17.5C17.5 12.8587 19.3437 8.40752 22.6256 5.12563C25.9075 1.84374 30.3587 0 35 0C39.6413 0 44.0925 1.84374 47.3744 5.12563C50.6563 8.40752 52.5 12.8587 52.5 17.5ZM7.5 57.5C7.5 56.48 8.6 53.455 14.1 50.205C19.19 47.2 26.6 45 35 45C43.4 45 50.81 47.2 55.9 50.205C61.4 53.455 62.5 56.48 62.5 57.5C62.5 58.8261 61.9732 60.0979 61.0355 61.0355C60.0979 61.9732 58.8261 62.5 57.5 62.5H56.25C55.2554 62.5 54.3016 62.8951 53.5984 63.5984C52.8951 64.3016 52.5 65.2554 52.5 66.25C52.5 67.2446 52.8951 68.1984 53.5984 68.9016C54.3016 69.6049 55.2554 70 56.25 70H57.5C60.8152 70 63.9946 68.683 66.3388 66.3388C68.683 63.9946 70 60.8152 70 57.5C70 47.5 54.25 37.5 35 37.5C15.75 37.5 0 47.5 0 57.5C0 60.8152 1.31696 63.9946 3.66117 66.3388C6.00537 68.683 9.18479 70 12.5 70H13.75C14.7446 70 15.6984 69.6049 16.4017 68.9016C17.1049 68.1984 17.5 67.2446 17.5 66.25C17.5 65.2554 17.1049 64.3016 16.4017 63.5984C15.6984 62.8951 14.7446 62.5 13.75 62.5H12.5C11.1739 62.5 9.90215 61.9732 8.96447 61.0355C8.02678 60.0979 7.5 58.8261 7.5 57.5ZM24.175 52.9C23.2939 52.4894 22.2879 52.4369 21.3689 52.7537C20.4499 53.0704 19.6898 53.7317 19.2488 54.5979C18.8079 55.4642 18.7206 56.4679 19.0053 57.3973C19.29 58.3268 19.9245 59.1093 20.775 59.58L20.875 59.64C20.9883 59.7067 21.1717 59.83 21.425 60.01C21.915 60.38 22.61 60.985 23.325 61.875C24.29 63.085 25.345 64.895 25.885 67.5H23.75C22.7554 67.5 21.8016 67.8951 21.0983 68.5984C20.3951 69.3016 20 70.2554 20 71.25C20 72.2446 20.3951 73.1984 21.0983 73.9016C21.8016 74.6049 22.7554 75 23.75 75H46.25C47.2446 75 48.1984 74.6049 48.9016 73.9016C49.6049 73.1984 50 72.2446 50 71.25C50 70.2554 49.6049 69.3016 48.9016 68.5984C48.1984 67.8951 47.2446 67.5 46.25 67.5H44.115C44.655 64.9 45.71 63.085 46.68 61.875C47.39 60.985 48.085 60.38 48.58 60.01C48.7819 59.8504 48.9959 59.7066 49.22 59.58C50.1027 59.1269 50.7698 58.3426 51.0754 57.3986C51.3809 56.4547 51.2999 55.4281 50.8501 54.5438C50.4003 53.6595 49.6184 52.9894 48.6756 52.6804C47.7328 52.3713 46.706 52.4485 45.82 52.895L47.5 56.25C46.9469 55.1299 46.3869 54.0082 45.82 52.895L45.805 52.9L45.785 52.915L45.735 52.94L45.235 53.23C44.8381 53.472 44.4527 53.7322 44.08 54.01C42.8631 54.9277 41.7676 55.9963 40.82 57.19C38.935 59.545 37.155 62.92 36.505 67.5H33.5C32.85 62.92 31.07 59.55 29.185 57.19C28.2374 55.9963 27.1419 54.9277 25.925 54.01C25.3974 53.6174 24.8445 53.26 24.27 52.94L24.22 52.915L24.2 52.905L24.19 52.9C24.185 52.9 24.18 52.9 22.505 56.25L24.175 52.9Z" fill="#CC2236"/>
</svg>
