<svg width="75" height="75" viewBox="0 0 75 75" fill="none" xmlns="http://www.w3.org/2000/svg">
<path d="M35.9688 0C26.0562 0 15.7312 1.67812 8.41875 8.41875C1.5625 16.1687 0 26.45 0 36.0156V38.9594C0 48.85 1.67812 59.2687 8.41875 66.5844C16.2125 73.4781 26.5438 75 36.1531 75H38.8219C48.7594 75 59.2219 73.3437 66.5812 66.5812C73.4812 58.7844 75 48.4375 75 38.8219V36.1562C75 26.2188 73.3437 15.7562 66.5812 8.41875C58.8312 1.54375 48.575 0 39.0062 0H35.9688ZM37.5 10.9531C41.3875 10.9531 44.55 14.0469 44.55 17.8469C44.55 21.175 42.4094 24.0219 39.1906 24.6625V29.6313C43.8156 30.3 47.0906 34.1 47.0906 38.8C47.0906 43.9688 42.7875 48.175 37.4969 48.175C32.2062 48.175 27.9094 43.9688 27.9094 38.8C27.9135 38.2687 27.9604 37.751 28.05 37.2469L23.25 35.7219C22.6249 36.7919 21.7293 37.6786 20.6531 38.293C19.5769 38.9073 18.358 39.2277 17.1188 39.2219C16.375 39.2219 15.6479 39.1073 14.9375 38.8781C11.2406 37.7062 9.20938 33.8094 10.4094 30.1906C10.8857 28.7933 11.7898 27.5813 12.9935 26.7265C14.1971 25.8717 15.6393 25.4174 17.1156 25.4281C17.8594 25.4281 18.5865 25.5406 19.2969 25.7656C20.1731 26.0391 20.9866 26.4831 21.6907 27.0719C22.3949 27.6608 22.9758 28.3829 23.4 29.1969C24.0375 30.4188 24.2812 31.7687 24.125 33.1L28.9219 34.625C30.2969 31.9375 33.2281 30.0844 36.3719 29.6281V24.6625C33.1562 24.0219 30.4469 21.175 30.4469 17.8469C30.4469 14.0437 33.6094 10.9531 37.5 10.9531ZM37.5 13.7094C35.1656 13.7094 33.2687 15.5656 33.2687 17.8469C33.2687 20.1281 35.1656 21.9844 37.5 21.9844C39.8312 21.9844 41.7313 20.1281 41.7313 17.8469C41.7313 15.5656 39.8312 13.7094 37.5 13.7094ZM57.8812 25.4281C60.9437 25.4281 63.6406 27.3437 64.5875 30.1937C64.8757 31.0535 64.9869 31.9627 64.9144 32.8666C64.8419 33.7705 64.5872 34.6503 64.1656 35.4531C63.7418 36.2673 63.1606 36.9892 62.4557 37.5771C61.7509 38.1651 60.9364 38.6073 60.0594 38.8781C59.349 39.1073 58.6219 39.2219 57.8781 39.2219C56.6389 39.2277 55.42 38.9073 54.3438 38.293C53.2676 37.6786 52.372 36.7919 51.7469 35.7219L49.7656 36.35L48.8969 33.7312L50.8719 33.1C50.7014 31.5068 51.0901 29.904 51.9715 28.5659C52.8529 27.2279 54.1721 26.2379 55.7031 25.7656C56.4075 25.5418 57.1422 25.428 57.8812 25.4281ZM17.1125 28.1875C15.275 28.1875 13.6594 29.3375 13.0906 31.0469C12.9224 31.5673 12.8593 32.116 12.9051 32.661C12.9509 33.206 13.1046 33.7365 13.3574 34.2216C13.6101 34.7066 13.9567 35.1366 14.3771 35.4864C14.7975 35.8363 15.2833 36.099 15.8062 36.2594C16.2333 36.3948 16.6698 36.4625 17.1156 36.4625C18.9531 36.4625 20.5687 35.3125 21.1375 33.6031C21.3087 33.0869 21.3746 32.5415 21.3311 31.9993C21.2876 31.4572 21.1357 30.9292 20.8844 30.4469C20.6292 29.9591 20.2804 29.5264 19.8578 29.1736C19.4353 28.8207 18.9473 28.5547 18.4219 28.3906C17.9973 28.2565 17.5578 28.188 17.1125 28.1875ZM57.8781 28.1875C57.4344 28.1875 56.9979 28.2552 56.5687 28.3906C56.0458 28.551 55.5601 28.8137 55.1396 29.1636C54.7192 29.5134 54.3726 29.9434 54.1199 30.4284C53.8671 30.9135 53.7134 31.444 53.6676 31.989C53.6218 32.534 53.6849 33.0827 53.8531 33.6031C54.4219 35.3125 56.0406 36.4625 57.875 36.4625C58.3203 36.462 58.7629 36.3935 59.1875 36.2594C60.2625 35.9156 61.1344 35.1875 61.6469 34.2C62.1625 33.2156 62.25 32.0969 61.9031 31.0469C61.6176 30.2079 61.0751 29.4801 60.3526 28.9669C59.6301 28.4536 58.7643 28.1809 57.8781 28.1875ZM37.5 32.7313C34.0781 32.7313 31.2937 35.4531 31.2937 38.8C31.2937 42.1469 34.075 44.8656 37.5 44.8656C40.9188 44.8656 43.7031 42.1469 43.7031 38.8031C43.7031 35.4531 40.9219 32.7313 37.5 32.7313ZM29.0437 47.8281L31.325 49.45L30.1062 51.0938C32.3219 53.4594 32.6094 57.1094 30.6062 59.8031C29.941 60.6881 29.0786 61.4059 28.0875 61.8996C27.0965 62.3932 26.004 62.6491 24.8969 62.6469C23.4031 62.6469 21.9688 62.1875 20.7562 61.3281C20.011 60.8065 19.378 60.1407 18.8945 59.3702C18.4111 58.5996 18.0871 57.7399 17.9417 56.842C17.7963 55.944 17.8325 55.026 18.0481 54.1423C18.2637 53.2585 18.6543 52.427 19.1969 51.6969C20.1687 50.4023 21.5523 49.4772 23.12 49.0739C24.6877 48.6706 26.346 48.8132 27.8219 49.4781L29.0437 47.8281ZM45.95 47.8281L47.175 49.4781C48.6514 48.8161 50.3088 48.675 51.8758 49.0781C53.4428 49.4812 54.8264 50.4046 55.8 51.6969C56.3413 52.4275 56.7309 53.259 56.9458 54.1426C57.1607 55.0261 57.1965 55.9437 57.0512 56.8413C56.9058 57.7389 56.5823 58.5983 56.0996 59.3689C55.6169 60.1395 54.9848 60.8057 54.2406 61.3281C53.0292 62.1833 51.5829 62.6428 50.1 62.6437C48.9928 62.6459 47.9004 62.3901 46.9093 61.8964C45.9183 61.4028 45.0559 60.685 44.3906 59.8C43.4377 58.522 42.9654 56.949 43.0569 55.3574C43.1483 53.7659 43.7976 52.2574 44.8906 51.0969L43.6719 49.45L45.95 47.8281ZM24.9062 51.6094C24.2413 51.6085 23.5854 51.7626 22.9903 52.0593C22.3953 52.356 21.8776 52.7872 21.4781 53.3187C20.1031 55.1625 20.5281 57.7562 22.4156 59.0969C23.3253 59.7455 24.4526 60.0128 25.5567 59.8418C26.6608 59.6707 27.6542 59.0748 28.325 58.1812C29.7 56.3375 29.2781 53.7437 27.3875 52.4C26.6632 51.8844 25.7953 51.609 24.9062 51.6125V51.6094ZM50.0906 51.6094C49.1937 51.6094 48.3375 51.8844 47.6062 52.4031C47.1596 52.7164 46.7802 53.116 46.4905 53.5784C46.2008 54.0407 46.0067 54.5564 45.9196 55.095C45.8325 55.6336 45.8542 56.1842 45.9834 56.7142C46.1126 57.2443 46.3467 57.7431 46.6719 58.1812C47.3426 59.0748 48.3361 59.6707 49.4402 59.8418C50.5443 60.0128 51.6715 59.7455 52.5812 59.0969C53.0286 58.7838 53.4087 58.3842 53.6989 57.9217C53.9892 57.4593 54.1838 56.9433 54.2712 56.4043C54.3586 55.8653 54.337 55.3143 54.2078 54.7837C54.0786 54.2532 53.8443 53.754 53.5187 53.3156C53.1187 52.7852 52.6006 52.3552 52.0056 52.0596C51.4106 51.764 50.755 51.6109 50.0906 51.6125V51.6094Z" fill="#CC2236"/>
</svg>
