<svg width="80" height="75" viewBox="0 0 80 75" fill="none" xmlns="http://www.w3.org/2000/svg">
<path fill-rule="evenodd" clip-rule="evenodd" d="M60 5.99335V27.9478L71.456 30.8075C72.7539 31.1316 73.906 31.8796 74.7293 32.9325C75.5526 33.9854 75.9999 35.2828 76 36.6186V67.0122C77.0609 67.0122 78.0783 67.433 78.8284 68.182C79.5786 68.931 80 69.9468 80 71.0061C80 72.0653 79.5786 73.0812 78.8284 73.8302C78.0783 74.5792 77.0609 75 76 75H4C2.93913 75 1.92172 74.5792 1.17157 73.8302C0.421427 73.0812 0 72.0653 0 71.0061C0 69.9468 0.421427 68.931 1.17157 68.182C1.92172 67.433 2.93913 67.0122 4 67.0122V36.2991C3.99929 35.1852 4.3096 34.0933 4.89606 33.1458C5.48252 32.1983 6.32193 31.4328 7.32 30.9353L20 24.6049V16.4773C19.9995 15.2576 20.3719 14.0668 21.0674 13.0641C21.7628 12.0613 22.7483 11.2944 23.892 10.8659L51.892 0.381916C52.8 0.0417073 53.777 -0.073668 54.7395 0.0456723C55.7019 0.165013 56.621 0.515512 57.418 1.06715C58.2151 1.61878 58.8664 2.35511 59.316 3.21306C59.7657 4.07101 60.0004 5.02501 60 5.99335ZM60 36.1833V67.0122H68V38.1762L60 36.1833ZM20 33.5353L12 37.5292V67.0122H20V33.5353Z" fill="#CC2236"/>
</svg>
