<svg width="94" height="75" viewBox="0 0 94 75" fill="none" xmlns="http://www.w3.org/2000/svg">
<path d="M9.4 75C6.815 75 4.60287 74.0828 2.7636 72.2484C0.924334 70.4141 0.00313333 68.2062 0 65.625V9.375C0 6.79687 0.9212 4.59062 2.7636 2.75625C4.606 0.921874 6.81813 0.003125 9.4 0H84.6C87.185 0 89.3987 0.918749 91.2411 2.75625C93.0835 4.59375 94.0031 6.8 94 9.375V65.625C94 68.2031 93.0804 70.4109 91.2411 72.2484C89.4018 74.0859 87.1881 75.0031 84.6 75H9.4ZM9.4 65.625H58.75V49.2188H9.4V65.625ZM68.15 65.625H84.6V23.4375H68.15V65.625ZM9.4 39.8437H58.75V23.4375H9.4V39.8437Z" fill="#CC2236"/>
</svg>
