<svg width="75" height="75" viewBox="0 0 75 75" fill="none" xmlns="http://www.w3.org/2000/svg">
<path d="M5.47798 52.1871C4.32232 49.6933 3.45618 47.1387 2.87957 44.5233C2.30295 41.9078 2.01343 39.2316 2.011 36.4945C2.011 31.4461 2.96959 26.7018 4.88677 22.2617C6.80394 17.8215 9.40357 13.9592 12.6856 10.6746C15.9677 7.39014 19.83 4.79052 24.2726 2.87577C28.7152 0.961027 33.4595 0.00243759 38.5055 4.61956e-06C43.5515 -0.00242835 48.2957 0.956161 52.7383 2.87577C57.1809 4.79538 61.0433 7.39501 64.3253 10.6746C67.6074 13.9543 70.2083 17.8166 72.1279 22.2617C74.0475 26.7067 75.0048 31.451 75 36.4945C74.9951 41.538 74.0365 46.2823 72.1242 50.7273C70.2119 55.1724 67.6123 59.0347 64.3253 62.3144C61.0384 65.594 57.1761 68.1948 52.7383 70.1169C48.3006 72.0389 43.5563 72.9963 38.5055 72.989C35.7684 72.989 33.0921 72.6995 30.4767 72.1204C27.8613 71.5414 25.3066 70.6752 22.8129 69.522L4.74809 74.8137C3.34913 75.2395 2.13265 74.9354 1.09864 73.9014C0.0646257 72.8673 -0.239495 71.6509 0.186274 70.2519L5.47798 52.1871ZM34.856 40.1439V47.4428C34.856 48.4769 35.2064 49.3442 35.9071 50.0449C36.6078 50.7456 37.4739 51.0947 38.5055 51.0923C39.5371 51.0899 40.4044 50.7395 41.1075 50.0413C41.8107 49.343 42.1598 48.4769 42.1549 47.4428V40.1439H49.4538C50.4878 40.1439 51.3552 39.7936 52.0559 39.0929C52.7566 38.3922 53.1057 37.5261 53.1033 36.4945C53.1008 35.4629 52.7505 34.5968 52.0522 33.8961C51.354 33.1954 50.4878 32.8451 49.4538 32.8451H42.1549V25.5462C42.1549 24.5121 41.8046 23.646 41.1039 22.9477C40.4032 22.2495 39.5371 21.8991 38.5055 21.8967C37.4739 21.8943 36.6078 22.2446 35.9071 22.9477C35.2064 23.6509 34.856 24.517 34.856 25.5462V32.8451H27.5571C26.5231 32.8451 25.657 33.1954 24.9587 33.8961C24.2605 34.5968 23.9101 35.4629 23.9077 36.4945C23.9053 37.5261 24.2556 38.3934 24.9587 39.0966C25.6619 39.7997 26.528 40.1488 27.5571 40.1439H34.856Z" fill="#CC2236"/>
</svg>
