<svg width="65" height="75" viewBox="0 0 65 75" fill="none" xmlns="http://www.w3.org/2000/svg">
<path fill-rule="evenodd" clip-rule="evenodd" d="M6.34924 40.6906C6.41265 51.1984 6.7741 58.6136 7.10861 63.3194C7.28299 65.78 9.05222 67.5895 11.389 67.8018C13.1519 67.9613 15.3047 68.1209 17.873 68.2581C20.1553 65.7899 22.4813 63.3629 24.85 60.9785C30.7316 55.0361 34.6394 51.4776 37.1125 49.3841C40.1452 46.815 44.4209 46.3267 47.8975 48.7506C50.2517 50.3909 53.6364 53.0813 58.2338 57.4631C58.4399 53.1276 58.608 47.5729 58.6492 40.6906H6.34924ZM10.8214 74.1591C13.5608 74.4029 16.3051 74.5865 19.0525 74.7096C22.778 74.8819 27.2438 75 32.4992 75C42.4329 75 49.5415 74.5819 54.1786 74.1623C59.1882 73.7075 63.0707 70.0421 64.0219 65.2311L64.0393 65.1337C64.1238 64.688 64.1825 64.2348 64.2153 63.7742C64.5957 58.4445 65 49.8532 65 37.4992C65 25.1452 64.5942 16.5539 64.2153 11.221C63.8253 5.7302 59.7018 1.3388 54.177 0.837748C49.5415 0.418076 42.4329 0 32.4992 0C22.5655 0 15.4585 0.418076 10.8214 0.837748C5.29816 1.3404 1.17314 5.7302 0.783152 11.221C0.404258 16.5539 0 25.1436 0 37.4992C0 49.8548 0.404258 58.4445 0.783152 63.7758C1.17314 69.2682 5.29816 73.6596 10.8214 74.1591ZM12.3481 27.3617C12.3481 26.5152 12.6822 25.7035 13.2768 25.105C13.8714 24.5065 14.6779 24.1702 15.5188 24.1702H49.4796C50.3206 24.1702 51.127 24.5065 51.7216 25.105C52.3163 25.7035 52.6503 26.5152 52.6503 27.3617C52.6503 28.2081 52.3163 29.0198 51.7216 29.6183C51.127 30.2168 50.3206 30.5531 49.4796 30.5531H15.5188C14.6779 30.5531 13.8714 30.2168 13.2768 29.6183C12.6822 29.0198 12.3481 28.2081 12.3481 27.3617ZM15.5188 11.6966C14.6779 11.6966 13.8714 12.0328 13.2768 12.6313C12.6822 13.2298 12.3481 14.0416 12.3481 14.888C12.3481 15.7344 12.6822 16.5461 13.2768 17.1447C13.8714 17.7432 14.6779 18.0794 15.5188 18.0794H34.0433C34.8842 18.0794 35.6907 17.7432 36.2853 17.1447C36.8799 16.5461 37.214 15.7344 37.214 14.888C37.214 14.0416 36.8799 13.2298 36.2853 12.6313C35.6907 12.0328 34.8842 11.6966 34.0433 11.6966H15.5188ZM12.3909 51.5335C12.3897 50.7108 12.5494 49.8959 12.861 49.1353C13.1727 48.3748 13.6301 47.6834 14.2072 47.1008C14.7842 46.5182 15.4697 46.0557 16.2243 45.7397C16.979 45.4237 17.7881 45.2604 18.6054 45.2591C22.0456 45.2591 24.8231 48.074 24.8231 51.5335C24.8231 54.993 22.0456 57.8078 18.607 57.8078C15.1684 57.8078 12.3909 54.993 12.3909 51.5335Z" fill="#CC2236"/>
</svg>
