<svg width="74" height="75" viewBox="0 0 74 75" fill="none" xmlns="http://www.w3.org/2000/svg">
<path d="M0 0V32.6087H71.3097V0H0ZM38.8962 19.5652H9.72405V13.0435H38.8962V19.5652ZM48.6202 19.5652C47.9792 19.5652 47.3525 19.374 46.8194 19.0157C46.2864 18.6574 45.871 18.1481 45.6256 17.5522C45.3803 16.9564 45.3161 16.3007 45.4412 15.6682C45.5662 15.0356 45.8749 14.4546 46.3283 13.9986C46.7816 13.5425 47.3591 13.232 47.9879 13.1061C48.6166 12.9803 49.2684 13.0449 49.8606 13.2917C50.4529 13.5385 50.9592 13.9565 51.3153 14.4927C51.6715 15.029 51.8616 15.6594 51.8616 16.3043C51.8616 17.1692 51.5201 17.9986 50.9122 18.6101C50.3044 19.2217 49.4799 19.5652 48.6202 19.5652ZM58.3443 19.5652C57.7032 19.5652 57.0765 19.374 56.5435 19.0157C56.0105 18.6574 55.595 18.1481 55.3497 17.5522C55.1043 16.9564 55.0401 16.3007 55.1652 15.6682C55.2903 15.0356 55.599 14.4546 56.0523 13.9986C56.5056 13.5425 57.0832 13.232 57.7119 13.1061C58.3407 12.9803 58.9924 13.0449 59.5847 13.2917C60.177 13.5385 60.6832 13.9565 61.0394 14.4927C61.3955 15.029 61.5856 15.6594 61.5856 16.3043C61.5856 17.1692 61.2441 17.9986 60.6363 18.6101C60.0284 19.2217 59.2039 19.5652 58.3443 19.5652ZM70.3049 56.6413L74 53.3804L70.7587 47.7391L66.0587 49.337C65.0161 48.4573 63.8323 47.7626 62.558 47.2826L61.5856 42.3913H55.1029L54.1305 47.25C52.8563 47.73 51.6725 48.4247 50.6299 49.3043L45.9299 47.7065L42.6886 53.3478L46.3837 56.6087C46.1214 57.9655 46.1214 59.3605 46.3837 60.7174L42.6886 63.9783L45.9299 69.6196L50.6299 68.0217C51.6725 68.9013 52.8563 69.596 54.1305 70.0761L55.1029 75H61.5856L62.558 70.1413C63.8323 69.6613 65.0161 68.9666 66.0587 68.087L70.7587 69.6848L74 64.0435L70.3049 60.7826C70.5634 59.4144 70.5634 58.0095 70.3049 56.6413ZM58.3443 65.2174C57.0621 65.2174 55.8088 64.8349 54.7427 64.1183C53.6766 63.4017 52.8457 62.3831 52.3551 61.1914C51.8644 59.9997 51.736 58.6884 51.9861 57.4233C52.2363 56.1582 52.8537 54.9962 53.7603 54.0841C54.667 53.172 55.8221 52.5509 57.0796 52.2992C58.3371 52.0476 59.6406 52.1767 60.8251 52.6703C62.0097 53.164 63.0221 53.9999 63.7345 55.0724C64.4468 56.1449 64.827 57.4058 64.827 58.6957C64.8219 60.4237 64.1372 62.0796 62.9226 63.3015C61.708 64.5235 60.062 65.2122 58.3443 65.2174Z" fill="#CC2236"/>
<path d="M35.6548 58.6957H9.72405V52.1739H36.6078C38.2343 46.7102 41.8352 42.0569 46.7014 39.1304H0V71.7391H39.7389C37.0769 67.9171 35.6508 63.3625 35.6548 58.6957Z" fill="#CC2236"/>
</svg>
