<svg width="75" height="75" viewBox="0 0 75 75" fill="none" xmlns="http://www.w3.org/2000/svg">
<path fill-rule="evenodd" clip-rule="evenodd" d="M49.8107 0.598044H49.8214L49.8374 0.614116L49.9178 0.667687L50.2071 0.871259C51.751 1.9563 53.2728 3.0726 54.7714 4.21947C57.5035 6.29269 60.9589 9.05162 63.4607 11.5588C65.9624 14.0659 68.7107 17.5159 70.7892 20.2588C71.9268 21.7635 73.0395 23.2869 74.1267 24.8284L74.3303 25.1177L74.3839 25.1927L74.3999 25.2141V25.2248C74.8449 25.869 75.0505 26.6485 74.981 27.4284C74.9115 28.2082 74.5714 28.9391 74.0196 29.4945C67.4517 36.073 59.9303 41.173 53.8553 44.6177C54.6696 51.8766 52.2107 59.3498 45.9589 65.0338C39.3428 71.0605 30.8517 73.6748 23.1749 74.5855C15.4821 75.4963 8.26601 74.7463 3.7928 73.7123C3.18179 73.5686 2.62298 73.2573 2.17914 72.8135C1.7353 72.3697 1.42403 71.8108 1.2803 71.1998C0.251726 66.7213 -0.503631 59.4945 0.407083 51.7963C1.3178 44.098 3.93208 35.607 9.9428 28.9802C15.6589 22.6802 23.1857 20.2213 30.4821 21.0891C33.9214 15.0248 38.9999 7.53019 45.5357 0.983759C46.0905 0.427479 46.8233 0.0840308 47.6058 0.0135172C48.3883 -0.0569965 49.1653 0.149916 49.8107 0.598044ZM31.3392 27.9998C25.4999 26.7677 19.4035 28.5195 14.9035 33.4802C10.1517 38.7141 7.87494 45.6945 7.06066 52.5838C6.67905 55.8856 6.59657 59.2152 6.81423 62.532L17.2767 52.1016C16.8509 50.8128 16.6409 49.4625 16.6553 48.1052C16.6553 45.2498 17.4696 42.5445 19.4571 40.5516C21.4392 38.5695 24.1446 37.7498 26.9999 37.7498C29.8607 37.7498 32.5607 38.5695 34.5482 40.557C36.5303 42.5391 37.3446 45.2498 37.3446 48.1105C37.3446 50.9713 36.5357 53.6713 34.5482 55.6588C32.566 57.6409 29.8607 58.4605 26.9999 58.4605C25.6163 58.4764 24.2399 58.2591 22.9285 57.8177L12.5303 68.1838C15.8166 68.4048 19.1163 68.3223 22.3874 67.9373C29.2607 67.123 36.2249 64.8409 41.4589 60.0838C46.3874 55.5945 48.1499 49.5195 46.9446 43.6909L46.9071 43.5409C46.2112 40.4483 44.7838 37.5678 42.7446 35.1409C41.9391 34.1603 41.0481 33.2531 40.0821 32.4302C37.5846 30.2448 34.5784 28.7214 31.3392 27.9998Z" fill="#CC2236"/>
</svg>
