<svg width="84" height="75" viewBox="0 0 84 75" fill="none" xmlns="http://www.w3.org/2000/svg">
<path d="M26.7255 5.67553e-07C19.6375 6.72836e-07 12.8397 2.80674 7.82772 7.80276C2.81572 12.7988 0 19.5748 0 26.6403C0 33.7057 2.81572 40.4818 7.82772 45.4778C12.8397 50.4738 19.6375 53.2806 26.7255 53.2806H30.8107C30.4452 50.7565 30.4452 48.1931 30.8107 45.6691H26.7255C21.6626 45.669 16.8071 43.6642 13.2271 40.0957C9.64709 36.5271 7.63586 31.687 7.63586 26.6403C7.63586 21.5935 9.64709 16.7535 13.2271 13.1849C16.8071 9.61632 21.6626 7.61151 26.7255 7.61151H57.269C60.1 7.61093 62.8958 8.23805 65.4537 9.44743C68.0116 10.6568 70.2677 12.4182 72.0584 14.6039C73.8492 16.7897 75.1298 19.3451 75.8075 22.0851C76.4852 24.8251 76.543 27.681 75.9768 30.446C78.2275 32.6435 80.0707 35.2203 81.4212 38.0575C83.3537 33.9965 84.2239 29.5142 83.951 25.0277C83.6781 20.5413 82.2708 16.1966 79.8602 12.3981C77.4496 8.59966 74.114 5.47092 70.164 3.30315C66.2141 1.13538 61.778 -0.000927106 57.269 5.67553e-07H26.7255ZM38.1793 49.4748C38.18 46.5079 38.8767 43.5822 40.2137 40.9315C41.5508 38.2808 43.4911 35.9784 45.8797 34.2083C48.2684 32.4382 51.0392 31.2494 53.9708 30.7368C56.9025 30.2242 59.9138 30.402 62.7642 31.2561C65.6146 32.1102 68.2252 33.6168 70.3875 35.6557C72.5497 37.6946 74.2037 40.2092 75.2174 42.9988C76.2311 45.7883 76.5764 48.7755 76.2256 51.7217C75.8749 54.668 74.8379 57.4917 73.1974 59.9673L82.8758 69.6187L77.4773 75L67.795 65.3524C64.9177 67.2482 61.5788 68.3314 58.1333 68.4871C54.6878 68.6428 51.2643 67.865 48.2267 66.2365C45.1891 64.608 42.6509 62.1895 40.8818 59.2382C39.1127 56.2868 38.1788 52.9129 38.1793 49.4748Z" fill="#CC2236"/>
</svg>
