<svg width="75" height="75" viewBox="0 0 75 75" fill="none" xmlns="http://www.w3.org/2000/svg">
<path fill-rule="evenodd" clip-rule="evenodd" d="M34.0911 27.2734V41.4893C31.8156 42.2936 29.8976 43.8764 28.6763 45.958C27.4549 48.0396 27.0088 50.486 27.4168 52.8648C27.8248 55.2435 29.0606 57.4014 30.9058 58.9571C32.751 60.5128 35.0868 61.366 37.5002 61.366C39.9137 61.366 42.2495 60.5128 44.0947 58.9571C45.9399 57.4014 47.1757 55.2435 47.5837 52.8648C47.9917 50.486 47.5455 48.0396 46.3242 45.958C45.1028 43.8764 43.1849 42.2936 40.9093 41.4893V27.2734H34.0911ZM34.0911 51.1371C34.0911 50.2329 34.4503 49.3658 35.0896 48.7265C35.729 48.0872 36.5961 47.728 37.5002 47.728C38.4044 47.728 39.2715 48.0872 39.9108 48.7265C40.5502 49.3658 40.9093 50.2329 40.9093 51.1371C40.9093 52.0412 40.5502 52.9083 39.9108 53.5477C39.2715 54.187 38.4044 54.5462 37.5002 54.5462C36.5961 54.5462 35.729 54.187 35.0896 53.5477C34.4503 52.9083 34.0911 52.0412 34.0911 51.1371Z" fill="#CC2236"/>
<path d="M37.4999 13.6367C43.8289 13.6367 49.8987 16.1509 54.374 20.6262C58.8493 25.1015 61.3635 31.1713 61.3635 37.5004V40.9094H54.5453V37.5004C54.5453 32.9796 52.7495 28.644 49.5528 25.4474C46.3562 22.2508 42.0206 20.4549 37.4999 20.4549C32.9791 20.4549 28.6436 22.2508 25.4469 25.4474C22.2503 28.644 20.4544 32.9796 20.4544 37.5004V40.9094H13.6362V37.5004C13.6362 31.1713 16.1504 25.1015 20.6257 20.6262C25.101 16.1509 31.1708 13.6367 37.4999 13.6367Z" fill="#CC2236"/>
<path fill-rule="evenodd" clip-rule="evenodd" d="M37.5 75C58.2102 75 75 58.2102 75 37.5C75 16.7898 58.2102 0 37.5 0C16.7898 0 0 16.7898 0 37.5C0 58.2102 16.7898 75 37.5 75ZM37.5 68.1818C41.5292 68.1818 45.5189 67.3882 49.2414 65.8463C52.9639 64.3044 56.3462 62.0444 59.1953 59.1953C62.0444 56.3462 64.3044 52.9639 65.8463 49.2414C67.3882 45.5189 68.1818 41.5292 68.1818 37.5C68.1818 33.4708 67.3882 29.4811 65.8463 25.7586C64.3044 22.0361 62.0444 18.6537 59.1953 15.8047C56.3462 12.9556 52.9639 10.6956 49.2414 9.1537C45.5189 7.61179 41.5292 6.81818 37.5 6.81818C29.3627 6.81818 21.5586 10.0507 15.8047 15.8047C10.0507 21.5586 6.81818 29.3627 6.81818 37.5C6.81818 45.6373 10.0507 53.4414 15.8047 59.1953C21.5586 64.9493 29.3627 68.1818 37.5 68.1818Z" fill="#CC2236"/>
</svg>
