<svg width="134" height="23" viewBox="0 0 134 23" fill="none" xmlns="http://www.w3.org/2000/svg">
<path d="M10.8777 1.14908C16.5864 1.12406 19.9 7.09462 16.4551 10.9988C21.2517 14.5628 18.0578 22.3846 10.6464 22.4179L0.0967852 22.463L0 1.19578L10.8777 1.14908Z" fill="#BD0A1F"/>
<path d="M30.1986 23C36.3548 23 41.3453 17.9263 41.3453 11.6676C41.3453 5.4089 36.3548 0.33522 30.1986 0.33522C24.0425 0.33522 19.0519 5.4089 19.0519 11.6676C19.0519 17.9263 24.0425 23 30.1986 23Z" fill="#BD0A1F"/>
<path d="M52.8808 22.8999C59.037 22.8999 64.0275 17.8263 64.0275 11.5675C64.0275 5.30884 59.037 0.235153 52.8808 0.235153C46.7247 0.235153 41.7341 5.30884 41.7341 11.5675C41.7341 17.8263 46.7247 22.8999 52.8808 22.8999Z" fill="#BD0A1F"/>
<path d="M64.9052 0.0917265L75.399 8.09695L85.8239 0L85.9781 22.0877L65.0594 22.1795L64.9052 0.0917265Z" fill="#BD0A1F"/>
<path d="M101.992 1.19745H91.1143V22.4647H101.992V1.19745Z" fill="#BD0A1F"/>
<path d="M118.012 21.9777L107.553 22.0227L107.509 11.3891L103.175 11.4091L103.13 0.743814L121.987 0.662094L122.031 11.3257L117.968 11.3441L118.012 21.9777Z" fill="#BD0A1F"/>
<path d="M133.911 0.571577L123.093 0.619568L123.159 16.0228L133.977 15.9748L133.911 0.571577Z" fill="#BD0A1F"/>
<path d="M133.98 16.6751L123.162 16.7231L123.184 21.9181L134.003 21.8701L133.98 16.6751Z" fill="#BD0A1F"/>
</svg>
