<svg width="184" height="31" viewBox="0 0 184 31" fill="none" xmlns="http://www.w3.org/2000/svg">
<g clip-path="url(#clip0_562_1604)">
<path d="M14.9365 1.54893C22.7753 1.51522 27.3254 9.56249 22.5951 14.8247C29.1815 19.6283 24.7958 30.1707 14.6189 30.2157L0.132899 30.2764L0 1.61187L14.9365 1.54893Z" fill="white"/>
<path d="M41.4668 30.9994C49.92 30.9994 56.7727 24.1609 56.7727 15.7253C56.7727 7.28961 49.92 0.451172 41.4668 0.451172C33.0136 0.451172 26.1609 7.28961 26.1609 15.7253C26.1609 24.1609 33.0136 30.9994 41.4668 30.9994Z" fill="white"/>
<path d="M72.6125 30.8646C81.0657 30.8646 87.9184 24.0261 87.9184 15.5905C87.9184 7.15485 81.0657 0.316406 72.6125 0.316406C64.1593 0.316406 57.3066 7.15485 57.3066 15.5905C57.3066 24.0261 64.1593 30.8646 72.6125 30.8646Z" fill="white"/>
<path d="M89.1235 0.123631L103.533 10.9133L117.848 0L118.06 29.7704L89.3353 29.8941L89.1235 0.123631Z" fill="white"/>
<path d="M140.049 1.61328H125.112V30.2778H140.049V1.61328Z" fill="white"/>
<path d="M162.047 29.6223L147.685 29.6829L147.624 15.3507L141.673 15.3777L141.612 1.00272L167.505 0.892578L167.566 15.2653L161.986 15.29L162.047 29.6223Z" fill="white"/>
<path d="M183.878 0.771254L169.023 0.835938L169.113 21.5968L183.969 21.5321L183.878 0.771254Z" fill="white"/>
<path d="M183.973 22.4744L169.118 22.5391L169.148 29.541L184.003 29.4763L183.973 22.4744Z" fill="white"/>
</g>
<defs>
<clipPath id="clip0_562_1604">
<rect width="184" height="31" fill="white"/>
</clipPath>
</defs>
</svg>
