<svg width="322" height="158" viewBox="0 0 322 158" fill="none" xmlns="http://www.w3.org/2000/svg">
<g clip-path="url(#clip0_600_1738)">
<path d="M159.607 79C159.607 94.6247 154.926 109.899 146.157 122.89C137.388 135.882 124.925 146.007 110.343 151.987C95.7606 157.966 79.7148 159.53 64.2345 156.482C48.7542 153.434 34.5346 145.91 23.3739 134.861C12.2132 123.813 4.61266 109.737 1.53343 94.4122C-1.54579 79.0877 0.0345777 63.2034 6.0747 48.768C12.1148 34.3327 22.3434 21.9945 35.467 13.3139C48.5906 4.63327 64.0197 0 79.8033 0C100.968 0 121.267 8.32319 136.233 23.1386C151.199 37.9539 159.607 58.0479 159.607 79Z" fill="#BD0A1F"/>
<path d="M322 79C322.002 94.6266 317.322 109.903 308.553 122.896C299.784 135.89 287.32 146.018 272.737 151.999C258.153 157.98 242.106 159.546 226.623 156.498C211.141 153.451 196.919 145.926 185.757 134.877C174.594 123.828 166.992 109.75 163.912 94.4242C160.832 79.098 162.412 63.2118 168.452 48.7746C174.493 34.3373 184.722 21.9976 197.847 13.3157C210.972 4.63392 226.403 7.47468e-08 242.189 0C263.355 -1.00224e-07 283.654 8.32294 298.621 23.1381C313.588 37.9532 321.998 58.0472 322 79Z" fill="#BD0A1F"/>
</g>
<defs>
<clipPath id="clip0_600_1738">
<rect width="322" height="158" fill="white"/>
</clipPath>
</defs>
</svg>
