<svg width="38" height="38" viewBox="0 0 38 38" fill="none" xmlns="http://www.w3.org/2000/svg">
<path fill-rule="evenodd" clip-rule="evenodd" d="M38 19C38 29.4937 29.4937 38 19 38C8.5063 38 0 29.4937 0 19C0 8.5063 8.5063 0 19 0C29.4937 0 38 8.5063 38 19ZM11.4 11.875C11.7779 11.875 12.1404 12.0251 12.4076 12.2924C12.6749 12.5596 12.825 12.9221 12.825 13.3V17.575H17.575V13.3C17.575 12.9221 17.7251 12.5596 17.9924 12.2924C18.2596 12.0251 18.6221 11.875 19 11.875C19.3779 11.875 19.7404 12.0251 20.0076 12.2924C20.2749 12.5596 20.425 12.9221 20.425 13.3V17.575H20.9C21.8044 17.575 22.4124 17.575 22.8817 17.5427C23.3396 17.5104 23.5619 17.4553 23.7082 17.3945C24.2915 17.1532 24.7532 16.6915 24.9945 16.1082C25.0553 15.9619 25.1104 15.7396 25.1427 15.2817C25.175 14.8124 25.175 14.2044 25.175 13.3C25.175 12.9221 25.3251 12.5596 25.5924 12.2924C25.8596 12.0251 26.2221 11.875 26.6 11.875C26.9779 11.875 27.3404 12.0251 27.6076 12.2924C27.8749 12.5596 28.025 12.9221 28.025 13.3V13.3475C28.025 14.193 28.025 14.8979 27.987 15.4755C27.9632 16.066 27.8412 16.6484 27.626 17.1988C27.3636 17.8329 26.9789 18.4092 26.4938 18.8946C26.0087 19.38 25.4327 19.7651 24.7988 20.0279C24.2478 20.2559 23.6778 20.3452 23.0755 20.3851C22.4979 20.425 21.793 20.425 20.9475 20.425H20.425V24.7C20.425 25.0779 20.2749 25.4404 20.0076 25.7076C19.7404 25.9749 19.3779 26.125 19 26.125C18.6221 26.125 18.2596 25.9749 17.9924 25.7076C17.7251 25.4404 17.575 25.0779 17.575 24.7V20.425H12.825V24.7C12.825 25.0779 12.6749 25.4404 12.4076 25.7076C12.1404 25.9749 11.7779 26.125 11.4 26.125C11.0221 26.125 10.6596 25.9749 10.3924 25.7076C10.1251 25.4404 9.975 25.0779 9.975 24.7V13.3C9.975 13.1129 10.0119 12.9276 10.0835 12.7547C10.1551 12.5818 10.26 12.4247 10.3924 12.2924C10.5247 12.1601 10.6818 12.0551 10.8547 11.9835C11.0276 11.9119 11.2129 11.875 11.4 11.875Z" fill="#BD0A1F"/>
</svg>
