<svg width="24" height="38" viewBox="0 0 24 38" fill="none" xmlns="http://www.w3.org/2000/svg">
<path d="M2.4 19C1.06288 17.2357 0.248628 15.1379 0.0484928 12.9414C-0.151643 10.745 0.270243 8.53685 1.26688 6.56434C2.26351 4.59183 3.79552 2.93293 5.69123 1.77352C7.58694 0.614113 9.77146 -4.27124e-07 12 -5.24537e-07C14.2285 -6.21949e-07 16.4131 0.614112 18.3088 1.77352C20.2045 2.93293 21.7365 4.59183 22.7331 6.56434C23.7298 8.53685 24.1516 10.745 23.9515 12.9414C23.7514 15.1379 22.9371 17.2357 21.6 19C22.9371 20.7643 23.7514 22.8621 23.9515 25.0586C24.1516 27.255 23.7298 29.4632 22.7331 31.4357C21.7365 33.4082 20.2045 35.0671 18.3088 36.2265C16.4131 37.3859 14.2285 38 12 38C9.77146 38 7.58694 37.3859 5.69123 36.2265C3.79552 35.0671 2.26351 33.4082 1.26688 31.4357C0.270244 29.4632 -0.151642 27.255 0.0484933 25.0586C0.248629 22.8621 1.06288 20.7643 2.4 19ZM4.0608 20.7812C3.07936 22.2092 2.50983 23.875 2.41345 25.5993C2.31708 27.3236 2.69751 29.0413 3.51383 30.5677C4.33016 32.0941 5.55149 33.3714 7.04651 34.2623C8.54152 35.1532 10.2537 35.6239 11.9988 35.6239C13.7439 35.6239 15.4561 35.1532 16.9511 34.2623C18.4461 33.3714 19.6674 32.0941 20.4838 30.5677C21.3001 29.0413 21.6805 27.3236 21.5841 25.5993C21.4878 23.875 20.9182 22.2092 19.9368 20.7812C17.7471 22.6981 14.9235 23.7543 12 23.75C8.9568 23.75 6.1776 22.629 4.0608 20.7812ZM19.2 11.0485L5.6712 6.11325L5.6712 7.86837L17.016 11.8014L17.016 11.9486L5.6712 15.8816L5.6712 17.6367L19.2 12.7015L19.2 11.0485Z" fill="#BD0A1F"/>
</svg>
