<svg width="38" height="39" viewBox="0 0 38 39" fill="none" xmlns="http://www.w3.org/2000/svg">
<path d="M19 0C10.3566 0 3.36629 6.9073 3.36629 15.4481C3.36629 19.5379 4.96913 23.2531 7.58893 26.0147L11.6785 20.4163V20.4162C10.693 19.0025 10.1153 17.2906 10.1153 15.4481C10.1153 10.6074 14.1012 6.66883 19 6.66883C20.1584 6.66883 21.2659 6.88907 22.2817 7.28945C21.6813 7.79665 21.1992 8.42638 20.8686 9.13532C20.538 9.84425 20.3669 10.6155 20.3669 11.3961C20.3669 12.829 20.9429 14.2031 21.9683 15.2163C22.9936 16.2295 24.3843 16.7987 25.8344 16.7987C26.5173 16.7987 27.1942 16.6722 27.8301 16.4259C27.6645 17.8951 27.1303 19.256 26.3214 20.4162V20.4163L30.4111 26.0147C33.0309 23.2531 34.6337 19.5379 34.6337 15.4481C34.6337 6.9073 27.6434 0 19 0ZM19 16.2838L15.4041 17.9124L0 39H3.17407L6.69806 34.3571L5.5234 39H9.73938L14.8994 26.2532L13.6094 39H20.312L19 20.8506L22.9359 39H27.0091L23.1006 23.5519L30.2752 39H33.7162L30.6282 31.6558L36.1937 39H38L22.5959 17.9124L19 16.2838Z" fill="#BD0A1F"/>
</svg>
