<svg width="61" height="55" viewBox="0 0 61 55" fill="none" xmlns="http://www.w3.org/2000/svg">
<path d="M30.65 15.1004C31.66 15.1004 32.57 14.3004 32.57 13.2004C32.57 12.1004 31.66 11.4004 30.65 11.4004C29.64 11.4004 28.73 12.2004 28.73 13.3004C28.73 14.4004 29.64 15.1004 30.65 15.1004Z" fill="#931213"/>
<path d="M27.52 23.8992H33.89C36.22 21.9992 37.63 18.0992 37.63 13.8992C37.63 10.6992 36.82 7.09922 35.4 4.29922C35.3 4.39922 35.1 4.39922 35 4.49922H34.9C34.8 4.59922 34.6 4.59922 34.5 4.59922H34.4C34.2 4.59922 34.1 4.69922 33.89 4.69922H33.79C33.59 4.69922 33.49 4.79922 33.28 4.79922C33.08 4.79922 32.98 4.89922 32.77 4.89922H32.67C32.47 4.89922 32.37 4.89922 32.16 4.99922H28.92C28.82 4.99922 28.72 4.99922 28.62 4.89922C28.52 4.89922 28.42 4.89922 28.32 4.79922H28.22C28.1533 4.79922 28.0867 4.76589 28.02 4.69922H27.92C27.8533 4.69922 27.7867 4.66589 27.72 4.59922H27.62C27.5533 4.59922 27.4867 4.56588 27.42 4.49922H27.32C27.2533 4.49922 27.1867 4.46589 27.12 4.39922H27.02C26.92 4.39922 26.92 4.29922 26.82 4.29922H26.72C26.62 4.29922 26.52 4.19922 26.42 4.19922C24.9 6.99922 24.09 10.5992 24.09 13.9992C23.69 17.9992 25.2 21.8992 27.53 23.8992H27.52ZM30.65 10.0992C32.37 10.0992 33.79 11.4992 33.79 13.1992C33.79 14.8992 32.37 16.2992 30.65 16.2992C28.93 16.2992 27.51 14.8992 27.51 13.1992C27.51 11.4992 28.93 10.0992 30.65 10.0992Z" fill="#931213"/>
<path d="M33.69 25.0996H27.62L25.29 28.9996C25.8 29.1996 26.3 29.4996 26.71 29.8996C27.42 28.4996 28.94 27.5996 30.66 27.5996C32.38 27.5996 33.8 28.5996 34.61 29.8996C35.01 29.4996 35.42 29.0996 36.03 28.9996L33.7 25.0996H33.69Z" fill="#931213"/>
<path d="M22.56 16.0996L20.23 20.2996L24.07 21.1996C23.26 19.6996 22.76 17.9996 22.55 16.0996H22.56Z" fill="#931213"/>
<path d="M41.07 20.2996L38.74 16.0996C38.54 17.9996 38.03 19.7996 37.32 21.2996L41.06 20.2996H41.07Z" fill="#931213"/>
<path d="M26.91 3.1C27.01 3.1 27.11 3.2 27.21 3.2C27.31 3.2 27.41 3.3 27.41 3.3H27.51C27.5767 3.3 27.6433 3.33333 27.71 3.4H27.81C27.8767 3.4 27.9433 3.43333 28.01 3.5H28.72C28.82 3.5 28.92 3.5 29.02 3.6H32.46C32.56 3.6 32.76 3.6 32.86 3.5H32.96C33.06 3.5 33.26 3.4 33.36 3.4H33.46C33.56 3.4 33.76 3.3 33.86 3.3C33.96 3.3 34.16 3.2 34.26 3.2H34.36C34.46 3.2 34.56 3.1 34.76 3.1C33.55 1.1 32.13 0 30.71 0C29.4 0 27.98 1 26.76 2.9C26.66 3 26.76 3 26.86 3.1H26.91Z" fill="#931213"/>
<path d="M45.83 1.39961H49.67C49.97 1.39961 50.28 1.09961 50.28 0.799608C50.28 0.499608 49.98 0.0996094 49.57 0.0996094H45.83C45.53 0.0996094 45.22 0.399608 45.22 0.699608C45.22 0.999608 45.52 1.39961 45.83 1.39961Z" fill="#931213"/>
<path d="M44.51 5.10039H49.57C49.87 5.10039 50.18 4.80039 50.18 4.50039C50.18 4.20039 49.88 3.90039 49.57 3.90039H44.51C44.21 3.90039 43.9 4.20039 43.9 4.50039C43.9 4.80039 44.2 5.10039 44.51 5.10039Z" fill="#931213"/>
<path d="M43.3 8.89922H49.57C49.87 8.89922 50.18 8.59922 50.18 8.29922C50.18 7.99922 49.88 7.69922 49.57 7.69922H43.3C43 7.69922 42.69 7.99922 42.69 8.29922C42.69 8.59922 42.99 8.89922 43.3 8.89922Z" fill="#931213"/>
<path d="M11.63 1.39961H15.47C15.77 1.39961 16.08 1.09961 16.08 0.799608C16.08 0.499608 15.78 0.0996094 15.47 0.0996094H11.73C11.43 0.0996094 11.12 0.399608 11.12 0.699608C11.12 0.999608 11.32 1.39961 11.63 1.39961Z" fill="#931213"/>
<path d="M11.63 5.10039H16.69C16.99 5.10039 17.3 4.80039 17.3 4.50039C17.3 4.20039 17 3.90039 16.69 3.90039H11.63C11.33 3.90039 11.02 4.20039 11.02 4.50039C11.02 4.80039 11.32 5.10039 11.63 5.10039Z" fill="#931213"/>
<path d="M11.63 8.89922H17.9C18.2 8.89922 18.51 8.59922 18.51 8.29922C18.51 7.99922 18.21 7.69922 17.9 7.69922H11.63C11.33 7.69922 11.02 7.99922 11.02 8.29922C11.02 8.59922 11.32 8.89922 11.63 8.89922Z" fill="#931213"/>
<path d="M59.68 44.4996H56.54V15.5996C56.54 13.8996 55.12 12.5996 53.51 12.5996H45.82C45.52 12.5996 45.21 12.8996 45.21 13.1996C45.21 13.4996 45.51 13.7996 45.82 13.7996H53.51C54.52 13.7996 55.33 14.5996 55.33 15.5996V44.4996H4.75V15.5996C4.75 14.5996 5.56 13.7996 6.57 13.7996H15.47C15.77 13.7996 16.08 13.4996 16.08 13.1996C16.08 12.8996 15.78 12.5996 15.47 12.5996H6.58C4.86 12.5996 3.55 13.8996 3.55 15.5996V44.4996H0.61C0.31 44.4996 0 44.7996 0 45.0996V49.7996C0 50.0996 0.2 50.2996 0.4 50.3996L11.83 53.7996H6.57C6.27 53.7996 5.96 54.0996 5.96 54.3996C5.96 54.6996 6.26 54.9996 6.57 54.9996H54.62C54.92 54.9996 55.23 54.6996 55.23 54.3996C55.23 54.0996 54.93 53.7996 54.62 53.7996H48.35L59.88 50.3996C60.18 50.2996 60.28 50.0996 60.28 49.7996V45.0996C60.38 44.7996 60.08 44.4996 59.67 44.4996H59.68Z" fill="#931213"/>
<path d="M15.48 18.8996C15.78 18.8996 16.09 18.5996 16.09 18.2996C16.09 17.9996 15.79 17.6996 15.48 17.6996H9.41C9.11 17.6996 8.8 17.9996 8.8 18.2996V40.7996C8.8 41.0996 9.1 41.3996 9.41 41.3996H50.89C51.19 41.3996 51.5 41.0996 51.5 40.7996V18.1996C51.5 17.8996 51.2 17.5996 50.89 17.5996H45.83C45.53 17.5996 45.22 17.8996 45.22 18.1996C45.22 18.4996 45.52 18.7996 45.83 18.7996H50.28V40.0996H10.01V18.8996H15.47H15.48Z" fill="#931213"/>
<path d="M24.28 35.6992H21.75V38.1992H24.28V35.6992Z" fill="#931213"/>
<path d="M28.12 35.6992H25.59V38.1992H28.12V35.6992Z" fill="#931213"/>
<path d="M31.87 35.6992H29.34V38.1992H31.87V35.6992Z" fill="#931213"/>
<path d="M35.71 35.6992H33.18V38.1992H35.71V35.6992Z" fill="#931213"/>
<path d="M39.45 35.6992H36.92V38.1992H39.45V35.6992Z" fill="#931213"/>
</svg>
