<svg width="55" height="52" viewBox="0 0 55 52" fill="none" xmlns="http://www.w3.org/2000/svg">
<path d="M33.89 36.3008L27.42 51.3008H37.23V41.9008C37.23 41.6008 37.53 41.3008 37.84 41.3008C38.15 41.3008 38.45 41.6008 38.45 41.9008V51.3008H48.26L41.79 36.3008H33.9H33.89Z" fill="#931213"/>
<path d="M30.25 13.8008H3.14C1.42 13.8008 0 15.2008 0 16.9008V31.9008C0 33.4008 1.11 34.7008 2.53 35.0008V19.5008C2.53 19.2008 2.83 18.9008 3.14 18.9008C3.45 18.9008 3.75 19.2008 3.75 19.5008V51.4008H8.81V35.7008C8.81 35.4008 9.11 35.1008 9.42 35.1008C9.73 35.1008 10.03 35.4008 10.03 35.7008V51.3008H15.09V17.0008C15.09 16.7008 15.39 16.4008 15.7 16.4008H27.13C28.65 16.3008 29.96 15.2008 30.27 13.8008H30.25Z" fill="#931213"/>
<path d="M34.1 5.1H41.69C42.4 5.1 43 4.5 43 3.8C43 3.1 42.39 2.5 41.69 2.5H34.1C33.39 2.5 32.78 3.1 32.78 3.8C32.78 4.5 33.39 5.1 34.1 5.1Z" fill="#931213"/>
<path d="M27.72 8.79922H47.95C48.66 8.79922 49.27 8.19922 49.27 7.49922C49.27 6.79922 48.66 6.19922 47.95 6.19922H27.62C26.91 6.19922 26.31 6.79922 26.31 7.49922C26.51 8.29922 27.02 8.79922 27.73 8.79922H27.72Z" fill="#931213"/>
<path d="M9.41 8.8C11.84 8.8 13.86 6.8 13.86 4.4C13.86 2 11.84 0 9.41 0C6.98 0 4.96 2 4.96 4.4C4.96 6.8 6.98 8.8 9.41 8.8Z" fill="#931213"/>
<path d="M54.33 30.0996V10.0996H21.35V12.5996H30.86C31.16 12.5996 31.47 12.8996 31.47 13.1996C31.47 15.5996 29.45 17.5996 27.02 17.5996H21.36V35.0996H54.24V31.2996H33.5C33.2 31.2996 32.89 30.9996 32.89 30.6996C32.89 30.3996 33.19 30.0996 33.5 30.0996H37.95V28.1996C37.95 27.8996 38.25 27.5996 38.56 27.5996C38.87 27.5996 39.17 27.8996 39.17 28.1996V30.0996H41.7V26.9996C41.7 26.6996 42 26.3996 42.31 26.3996C42.62 26.3996 42.92 26.6996 42.92 26.9996V30.0996H45.45V25.6996C45.45 25.3996 45.75 25.0996 46.06 25.0996C46.37 25.0996 46.67 25.3996 46.67 25.6996V30.0996H49.2V24.4996C49.2 24.1996 49.5 23.8996 49.81 23.8996C50.12 23.8996 50.42 24.1996 50.42 24.4996V30.0996H54.37H54.33ZM49.07 16.0996L42.8 23.5996C42.7 23.7996 42.5 23.7996 42.19 23.7996C41.99 23.7996 41.78 23.5996 41.68 23.4996L39.56 19.3996L33.9 26.1996C33.8 26.3996 33.6 26.3996 33.39 26.3996C33.18 26.3996 32.98 26.2996 32.88 26.0996L30.86 23.0996L26.31 28.6996C26.21 28.8996 26.01 28.8996 25.8 28.8996C25.7 28.8996 25.5 28.8996 25.39 28.7996C25.09 28.5996 25.09 28.1996 25.29 27.8996L30.35 21.5996C30.45 21.3996 30.65 21.3996 30.86 21.3996C31.07 21.3996 31.26 21.4996 31.37 21.6996L33.39 24.7996L39.16 17.8996C39.26 17.6996 39.46 17.6996 39.77 17.6996C39.97 17.6996 40.17 17.8996 40.28 17.9996L42.4 22.0996L48.06 15.2996C48.26 14.9996 48.67 14.9996 48.97 15.1996C49.27 15.3996 49.37 15.7996 49.07 16.0996ZM49.88 20.0996C49.58 20.0996 49.27 19.7996 49.27 19.4996V15.0996H44.82C44.52 15.0996 44.21 14.7996 44.21 14.4996C44.21 14.1996 44.51 13.8996 44.82 13.8996H49.88C50.18 13.8996 50.49 14.1996 50.49 14.4996V19.4996C50.49 19.7996 50.19 20.0996 49.88 20.0996Z" fill="#931213"/>
</svg>
