<svg width="22" height="21" viewBox="0 0 22 21" fill="none" xmlns="http://www.w3.org/2000/svg">
<path fill-rule="evenodd" clip-rule="evenodd" d="M11 21C5.81455 21 3.22182 21 1.61092 19.4623C1.453e-06 17.9247 1.35066e-06 15.4497 9.17939e-07 10.5C4.85218e-07 5.55025 1.54832e-07 3.07538 1.61092 1.53769C3.22182 -3.90504e-07 5.81454 -5.08324e-07 11 -9.6165e-07C16.1854 -1.41497e-06 18.7782 -1.75049e-06 20.389 1.53769C22 3.07537 22 5.55025 22 10.5C22 15.4497 22 17.9247 20.389 19.4623C18.7782 21 16.1854 21 11 21ZM15.4333 7.31815C15.7555 7.62569 15.7555 8.12431 15.4333 8.43181L9.93333 13.6818C9.61114 13.9894 9.08886 13.9894 8.76664 13.6818L6.56664 11.5818C6.24446 11.2743 6.24446 10.7757 6.56664 10.4682C6.88882 10.1606 7.41118 10.1606 7.73336 10.4682L9.35 12.0113L14.2667 7.31815C14.5889 7.01062 15.1111 7.01062 15.4333 7.31815Z" fill="#01FDB2"/>
</svg>
