<svg width="59" height="57" viewBox="0 0 59 57" fill="none" xmlns="http://www.w3.org/2000/svg">
<path d="M11.23 3.79961H18.41C19.42 3.79961 20.33 2.99961 20.33 1.89961C20.33 0.799612 19.42 0.0996094 18.41 0.0996094H11.23C10.22 0.0996094 9.31 0.899611 9.31 1.99961C9.31 3.09961 10.22 3.79961 11.23 3.79961Z" fill="#931213"/>
<path d="M32.07 19.5992C32.17 20.5992 32.98 21.3992 33.99 21.3992H49.47C50.48 21.3992 51.29 20.5992 51.39 19.5992L52.1 10.0992H41.68C41.38 10.0992 41.07 9.79922 41.07 9.49922C41.07 9.19922 41.37 8.89922 41.68 8.89922H51.8C51.9 8.89922 52 8.89922 52.1 8.99922L52.2 7.19922C52.2 6.69922 52.1 6.19922 51.69 5.79922C51.29 5.39922 50.78 5.19922 50.27 5.19922H32.97C32.46 5.19922 31.96 5.39922 31.55 5.79922C31.15 6.19922 31.04 6.69922 31.04 7.19922L32.05 19.5992H32.07Z" fill="#931213"/>
<path d="M35.71 35.8004C36.82 35.8004 37.63 34.8004 37.63 33.6004C37.63 32.4004 36.72 31.4004 35.71 31.4004H20.84C19.83 31.4004 18.92 32.4004 18.92 33.6004C18.92 34.9004 19.73 35.8004 20.84 35.8004H35.71Z" fill="#931213"/>
<path d="M22.86 21.2996C23.87 21.2996 24.68 20.4996 24.78 19.4996L25.69 7.09961C25.69 6.59961 25.59 6.09961 25.18 5.69961C24.78 5.29961 24.27 5.09961 23.76 5.09961H6.46C5.95 5.09961 5.45 5.29961 5.04 5.69961C4.64 6.09961 4.53 6.59961 4.53 7.09961L4.63 8.89961C4.73 8.79961 4.83 8.79961 4.93 8.79961H15.05C15.35 8.79961 15.66 9.09961 15.66 9.39961C15.66 9.69961 15.36 9.99961 15.05 9.99961H4.73L5.44 19.4996C5.54 20.4996 6.35 21.2996 7.36 21.2996H22.84H22.86Z" fill="#931213"/>
<path d="M36.72 48.2008C36.72 49.2008 37.53 50.1008 38.64 50.1008H44.91C45.92 50.1008 46.83 49.3008 46.83 48.2008C46.83 47.1008 46.02 46.3008 44.91 46.3008H38.64C37.63 46.3008 36.72 47.2008 36.72 48.2008Z" fill="#931213"/>
<path d="M38.24 3.8H45.42C46.43 3.8 47.34 3 47.34 1.9C47.34 0.800002 46.53 0 45.42 0H38.24C37.23 0 36.32 0.800002 36.32 1.9C36.32 3 37.23 3.8 38.24 3.8Z" fill="#931213"/>
<path d="M21.14 37H20.84C19.02 37 17.7 35.5 17.7 33.5C17.7 31.5 19.12 30 20.84 30H21.14V22.5H8.39V38.3C8.39 39 9 39.7 9.81 39.7H19.72C20.43 39.7 21.14 39.1 21.14 38.3V37Z" fill="#931213"/>
<path d="M44.82 41H38.75V45.1H44.82V41Z" fill="#931213"/>
<path d="M48.05 38.3996V22.5996H35.4V30.0996H35.6C37.32 30.0996 38.74 31.6996 38.74 33.5996C38.74 35.5996 37.32 37.0996 35.6 37.0996H35.4V38.4996C35.4 39.1996 36.01 39.8996 36.82 39.8996H46.73C47.44 39.7996 48.05 39.0996 48.05 38.3996Z" fill="#931213"/>
<path d="M17.81 41H11.84V45.1H17.81V41Z" fill="#931213"/>
<path d="M18.01 46.3008H11.74C10.73 46.3008 9.82 47.1008 9.82 48.2008C9.82 49.3008 10.63 50.1008 11.74 50.1008H18.01C19.02 50.1008 19.93 49.3008 19.93 48.2008C19.93 47.1008 19.02 46.3008 18.01 46.3008Z" fill="#931213"/>
<path d="M56.85 55.0996H21.44C21.14 55.0996 20.83 55.3996 20.83 55.6996C20.83 55.9996 21.13 56.2996 21.44 56.2996H56.85C57.15 56.2996 57.46 55.9996 57.46 55.6996C57.46 55.3996 57.16 55.0996 56.85 55.0996Z" fill="#931213"/>
<path d="M23.98 51.3008C23.68 51.3008 23.37 51.6008 23.37 51.9008C23.37 52.2008 23.67 52.5008 23.98 52.5008H32.88C33.18 52.5008 33.49 52.2008 33.49 51.9008C33.49 51.6008 33.19 51.3008 32.88 51.3008H23.98Z" fill="#931213"/>
<path d="M2.53 52H0V54.5H2.53V52Z" fill="#931213"/>
<path d="M5.06 49.5H2.53V52H5.06V49.5Z" fill="#931213"/>
<path d="M2.53 47H0V49.5H2.53V47Z" fill="#931213"/>
<path d="M5.06 44.5H2.53V47H5.06V44.5Z" fill="#931213"/>
<path d="M2.53 42H0V44.5H2.53V42Z" fill="#931213"/>
<path d="M58.17 33.1992H55.64V35.6992H58.17V33.1992Z" fill="#931213"/>
<path d="M55.64 30.6992H53.11V33.1992H55.64V30.6992Z" fill="#931213"/>
<path d="M58.17 28.1992H55.64V30.6992H58.17V28.1992Z" fill="#931213"/>
<path d="M55.64 25.6992H53.11V28.1992H55.64V25.6992Z" fill="#931213"/>
</svg>
