<svg width="24" height="1032" viewBox="0 0 24 1032" fill="none" xmlns="http://www.w3.org/2000/svg">
<path d="M12.1089 897.511C14.3763 897.511 16.5928 898.171 18.4781 899.406C20.3634 900.642 21.8328 902.398 22.7005 904.453C23.5683 906.507 23.7953 908.768 23.3529 910.949C22.9106 913.131 21.8187 915.134 20.2154 916.707C18.6121 918.279 16.5693 919.35 14.3455 919.784C12.1216 920.218 9.8165 919.995 7.72166 919.144C5.62683 918.293 3.83634 916.852 2.57662 915.003C1.3169 913.154 0.644532 910.98 0.644532 908.756C0.645663 905.774 1.85387 902.914 4.00361 900.806C6.15335 898.698 9.06869 897.513 12.1089 897.511Z" fill="black"/>
<path d="M12.1089 1009.24C14.3763 1009.24 16.5928 1009.9 18.4781 1011.13C20.3634 1012.37 21.8328 1014.12 22.7005 1016.18C23.5683 1018.23 23.7953 1020.49 23.3529 1022.68C22.9106 1024.86 21.8187 1026.86 20.2154 1028.43C18.6121 1030.01 16.5693 1031.08 14.3455 1031.51C12.1216 1031.94 9.8165 1031.72 7.72166 1030.87C5.62683 1030.02 3.83634 1028.58 2.57662 1026.73C1.3169 1024.88 0.644532 1022.71 0.644532 1020.48C0.645663 1017.5 1.85387 1014.64 4.00361 1012.53C6.15335 1010.42 9.06869 1009.24 12.1089 1009.24Z" fill="black"/>
<path d="M11.8912 873.42C14.1587 873.42 16.3752 874.079 18.2605 875.315C20.1458 876.55 21.6152 878.306 22.4829 880.361C23.3506 882.416 23.5776 884.676 23.1353 886.858C22.6929 889.039 21.6011 891.042 19.9977 892.615C18.3944 894.187 16.3517 895.258 14.1278 895.692C11.9039 896.126 9.59884 895.903 7.50401 895.052C5.40917 894.201 3.61869 892.76 2.35897 890.911C1.09925 889.062 0.42688 886.888 0.42688 884.664C0.42688 881.682 1.63473 878.822 3.78471 876.713C5.93469 874.604 8.85069 873.42 11.8912 873.42Z" fill="black"/>
<path d="M11.8912 985.146C14.1587 985.146 16.3752 985.806 18.2605 987.041C20.1458 988.277 21.6152 990.033 22.4829 992.087C23.3506 994.142 23.5776 996.403 23.1353 998.584C22.6929 1000.77 21.6011 1002.77 19.9977 1004.34C18.3944 1005.91 16.3517 1006.98 14.1278 1007.42C11.9039 1007.85 9.59884 1007.63 7.50401 1006.78C5.40917 1005.93 3.61869 1004.49 2.35897 1002.64C1.09925 1000.79 0.42688 998.614 0.42688 996.39C0.42688 993.408 1.63473 990.548 3.78471 988.44C5.93469 986.331 8.85069 985.146 11.8912 985.146Z" fill="black"/>
<path d="M24 854.032C24 856.339 23.3026 858.594 21.996 860.512C20.6894 862.43 18.8323 863.925 16.6594 864.808C14.4866 865.69 12.0957 865.921 9.78903 865.471C7.48237 865.021 5.36357 863.91 3.70056 862.279C2.03755 860.648 0.905027 858.57 0.446204 856.308C-0.0126196 854.045 0.222865 851.7 1.12288 849.569C2.02289 847.438 3.54701 845.617 5.5025 844.335C7.45799 843.053 9.75703 842.369 12.1089 842.369C15.2616 842.373 18.2842 843.603 20.5135 845.789C22.7427 847.976 23.9967 850.94 24 854.032ZM1.07136 854.032C1.07136 856.173 1.71869 858.267 2.93151 860.047C4.14433 861.827 5.86816 863.215 7.885 864.034C9.90185 864.853 12.1211 865.068 14.2622 864.65C16.4033 864.232 18.37 863.201 19.9136 861.687C21.4572 860.173 22.5084 858.244 22.9343 856.144C23.3602 854.044 23.1416 851.868 22.3062 849.89C21.4708 847.911 20.0561 846.221 18.241 845.031C16.4259 843.842 14.2919 843.207 12.1089 843.207C9.18259 843.21 6.37712 844.352 4.30791 846.381C2.23871 848.411 1.07474 851.162 1.07136 854.032Z" fill="black"/>
<path d="M24 965.759C24 968.066 23.3026 970.321 21.996 972.239C20.6894 974.156 18.8323 975.651 16.6594 976.534C14.4866 977.417 12.0957 977.648 9.78903 977.198C7.48237 976.748 5.36357 975.637 3.70056 974.006C2.03755 972.375 0.905027 970.297 0.446204 968.034C-0.0126196 965.772 0.222865 963.427 1.12288 961.296C2.02289 959.165 3.54701 957.343 5.5025 956.062C7.45799 954.78 9.75703 954.096 12.1089 954.096C15.2616 954.099 18.2842 955.329 20.5135 957.516C22.7427 959.702 23.9967 962.667 24 965.759ZM1.07136 965.759C1.07136 967.9 1.71869 969.993 2.93151 971.773C4.14433 973.554 5.86816 974.941 7.885 975.761C9.90185 976.58 12.1211 976.794 14.2622 976.377C16.4033 975.959 18.37 974.928 19.9136 973.414C21.4572 971.9 22.5084 969.971 22.9343 967.871C23.3602 965.771 23.1416 963.594 22.3062 961.616C21.4708 959.638 20.0561 957.947 18.241 956.758C16.4259 955.568 14.2919 954.933 12.1089 954.933C9.18259 954.937 6.37712 956.078 4.30791 958.108C2.23871 960.137 1.07474 962.889 1.07136 965.759Z" fill="black"/>
<path d="M23.7824 829.937C23.7824 832.243 23.085 834.498 21.7784 836.416C20.4717 838.334 18.6146 839.829 16.4418 840.712C14.269 841.595 11.878 841.826 9.57138 841.376C7.26472 840.925 5.14592 839.815 3.48291 838.184C1.8199 836.553 0.687375 834.474 0.228552 832.212C-0.230271 829.95 0.00521366 827.605 0.905227 825.473C1.80524 823.342 3.32936 821.521 5.28485 820.239C7.24034 818.958 9.53938 818.274 11.8912 818.274C15.0439 818.277 18.0665 819.507 20.2958 821.693C22.5251 823.88 23.779 826.844 23.7824 829.937ZM0.853704 829.937C0.853704 832.078 1.50104 834.171 2.71386 835.951C3.92668 837.731 5.65051 839.119 7.66735 839.938C9.6842 840.758 11.9035 840.972 14.0445 840.554C16.1856 840.137 18.1523 839.106 19.6959 837.592C21.2396 836.078 22.2908 834.149 22.7167 832.049C23.1426 829.949 22.924 827.772 22.0886 825.794C21.2532 823.816 19.8385 822.125 18.0233 820.935C16.2082 819.746 14.0742 819.111 11.8912 819.111C8.96494 819.114 6.15947 820.256 4.09026 822.285C2.02106 824.315 0.857092 827.067 0.853704 829.937Z" fill="black"/>
<path d="M23.7824 941.663C23.7824 943.97 23.085 946.225 21.7784 948.143C20.4717 950.061 18.6146 951.556 16.4418 952.438C14.269 953.321 11.878 953.552 9.57138 953.102C7.26472 952.652 5.14592 951.541 3.48291 949.91C1.8199 948.279 0.687375 946.201 0.228552 943.939C-0.230271 941.676 0.00521366 939.331 0.905227 937.2C1.80524 935.069 3.32936 933.247 5.28485 931.966C7.24034 930.684 9.53938 930 11.8912 930C15.0439 930.004 18.0665 931.233 20.2958 933.42C22.5251 935.606 23.779 938.571 23.7824 941.663ZM0.853704 941.663C0.853704 943.804 1.50104 945.897 2.71386 947.678C3.92668 949.458 5.65051 950.845 7.66735 951.665C9.6842 952.484 11.9035 952.699 14.0445 952.281C16.1856 951.863 18.1523 950.832 19.6959 949.318C21.2396 947.804 22.2908 945.875 22.7167 943.775C23.1426 941.675 22.924 939.499 22.0886 937.52C21.2532 935.542 19.8385 933.852 18.0233 932.662C16.2082 931.472 14.0742 930.838 11.8912 930.838C8.96494 930.841 6.15947 931.983 4.09026 934.012C2.02106 936.041 0.857092 938.793 0.853704 941.663Z" fill="black"/>
<path d="M12.1089 785.925C14.3763 785.925 16.5928 786.585 18.4781 787.82C20.3634 789.056 21.8328 790.812 22.7005 792.867C23.5683 794.921 23.7953 797.182 23.3529 799.363C22.9106 801.545 21.8187 803.548 20.2154 805.121C18.6121 806.693 16.5693 807.764 14.3455 808.198C12.1216 808.632 9.8165 808.409 7.72166 807.558C5.62683 806.707 3.83634 805.266 2.57662 803.417C1.3169 801.568 0.644532 799.394 0.644532 797.17C0.644532 794.188 1.85238 791.328 4.00236 789.219C6.15234 787.11 9.06834 785.925 12.1089 785.925Z" fill="#931213"/>
<path d="M11.8912 761.834C14.1594 761.834 16.3766 762.494 18.2623 763.73C20.1479 764.966 21.6173 766.723 22.4845 768.779C23.3517 770.834 23.5778 773.096 23.134 775.278C22.6903 777.459 21.5967 779.463 19.9917 781.035C18.3867 782.607 16.3423 783.676 14.1173 784.108C11.8923 784.54 9.58672 784.315 7.49218 783.462C5.39765 782.608 3.60834 781.164 2.35068 779.313C1.09302 777.461 0.423515 775.286 0.426893 773.061C0.431417 770.082 1.64126 767.226 3.79075 765.121C5.94024 763.016 8.85366 761.834 11.8912 761.834Z" fill="#931213"/>
<path d="M24 742.443C24 744.749 23.3026 747.004 21.996 748.922C20.6894 750.84 18.8323 752.335 16.6594 753.218C14.4866 754.1 12.0957 754.331 9.78903 753.881C7.48237 753.431 5.36357 752.321 3.70056 750.689C2.03755 749.058 0.905027 746.98 0.446204 744.718C-0.0126196 742.455 0.222865 740.11 1.12288 737.979C2.02289 735.848 3.54701 734.027 5.5025 732.745C7.45799 731.464 9.75703 730.78 12.1089 730.78C15.2616 730.783 18.2842 732.013 20.5135 734.199C22.7427 736.386 23.9967 739.35 24 742.443ZM1.07136 742.443C1.07136 744.584 1.71869 746.677 2.93151 748.457C4.14433 750.237 5.86816 751.625 7.885 752.444C9.90185 753.264 12.1211 753.478 14.2622 753.06C16.4033 752.642 18.37 751.611 19.9136 750.097C21.4572 748.583 22.5084 746.654 22.9343 744.555C23.3602 742.455 23.1416 740.278 22.3062 738.3C21.4708 736.322 20.0561 734.631 18.241 733.441C16.4259 732.252 14.2919 731.617 12.1089 731.617C9.18259 731.62 6.37712 732.762 4.30791 734.791C2.23871 736.821 1.07474 739.572 1.07136 742.443Z" fill="black"/>
<path d="M23.7824 718.351C23.7824 720.657 23.085 722.912 21.7784 724.83C20.4717 726.748 18.6146 728.243 16.4418 729.126C14.269 730.009 11.878 730.24 9.57138 729.79C7.26472 729.34 5.14592 728.229 3.48291 726.598C1.8199 724.967 0.687375 722.888 0.228552 720.626C-0.230271 718.364 0.00521366 716.019 0.905227 713.888C1.80524 711.756 3.32936 709.935 5.28485 708.653C7.24034 707.372 9.53938 706.688 11.8912 706.688C15.0439 706.691 18.0665 707.921 20.2958 710.107C22.5251 712.294 23.779 715.259 23.7824 718.351ZM0.853704 718.351C0.853704 720.492 1.50104 722.585 2.71386 724.365C3.92668 726.145 5.65051 727.533 7.66735 728.352C9.6842 729.172 11.9035 729.386 14.0445 728.968C16.1856 728.551 18.1523 727.52 19.6959 726.006C21.2396 724.492 22.2908 722.563 22.7167 720.463C23.1426 718.363 22.924 716.186 22.0886 714.208C21.2532 712.23 19.8385 710.539 18.0233 709.35C16.2082 708.16 14.0742 707.525 11.8912 707.525C8.96494 707.528 6.15947 708.67 4.09026 710.7C2.02106 712.729 0.857092 715.481 0.853704 718.351Z" fill="black"/>
<path d="M12.1089 678.244C14.3765 678.244 16.5932 678.903 18.4786 680.139C20.364 681.375 21.8334 683.131 22.701 685.186C23.5685 687.241 23.7953 689.502 23.3526 691.683C22.9099 693.865 21.8176 695.868 20.2139 697.441C18.6101 699.013 16.567 700.083 14.3428 700.517C12.1187 700.95 9.81346 700.727 7.7187 699.875C5.62394 699.024 3.83375 697.582 2.57455 695.732C1.31534 693.882 0.643688 691.708 0.644533 689.484C0.645664 686.502 1.85401 683.644 4.00387 681.536C6.15373 679.428 9.06908 678.244 12.1089 678.244Z" fill="black"/>
<path d="M11.8912 654.146C14.1587 654.146 16.3752 654.806 18.2605 656.041C20.1458 657.277 21.6152 659.033 22.4829 661.087C23.3506 663.142 23.5776 665.403 23.1353 667.584C22.6929 669.765 21.6011 671.769 19.9977 673.341C18.3944 674.914 16.3517 675.985 14.1278 676.419C11.9039 676.853 9.59884 676.63 7.50401 675.779C5.40917 674.928 3.61869 673.487 2.35897 671.637C1.09925 669.788 0.42688 667.614 0.42688 665.39C0.428011 662.409 1.63622 659.549 3.78596 657.441C5.93569 655.332 8.85104 654.147 11.8912 654.146Z" fill="black"/>
<path d="M24 634.761C24 637.068 23.3026 639.323 21.996 641.24C20.6894 643.158 18.8323 644.653 16.6594 645.536C14.4866 646.419 12.0957 646.65 9.78903 646.2C7.48237 645.75 5.36357 644.639 3.70056 643.008C2.03755 641.377 0.905027 639.299 0.446204 637.036C-0.0126196 634.774 0.222865 632.429 1.12288 630.298C2.02289 628.167 3.54701 626.345 5.5025 625.064C7.45799 623.782 9.75703 623.098 12.1089 623.098C15.2616 623.101 18.2842 624.331 20.5135 626.518C22.7427 628.704 23.9967 631.669 24 634.761ZM1.07136 634.761C1.07136 636.902 1.71869 638.995 2.93151 640.775C4.14433 642.556 5.86816 643.943 7.885 644.763C9.90185 645.582 12.1211 645.796 14.2622 645.379C16.4033 644.961 18.37 643.93 19.9136 642.416C21.4572 640.902 22.5084 638.973 22.9343 636.873C23.3602 634.773 23.1416 632.596 22.3062 630.618C21.4708 628.64 20.0561 626.949 18.241 625.76C16.4259 624.57 14.2919 623.935 12.1089 623.935C9.18259 623.939 6.37712 625.08 4.30791 627.11C2.23871 629.139 1.07474 631.891 1.07136 634.761Z" fill="black"/>
<path d="M23.7824 610.669C23.7824 612.976 23.085 615.231 21.7784 617.149C20.4717 619.067 18.6146 620.562 16.4418 621.444C14.269 622.327 11.878 622.558 9.57138 622.108C7.26472 621.658 5.14592 620.547 3.48291 618.916C1.8199 617.285 0.687375 615.207 0.228552 612.944C-0.230271 610.682 0.00521366 608.337 0.905227 606.206C1.80524 604.075 3.32936 602.253 5.28485 600.972C7.24034 599.69 9.53938 599.006 11.8912 599.006C15.0439 599.009 18.0665 600.239 20.2958 602.426C22.5251 604.612 23.779 607.577 23.7824 610.669ZM0.853704 610.669C0.853704 612.81 1.50104 614.903 2.71386 616.684C3.92668 618.464 5.65051 619.851 7.66735 620.671C9.6842 621.49 11.9035 621.704 14.0445 621.287C16.1856 620.869 18.1523 619.838 19.6959 618.324C21.2396 616.81 22.2908 614.881 22.7167 612.781C23.1426 610.681 22.924 608.504 22.0886 606.526C21.2532 604.548 19.8385 602.857 18.0233 601.668C16.2082 600.478 14.0742 599.843 11.8912 599.843C8.96494 599.847 6.15947 600.988 4.09026 603.018C2.02106 605.047 0.857092 607.799 0.853704 610.669Z" fill="black"/>
<path d="M12.1089 569.806C14.3763 569.806 16.5928 570.466 18.4781 571.701C20.3634 572.937 21.8328 574.693 22.7005 576.748C23.5683 578.802 23.7953 581.063 23.3529 583.244C22.9106 585.425 21.8187 587.429 20.2154 589.002C18.6121 590.574 16.5693 591.645 14.3455 592.079C12.1216 592.513 9.8165 592.29 7.72166 591.439C5.62683 590.588 3.83634 589.147 2.57662 587.298C1.3169 585.449 0.644532 583.275 0.644532 581.051C0.645663 578.069 1.85387 575.209 4.00361 573.101C6.15335 570.992 9.06869 569.807 12.1089 569.806Z" fill="black"/>
<path d="M11.8912 545.715C14.1587 545.715 16.3752 546.374 18.2605 547.61C20.1458 548.845 21.6152 550.601 22.4829 552.656C23.3506 554.71 23.5776 556.971 23.1353 559.152C22.6929 561.334 21.6011 563.337 19.9977 564.91C18.3944 566.482 16.3517 567.553 14.1278 567.987C11.9039 568.421 9.59884 568.198 7.50401 567.347C5.40917 566.496 3.61869 565.055 2.35897 563.206C1.09925 561.357 0.42688 559.183 0.42688 556.959C0.42688 553.977 1.63473 551.117 3.78471 549.008C5.93469 546.899 8.85069 545.715 11.8912 545.715Z" fill="black"/>
<path d="M24 526.327C24 528.634 23.3026 530.889 21.996 532.807C20.6894 534.725 18.8323 536.22 16.6594 537.102C14.4866 537.985 12.0957 538.216 9.78903 537.766C7.48237 537.316 5.36357 536.205 3.70056 534.574C2.03755 532.943 0.905027 530.865 0.446204 528.603C-0.0126196 526.34 0.222865 523.995 1.12288 521.864C2.02289 519.733 3.54701 517.911 5.5025 516.63C7.45799 515.348 9.75703 514.664 12.1089 514.664C15.2616 514.668 18.2842 515.898 20.5135 518.084C22.7427 520.271 23.9967 523.235 24 526.327ZM1.07136 526.327C1.07136 528.468 1.71869 530.561 2.93151 532.342C4.14433 534.122 5.86816 535.51 7.885 536.329C9.90185 537.148 12.1211 537.363 14.2622 536.945C16.4033 536.527 18.37 535.496 19.9136 533.982C21.4572 532.468 22.5084 530.539 22.9343 528.439C23.3602 526.339 23.1416 524.163 22.3062 522.184C21.4708 520.206 20.0561 518.516 18.241 517.326C16.4259 516.137 14.2919 515.502 12.1089 515.502C9.18259 515.505 6.37712 516.647 4.30791 518.676C2.23871 520.706 1.07474 523.457 1.07136 526.327Z" fill="black"/>
<path d="M23.7824 502.235C23.7824 504.542 23.085 506.797 21.7784 508.715C20.4717 510.633 18.6146 512.128 16.4418 513.011C14.269 513.893 11.878 514.124 9.57138 513.674C7.26472 513.224 5.14592 512.114 3.48291 510.482C1.8199 508.851 0.687375 506.773 0.228552 504.511C-0.230271 502.248 0.00521366 499.903 0.905227 497.772C1.80524 495.641 3.32936 493.82 5.28485 492.538C7.24034 491.257 9.53938 490.573 11.8912 490.573C15.0439 490.576 18.0665 491.806 20.2958 493.992C22.5251 496.179 23.779 499.143 23.7824 502.235ZM0.853704 502.236C0.853704 504.377 1.50104 506.47 2.71386 508.25C3.92668 510.03 5.65051 511.418 7.66735 512.237C9.6842 513.056 11.9035 513.271 14.0445 512.853C16.1856 512.435 18.1523 511.404 19.6959 509.89C21.2396 508.376 22.2908 506.447 22.7167 504.347C23.1426 502.248 22.924 500.071 22.0886 498.093C21.2532 496.115 19.8385 494.424 18.0233 493.234C16.2082 492.045 14.0742 491.41 11.8912 491.41C8.96494 491.413 6.15947 492.555 4.09026 494.584C2.02106 496.614 0.857092 499.365 0.853704 502.236Z" fill="black"/>
<path d="M12.1089 459.929C14.3763 459.929 16.5928 460.589 18.4781 461.824C20.3634 463.06 21.8328 464.816 22.7005 466.871C23.5683 468.925 23.7953 471.186 23.3529 473.367C22.9106 475.548 21.8187 477.552 20.2154 479.125C18.6121 480.697 16.5693 481.768 14.3455 482.202C12.1216 482.636 9.8165 482.413 7.72166 481.562C5.62683 480.711 3.83634 479.27 2.57662 477.421C1.3169 475.572 0.644532 473.398 0.644532 471.174C0.644532 468.191 1.85238 465.331 4.00236 463.223C6.15234 461.114 9.06834 459.929 12.1089 459.929Z" fill="#931213"/>
<path d="M11.8912 435.845C14.1587 435.845 16.3752 436.505 18.2605 437.74C20.1458 438.976 21.6152 440.732 22.4829 442.787C23.3506 444.841 23.5776 447.102 23.1353 449.283C22.6929 451.464 21.6011 453.468 19.9977 455.041C18.3944 456.613 16.3517 457.684 14.1278 458.118C11.9039 458.552 9.59884 458.329 7.50401 457.478C5.40917 456.627 3.61869 455.186 2.35897 453.337C1.09925 451.488 0.42688 449.314 0.42688 447.09C0.428011 444.108 1.63622 441.248 3.78596 439.14C5.93569 437.032 8.85104 435.846 11.8912 435.845Z" fill="#931213"/>
<path d="M24 416.46C24 418.767 23.3026 421.022 21.996 422.94C20.6894 424.858 18.8323 426.353 16.6594 427.235C14.4866 428.118 12.0957 428.349 9.78903 427.899C7.48237 427.449 5.36357 426.338 3.70056 424.707C2.03755 423.076 0.905027 420.998 0.446204 418.735C-0.0126196 416.473 0.222865 414.128 1.12288 411.997C2.02289 409.866 3.54701 408.044 5.5025 406.763C7.45799 405.481 9.75703 404.797 12.1089 404.797C15.2616 404.801 18.2842 406.03 20.5135 408.217C22.7427 410.403 23.9967 413.368 24 416.46ZM1.07136 416.46C1.07136 418.601 1.71869 420.694 2.93151 422.475C4.14433 424.255 5.86816 425.642 7.885 426.462C9.90185 427.281 12.1211 427.495 14.2622 427.078C16.4033 426.66 18.37 425.629 19.9136 424.115C21.4572 422.601 22.5084 420.672 22.9343 418.572C23.3602 416.472 23.1416 414.295 22.3062 412.317C21.4708 410.339 20.0561 408.648 18.241 407.459C16.4259 406.269 14.2919 405.634 12.1089 405.634C9.18259 405.638 6.37712 406.779 4.30791 408.809C2.23871 410.838 1.07474 413.59 1.07136 416.46Z" fill="black"/>
<path d="M23.7824 392.366C23.7824 394.673 23.085 396.928 21.7784 398.846C20.4717 400.764 18.6146 402.259 16.4418 403.141C14.269 404.024 11.878 404.255 9.57138 403.805C7.26472 403.355 5.14592 402.244 3.48291 400.613C1.8199 398.982 0.687375 396.904 0.228552 394.642C-0.230271 392.379 0.00521366 390.034 0.905227 387.903C1.80524 385.772 3.32936 383.951 5.28485 382.669C7.24034 381.387 9.53938 380.703 11.8912 380.703C15.0439 380.707 18.0665 381.937 20.2958 384.123C22.5251 386.31 23.779 389.274 23.7824 392.366ZM0.853704 392.366C0.853704 394.507 1.50104 396.601 2.71386 398.381C3.92668 400.161 5.65051 401.549 7.66735 402.368C9.6842 403.187 11.9035 403.402 14.0445 402.984C16.1856 402.566 18.1523 401.535 19.6959 400.021C21.2396 398.507 22.2908 396.578 22.7167 394.478C23.1426 392.378 22.924 390.202 22.0886 388.224C21.2532 386.245 19.8385 384.555 18.0233 383.365C16.2082 382.176 14.0742 381.541 11.8912 381.541C8.96494 381.544 6.15947 382.686 4.09026 384.715C2.02106 386.745 0.857092 389.496 0.853704 392.366Z" fill="black"/>
<path d="M12.1089 348.353C14.3763 348.353 16.5928 349.013 18.4781 350.248C20.3634 351.484 21.8328 353.24 22.7005 355.294C23.5683 357.349 23.7953 359.61 23.3529 361.791C22.9106 363.972 21.8187 365.976 20.2154 367.548C18.6121 369.121 16.5693 370.192 14.3455 370.626C12.1216 371.06 9.8165 370.837 7.72166 369.986C5.62683 369.135 3.83634 367.694 2.57662 365.844C1.3169 363.995 0.644532 361.821 0.644532 359.597C0.645663 356.616 1.85387 353.756 4.00361 351.648C6.15335 349.539 9.06869 348.354 12.1089 348.353Z" fill="black"/>
<path d="M11.8912 324.261C14.1587 324.261 16.3752 324.921 18.2605 326.156C20.1458 327.392 21.6152 329.148 22.4829 331.203C23.3506 333.257 23.5776 335.518 23.1353 337.699C22.6929 339.881 21.6011 341.884 19.9977 343.457C18.3944 345.029 16.3517 346.1 14.1278 346.534C11.9039 346.968 9.59884 346.745 7.50401 345.894C5.40917 345.043 3.61869 343.602 2.35897 341.753C1.09925 339.904 0.42688 337.73 0.42688 335.506C0.42688 332.524 1.63473 329.663 3.78471 327.555C5.93469 325.446 8.85069 324.261 11.8912 324.261Z" fill="black"/>
<path d="M24 304.874C24 307.181 23.3026 309.436 21.996 311.354C20.6894 313.272 18.8323 314.767 16.6594 315.649C14.4866 316.532 12.0957 316.763 9.78903 316.313C7.48237 315.863 5.36357 314.752 3.70056 313.121C2.03755 311.49 0.905027 309.412 0.446204 307.149C-0.0126196 304.887 0.222865 302.542 1.12288 300.411C2.02289 298.28 3.54701 296.458 5.5025 295.177C7.45799 293.895 9.75703 293.211 12.1089 293.211C15.2616 293.215 18.2842 294.444 20.5135 296.631C22.7427 298.817 23.9967 301.782 24 304.874ZM1.07136 304.874C1.07136 307.015 1.71869 309.108 2.93151 310.889C4.14433 312.669 5.86816 314.056 7.885 314.876C9.90185 315.695 12.1211 315.91 14.2622 315.492C16.4033 315.074 18.37 314.043 19.9136 312.529C21.4572 311.015 22.5084 309.086 22.9343 306.986C23.3602 304.886 23.1416 302.71 22.3062 300.731C21.4708 298.753 20.0561 297.062 18.241 295.873C16.4259 294.683 14.2919 294.049 12.1089 294.049C9.18259 294.052 6.37712 295.193 4.30791 297.223C2.23871 299.252 1.07474 302.004 1.07136 304.874Z" fill="black"/>
<path d="M23.7823 280.782C23.7823 283.089 23.0849 285.344 21.7783 287.262C20.4717 289.18 18.6145 290.675 16.4417 291.558C14.2689 292.44 11.878 292.671 9.57132 292.221C7.26466 291.771 5.14586 290.66 3.48285 289.029C1.81984 287.398 0.687314 285.32 0.228491 283.058C-0.230332 280.795 0.00515263 278.45 0.905166 276.319C1.80518 274.188 3.3293 272.367 5.28479 271.085C7.24028 269.803 9.53932 269.119 11.8912 269.119C15.0439 269.123 18.0665 270.353 20.2957 272.539C22.525 274.726 23.7789 277.69 23.7823 280.782ZM0.853643 280.782C0.853643 282.924 1.50098 285.017 2.7138 286.797C3.92662 288.577 5.65045 289.965 7.66729 290.784C9.68413 291.603 11.9034 291.818 14.0445 291.4C16.1856 290.982 18.1523 289.951 19.6959 288.437C21.2395 286.923 22.2907 284.994 22.7166 282.894C23.1425 280.794 22.9239 278.618 22.0885 276.64C21.2531 274.661 19.8384 272.971 18.0233 271.781C16.2082 270.592 14.0742 269.957 11.8912 269.957C8.96487 269.96 6.1594 271.102 4.0902 273.131C2.021 275.161 0.857031 277.912 0.853643 280.782Z" fill="black"/>
<path d="M12.1089 240.67C14.3763 240.67 16.5928 241.329 18.4781 242.565C20.3634 243.8 21.8328 245.556 22.7005 247.611C23.5683 249.666 23.7953 251.926 23.3529 254.108C22.9106 256.289 21.8187 258.292 20.2154 259.865C18.6121 261.437 16.5693 262.508 14.3455 262.942C12.1216 263.376 9.8165 263.153 7.72166 262.302C5.62683 261.451 3.83634 260.01 2.57662 258.161C1.3169 256.312 0.644532 254.138 0.644532 251.914C0.645663 248.932 1.85387 246.073 4.00361 243.964C6.15335 241.856 9.06869 240.671 12.1089 240.67Z" fill="#931213"/>
<path d="M11.8912 216.578C14.1588 216.578 16.3755 217.237 18.2609 218.473C20.1462 219.709 21.6157 221.465 22.4832 223.52C23.3508 225.575 23.5776 227.836 23.1349 230.017C22.6922 232.199 21.5999 234.202 19.9962 235.774C18.3924 237.347 16.3493 238.417 14.1251 238.851C11.901 239.284 9.59575 239.061 7.50099 238.209C5.40623 237.358 3.61604 235.916 2.35684 234.066C1.09763 232.216 0.425976 230.042 0.42682 227.818C0.427952 224.836 1.6363 221.978 3.78616 219.87C5.93602 217.762 8.85137 216.578 11.8912 216.578Z" fill="#931213"/>
<path d="M24 197.193C24 199.499 23.3026 201.754 21.996 203.672C20.6894 205.59 18.8323 207.085 16.6594 207.968C14.4866 208.85 12.0957 209.081 9.78903 208.631C7.48237 208.181 5.36357 207.071 3.70056 205.439C2.03755 203.808 0.905027 201.73 0.446204 199.468C-0.0126196 197.205 0.222865 194.86 1.12288 192.729C2.02289 190.598 3.54701 188.777 5.5025 187.495C7.45799 186.214 9.75703 185.53 12.1089 185.53C15.2616 185.533 18.2842 186.763 20.5135 188.949C22.7427 191.136 23.9967 194.1 24 197.193ZM1.07136 197.193C1.07136 199.334 1.71869 201.427 2.93151 203.207C4.14433 204.987 5.86816 206.375 7.885 207.194C9.90185 208.013 12.1211 208.228 14.2622 207.81C16.4033 207.393 18.37 206.361 19.9136 204.847C21.4572 203.333 22.5084 201.404 22.9343 199.305C23.3602 197.205 23.1416 195.028 22.3062 193.05C21.4708 191.072 20.0561 189.381 18.241 188.191C16.4259 187.002 14.2919 186.367 12.1089 186.367C9.18259 186.37 6.37712 187.512 4.30791 189.541C2.23871 191.571 1.07474 194.322 1.07136 197.193Z" fill="black"/>
<path d="M23.7824 173.096C23.7858 175.403 23.0912 177.66 21.7867 179.58C20.4821 181.5 18.6261 182.997 16.4536 183.883C14.2811 184.768 11.8896 185.001 9.58185 184.553C7.27407 184.105 5.15367 182.996 3.48895 181.365C1.82423 179.735 0.690013 177.657 0.229804 175.394C-0.230404 173.131 0.00408126 170.785 0.903591 168.653C1.8031 166.521 3.32721 164.699 5.28307 163.416C7.23893 162.134 9.53864 161.45 11.8912 161.45C15.041 161.453 18.061 162.68 20.2898 164.863C22.5186 167.046 23.7745 170.006 23.7824 173.096ZM0.853691 173.096C0.850314 175.238 1.49478 177.332 2.70554 179.115C3.91631 180.897 5.63895 182.287 7.65549 183.109C9.67204 183.931 11.8919 184.148 14.034 183.732C16.1762 183.316 18.1445 182.287 19.6899 180.773C21.2352 179.26 22.2881 177.331 22.7154 175.231C23.1427 173.13 22.9251 170.953 22.0902 168.974C21.2553 166.994 19.8406 165.303 18.0251 164.112C16.2096 162.922 14.075 162.287 11.8912 162.287C8.96787 162.29 6.16498 163.429 4.09627 165.455C2.02755 167.481 0.861593 170.228 0.853691 173.096Z" fill="black"/>
<path d="M12.1089 132.238C14.3763 132.238 16.5928 132.897 18.4781 134.133C20.3634 135.368 21.8328 137.125 22.7005 139.179C23.5683 141.234 23.7953 143.495 23.3529 145.676C22.9106 147.857 21.8187 149.861 20.2154 151.433C18.6121 153.006 16.5693 154.077 14.3455 154.511C12.1216 154.944 9.8165 154.722 7.72166 153.871C5.62683 153.02 3.83634 151.578 2.57662 149.729C1.3169 147.88 0.644532 145.706 0.644532 143.482C0.644532 140.5 1.85238 137.64 4.00236 135.531C6.15234 133.423 9.06834 132.238 12.1089 132.238Z" fill="black"/>
<path d="M12.1089 24.0914C14.3763 24.0914 16.5928 24.7509 18.4781 25.9865C20.3634 27.222 21.8328 28.9781 22.7005 31.0328C23.5683 33.0874 23.7953 35.3482 23.3529 37.5294C22.9106 39.7106 21.8187 41.7141 20.2154 43.2867C18.6121 44.8592 16.5693 45.9302 14.3455 46.364C12.1216 46.7979 9.8165 46.5752 7.72166 45.7241C5.62683 44.8731 3.83634 43.4318 2.57662 41.5827C1.3169 39.7336 0.644532 37.5597 0.644532 35.3357C0.644532 32.3536 1.85238 29.4936 4.00236 27.3849C6.15234 25.2761 9.06834 24.0914 12.1089 24.0914Z" fill="#931213"/>
<path d="M11.8912 108.146C14.1588 108.146 16.3755 108.806 18.2609 110.041C20.1462 111.277 21.6157 113.034 22.4832 115.088C23.3508 117.143 23.5776 119.404 23.1349 121.586C22.6922 123.767 21.5999 125.77 19.9962 127.343C18.3924 128.915 16.3493 129.986 14.1251 130.419C11.901 130.853 9.59575 130.629 7.50099 129.778C5.40623 128.926 3.61604 127.484 2.35684 125.634C1.09763 123.785 0.425976 121.61 0.42682 119.386C0.427952 116.405 1.6363 113.546 3.78616 111.438C5.93602 109.33 8.85137 108.146 11.8912 108.146Z" fill="black"/>
<path d="M11.8912 -0.000307584C14.1588 -0.000307683 16.3755 0.659232 18.2609 1.89496C20.1462 3.13068 21.6157 4.88706 22.4832 6.94193C23.3508 8.9968 23.5776 11.2579 23.1349 13.4392C22.6922 15.6205 21.5999 17.624 19.9962 19.1963C18.3924 20.7687 16.3493 21.8393 14.1251 22.2727C11.901 22.7061 9.59575 22.4828 7.50099 21.6311C5.40623 20.7795 3.61604 19.3376 2.35684 17.4879C1.09763 15.6382 0.425976 13.4639 0.42682 11.2398C0.427952 8.25835 1.6363 5.39938 3.78616 3.29157C5.93602 1.18376 8.85137 -0.000307451 11.8912 -0.000307584Z" fill="#931213"/>
<path d="M24 88.7547C24.0009 91.0616 23.3042 93.317 21.9981 95.2355C20.692 97.154 18.8351 98.6495 16.6624 99.5329C14.4896 100.416 12.0986 100.648 9.79165 100.198C7.48471 99.7487 5.3655 98.6383 3.70207 97.0073C2.03863 95.3764 0.905685 93.2983 0.446516 91.0358C-0.0126532 88.7733 0.222582 86.4281 1.12247 84.2967C2.02236 82.1654 3.54648 80.3436 5.50206 79.0618C7.45764 77.7801 9.75685 77.096 12.1089 77.096C15.2608 77.0993 18.2828 78.3286 20.5119 80.5142C22.7411 82.6998 23.9955 85.6633 24 88.7547ZM1.07135 88.7547C1.07051 90.896 1.71713 92.9895 2.92944 94.7703C4.14174 96.5511 5.86527 97.9393 7.88204 98.7594C9.89881 99.5794 12.1182 99.7944 14.2596 99.3771C16.4009 98.9599 18.368 97.9291 19.9121 96.4153C21.4561 94.9015 22.5078 92.9725 22.934 90.8725C23.3602 88.7724 23.1419 86.5955 22.3066 84.6171C21.4714 82.6387 20.0566 80.9477 18.2414 79.758C16.4262 78.5683 14.2921 77.9333 12.1089 77.9333C9.18332 77.9366 6.3785 79.0776 4.30942 81.1062C2.24034 83.1348 1.07587 85.8853 1.07135 88.7547Z" fill="black"/>
<path d="M23.7823 64.6633C23.7823 66.97 23.0849 69.2249 21.7783 71.1428C20.4717 73.0608 18.6145 74.5557 16.4417 75.4384C14.2689 76.3211 11.878 76.5521 9.57132 76.1021C7.26466 75.652 5.14586 74.5413 3.48285 72.9102C1.81984 71.2791 0.687314 69.201 0.228491 66.9386C-0.230332 64.6762 0.00515263 62.3312 0.905166 60.2C1.80518 58.0689 3.3293 56.2474 5.28479 54.9659C7.24028 53.6843 9.53932 53.0003 11.8912 53.0003C15.0439 53.0036 18.0665 54.2335 20.2957 56.42C22.525 58.6065 23.7789 61.5711 23.7823 64.6633ZM0.853643 64.6633C0.853643 66.8044 1.50098 68.8974 2.7138 70.6777C3.92662 72.4579 5.65045 73.8455 7.66729 74.6649C9.68413 75.4842 11.9034 75.6986 14.0445 75.2809C16.1856 74.8632 18.1523 73.8322 19.6959 72.3182C21.2395 70.8042 22.2907 68.8752 22.7166 66.7753C23.1425 64.6753 22.9239 62.4986 22.0885 60.5204C21.2531 58.5423 19.8384 56.8515 18.0233 55.662C16.2082 54.4724 14.0742 53.8376 11.8912 53.8376C8.96487 53.8409 6.1594 54.9825 4.0902 57.012C2.021 59.0415 0.857031 61.7931 0.853643 64.6633Z" fill="black"/>
</svg>
