<svg width="1438" height="82" viewBox="0 0 1438 82" fill="none" xmlns="http://www.w3.org/2000/svg">
<g clip-path="url(#clip0_309_2339)">
<path d="M5.33125 81.7824C3.02454 81.7824 0.769653 81.085 -1.14831 79.7784C-3.06626 78.4718 -4.56114 76.6146 -5.44387 74.4418C-6.32661 72.269 -6.55758 69.878 -6.10756 67.5714C-5.65754 65.2647 -4.54675 63.1459 -2.91566 61.4829C-1.28457 59.8199 0.793558 58.6874 3.05594 58.2286C5.31833 57.7697 7.66334 58.0052 9.79446 58.9052C11.9256 59.8052 13.7471 61.3294 15.0286 63.2849C16.3102 65.2403 16.9942 67.5394 16.9942 69.8912C16.9909 73.0439 15.761 76.0665 13.5745 78.2958C11.388 80.5251 8.42343 81.779 5.33125 81.7824ZM5.33125 58.8537C3.19014 58.8537 1.09712 59.501 -0.683151 60.7139C-2.46342 61.9267 -3.85098 63.6505 -4.67035 65.6674C-5.48972 67.6842 -5.70412 69.9035 -5.2864 72.0445C-4.86869 74.1856 -3.83765 76.1523 -2.32365 77.6959C-0.80965 79.2396 1.11929 80.2908 3.21926 80.7167C5.31924 81.1426 7.49594 80.924 9.47408 80.0886C11.4522 79.2532 13.1429 77.8385 14.3325 76.0233C15.522 74.2082 16.1569 72.0742 16.1569 69.8912C16.1536 66.9649 15.012 64.1595 12.9825 62.0903C10.953 60.0211 8.20138 58.8571 5.33125 58.8537Z" fill="black"/>
<path d="M46.1934 70.1089C46.1934 72.3764 45.5339 74.5929 44.2984 76.4782C43.0628 78.3635 41.3067 79.8329 39.2521 80.7006C37.1974 81.5683 34.9366 81.7954 32.7554 81.353C30.5742 80.9106 28.5707 79.8188 26.9982 78.2155C25.4256 76.6121 24.3547 74.5694 23.9208 72.3455C23.487 70.1217 23.7096 67.8166 24.5607 65.7217C25.4118 63.6269 26.853 61.8364 28.7021 60.5767C30.5512 59.317 32.7252 58.6446 34.9491 58.6446C37.9309 58.6457 40.7903 59.8539 42.8988 62.0037C45.0073 64.1534 46.1923 67.0688 46.1934 70.1089Z" fill="black"/>
<path d="M70.2853 69.8912C70.2853 72.1586 69.6258 74.3751 68.3903 76.2604C67.1548 78.1457 65.3986 79.6151 63.344 80.4828C61.2894 81.3505 59.0285 81.5776 56.8473 81.1352C54.6662 80.6929 52.6626 79.601 51.0901 77.9977C49.5175 76.3944 48.4466 74.3516 48.0128 72.1277C47.5789 69.9039 47.8016 67.5988 48.6526 65.5039C49.5037 63.4091 50.9449 61.6186 52.794 60.3589C54.6431 59.0992 56.8171 58.4268 59.041 58.4268C62.0232 58.4268 64.8832 59.6347 66.9919 61.7846C69.1006 63.9346 70.2853 66.8506 70.2853 69.8912Z" fill="black"/>
<path d="M89.6719 82.0002C87.3652 82.0002 85.1103 81.3028 83.1923 79.9961C81.2743 78.6895 79.7795 76.8324 78.8967 74.6596C78.014 72.4867 77.783 70.0958 78.233 67.7892C78.6831 65.4825 79.7939 63.3637 81.4249 61.7007C83.056 60.0377 85.1342 58.9052 87.3966 58.4463C89.6589 57.9875 92.004 58.223 94.1351 59.123C96.2662 60.023 98.0877 61.5471 99.3692 63.5026C100.651 65.4581 101.335 67.7572 101.335 70.109C101.331 73.2617 100.102 76.2843 97.9151 78.5136C95.7286 80.7429 92.7641 81.9968 89.6719 82.0002ZM89.6719 59.0715C87.5308 59.0715 85.4377 59.7188 83.6575 60.9316C81.8772 62.1445 80.4896 63.8683 79.6703 65.8851C78.8509 67.902 78.6365 70.1212 79.0542 72.2623C79.4719 74.4034 80.503 76.3701 82.017 77.9137C83.531 79.4573 85.4599 80.5086 87.5599 80.9344C89.6599 81.3603 91.8366 81.1418 93.8147 80.3063C95.7928 79.4709 97.4835 78.0562 98.6731 76.2411C99.8626 74.426 100.498 72.292 100.498 70.109C100.494 67.1827 99.3526 64.3772 97.3231 62.308C95.2936 60.2388 92.542 59.0749 89.6719 59.0715Z" fill="black"/>
<path d="M113.764 81.7824C111.457 81.7824 109.202 81.085 107.284 79.7784C105.366 78.4718 103.871 76.6146 102.989 74.4418C102.106 72.269 101.875 69.878 102.325 67.5714C102.775 65.2647 103.886 63.1459 105.517 61.4829C107.148 59.8199 109.226 58.6874 111.488 58.2286C113.751 57.7697 116.096 58.0052 118.227 58.9052C120.358 59.8052 122.18 61.3294 123.461 63.2849C124.743 65.2403 125.427 67.5394 125.427 69.8912C125.423 73.0439 124.194 76.0665 122.007 78.2958C119.821 80.5251 116.856 81.779 113.764 81.7824ZM113.764 58.8537C111.623 58.8537 109.53 59.501 107.749 60.7139C105.969 61.9267 104.582 63.6505 103.762 65.6674C102.943 67.6842 102.728 69.9035 103.146 72.0445C103.564 74.1856 104.595 76.1523 106.109 77.6959C107.623 79.2396 109.552 80.2908 111.652 80.7167C113.752 81.1426 115.928 80.924 117.907 80.0886C119.885 79.2532 121.576 77.8385 122.765 76.0233C123.955 74.2082 124.589 72.0742 124.589 69.8912C124.586 66.9649 123.445 64.1595 121.415 62.0903C119.386 60.0211 116.634 58.8571 113.764 58.8537Z" fill="black"/>
<path d="M156.07 70.1089C156.07 72.3764 155.411 74.5929 154.175 76.4782C152.94 78.3635 151.184 79.8329 149.129 80.7006C147.074 81.5683 144.813 81.7954 142.632 81.353C140.451 80.9106 138.448 79.8188 136.875 78.2155C135.302 76.6121 134.232 74.5694 133.798 72.3455C133.364 70.1217 133.586 67.8166 134.438 65.7217C135.289 63.6269 136.73 61.8364 138.579 60.5767C140.428 59.317 142.602 58.6446 144.826 58.6446C147.808 58.6446 150.668 59.8524 152.777 62.0024C154.886 64.1524 156.07 67.0684 156.07 70.1089Z" fill="black"/>
<path d="M180.154 69.8912C180.154 72.1586 179.494 74.3751 178.259 76.2604C177.023 78.1457 175.267 79.6151 173.212 80.4828C171.158 81.3505 168.897 81.5776 166.716 81.1352C164.535 80.6929 162.531 79.601 160.959 77.9977C159.386 76.3944 158.315 74.3516 157.881 72.1277C157.447 69.9039 157.67 67.5988 158.521 65.5039C159.372 63.4091 160.813 61.6186 162.662 60.3589C164.512 59.0992 166.686 58.4268 168.909 58.4268C171.891 58.428 174.751 59.6362 176.859 61.7859C178.968 63.9356 180.153 66.851 180.154 69.8912Z" fill="black"/>
<path d="M199.54 82.0002C197.234 82.0002 194.979 81.3028 193.061 79.9961C191.143 78.6895 189.648 76.8324 188.765 74.6596C187.882 72.4867 187.652 70.0958 188.102 67.7892C188.552 65.4825 189.662 63.3637 191.293 61.7007C192.924 60.0377 195.003 58.9052 197.265 58.4463C199.527 57.9875 201.872 58.223 204.004 59.123C206.135 60.023 207.956 61.5471 209.238 63.5026C210.519 65.4581 211.203 67.7572 211.203 70.109C211.2 73.2617 209.97 76.2843 207.784 78.5136C205.597 80.7429 202.632 81.9968 199.54 82.0002ZM199.54 59.0715C197.399 59.0715 195.306 59.7188 193.526 60.9316C191.746 62.1445 190.358 63.8683 189.539 65.8851C188.719 67.902 188.505 70.1212 188.923 72.2623C189.34 74.4034 190.371 76.3701 191.885 77.9137C193.399 79.4573 195.328 80.5086 197.428 80.9344C199.528 81.3603 201.705 81.1418 203.683 80.3063C205.661 79.4709 207.352 78.0562 208.542 76.2411C209.731 74.426 210.366 72.292 210.366 70.109C210.363 67.1827 209.221 64.3772 207.192 62.308C205.162 60.2388 202.41 59.0749 199.54 59.0715Z" fill="black"/>
<path d="M223.632 81.7824C221.326 81.7824 219.071 81.085 217.153 79.7784C215.235 78.4718 213.74 76.6146 212.857 74.4418C211.974 72.269 211.743 69.878 212.193 67.5714C212.643 65.2647 213.754 63.1459 215.385 61.4829C217.016 59.8199 219.095 58.6874 221.357 58.2286C223.619 57.7697 225.964 58.0052 228.095 58.9052C230.227 59.8052 232.048 61.3294 233.33 63.2849C234.611 65.2403 235.295 67.5394 235.295 69.8912C235.292 73.0439 234.062 76.0665 231.876 78.2958C229.689 80.5251 226.724 81.779 223.632 81.7824ZM223.632 58.8537C221.491 58.8537 219.398 59.501 217.618 60.7139C215.838 61.9267 214.45 63.6505 213.631 65.6674C212.811 67.6842 212.597 69.9035 213.015 72.0445C213.432 74.1856 214.463 76.1523 215.977 77.6959C217.491 79.2396 219.42 80.2908 221.52 80.7167C223.62 81.1426 225.797 80.924 227.775 80.0886C229.753 79.2532 231.444 77.8385 232.634 76.0233C233.823 74.2082 234.458 72.0742 234.458 69.8912C234.455 66.9649 233.313 64.1595 231.284 62.0903C229.254 60.0211 226.502 58.8571 223.632 58.8537Z" fill="black"/>
<path d="M267.647 70.1089C267.647 72.3764 266.987 74.5929 265.752 76.4782C264.516 78.3635 262.76 79.8329 260.705 80.7006C258.651 81.5683 256.39 81.7954 254.209 81.353C252.028 80.9106 250.024 79.8188 248.451 78.2155C246.879 76.6121 245.808 74.5694 245.374 72.3455C244.94 70.1217 245.163 67.8166 246.014 65.7217C246.865 63.6269 248.306 61.8364 250.155 60.5767C252.004 59.317 254.178 58.6446 256.402 58.6446C259.384 58.6457 262.244 59.8539 264.352 62.0037C266.46 64.1534 267.646 67.0688 267.647 70.1089Z" fill="black"/>
<path d="M291.739 69.8912C291.739 72.1586 291.079 74.3751 289.844 76.2604C288.608 78.1457 286.852 79.6151 284.797 80.4828C282.743 81.3505 280.482 81.5776 278.301 81.1352C276.119 80.6929 274.116 79.601 272.543 77.9977C270.971 76.3944 269.9 74.3516 269.466 72.1277C269.032 69.9039 269.255 67.5988 270.106 65.5039C270.957 63.4091 272.398 61.6186 274.247 60.3589C276.096 59.0992 278.27 58.4268 280.494 58.4268C283.476 58.4268 286.336 59.6347 288.445 61.7846C290.554 63.9346 291.739 66.8506 291.739 69.8912Z" fill="black"/>
<path d="M311.125 82.0002C308.818 82.0002 306.564 81.3028 304.646 79.9961C302.728 78.6895 301.233 76.8324 300.35 74.6596C299.467 72.4867 299.236 70.0958 299.686 67.7892C300.136 65.4825 301.247 63.3637 302.878 61.7007C304.509 60.0377 306.587 58.9052 308.85 58.4463C311.112 57.9875 313.457 58.223 315.588 59.123C317.719 60.023 319.541 61.5471 320.822 63.5026C322.104 65.4581 322.788 67.7572 322.788 70.109C322.785 73.2617 321.555 76.2843 319.368 78.5136C317.182 80.7429 314.217 81.9968 311.125 82.0002ZM311.125 59.0715C308.984 59.0715 306.891 59.7188 305.111 60.9316C303.33 62.1445 301.943 63.8683 301.124 65.8851C300.304 67.902 300.09 70.1212 300.507 72.2623C300.925 74.4034 301.956 76.3701 303.47 77.9137C304.984 79.4573 306.913 80.5086 309.013 80.9344C311.113 81.3603 313.29 81.1418 315.268 80.3063C317.246 79.4709 318.937 78.0562 320.126 76.2411C321.316 74.426 321.951 72.292 321.951 70.109C321.948 67.1827 320.806 64.3772 318.776 62.308C316.747 60.2388 313.995 59.0749 311.125 59.0715Z" fill="black"/>
<path d="M335.217 81.7824C332.91 81.7824 330.655 81.085 328.737 79.7784C326.82 78.4718 325.325 76.6146 324.442 74.4418C323.559 72.269 323.328 69.878 323.778 67.5714C324.228 65.2647 325.339 63.1459 326.97 61.4829C328.601 59.8199 330.679 58.6874 332.942 58.2286C335.204 57.7697 337.549 58.0052 339.68 58.9052C341.811 59.8052 343.633 61.3294 344.914 63.2849C346.196 65.2403 346.88 67.5394 346.88 69.8912C346.877 73.0439 345.647 76.0665 343.46 78.2958C341.274 80.5251 338.309 81.779 335.217 81.7824ZM335.217 58.8537C333.076 58.8537 330.983 59.501 329.203 60.7139C327.422 61.9267 326.035 63.6505 325.215 65.6674C324.396 67.6842 324.182 69.9035 324.599 72.0445C325.017 74.1856 326.048 76.1523 327.562 77.6959C329.076 79.2396 331.005 80.2908 333.105 80.7167C335.205 81.1426 337.382 80.924 339.36 80.0886C341.338 79.2532 343.029 77.8385 344.218 76.0233C345.408 74.2082 346.043 72.0742 346.043 69.8912C346.039 66.9649 344.898 64.1595 342.868 62.0903C340.839 60.0211 338.087 58.8571 335.217 58.8537Z" fill="black"/>
<path d="M375.33 70.1089C375.33 72.3764 374.67 74.5929 373.435 76.4782C372.199 78.3635 370.443 79.8329 368.389 80.7006C366.334 81.5683 364.073 81.7954 361.892 81.353C359.711 80.9106 357.707 79.8188 356.135 78.2155C354.562 76.6121 353.491 74.5694 353.057 72.3455C352.623 70.1217 352.846 67.8166 353.697 65.7217C354.548 63.6269 355.989 61.8364 357.839 60.5767C359.688 59.317 361.862 58.6446 364.086 58.6446C367.067 58.6457 369.927 59.8539 372.035 62.0037C374.144 64.1534 375.329 67.0688 375.33 70.1089Z" fill="black"/>
<path d="M399.422 69.8912C399.422 72.1588 398.762 74.3755 397.526 76.2609C396.291 78.1462 394.534 79.6157 392.48 80.4832C390.425 81.3508 388.164 81.5776 385.982 81.1349C383.801 80.6922 381.797 79.5999 380.225 77.9962C378.653 76.3924 377.582 74.3493 377.149 72.1251C376.715 69.901 376.939 67.5958 377.79 65.501C378.642 63.4062 380.084 61.616 381.934 60.3568C383.783 59.0976 385.958 58.426 388.182 58.4268C391.163 58.428 394.022 59.6363 396.13 61.7862C398.238 63.936 399.422 66.8514 399.422 69.8912Z" fill="black"/>
<path d="M418.808 82.0002C416.502 82.0002 414.247 81.3028 412.329 79.9961C410.411 78.6895 408.916 76.8324 408.033 74.6596C407.151 72.4867 406.92 70.0958 407.37 67.7892C407.82 65.4825 408.93 63.3637 410.561 61.7007C412.193 60.0377 414.271 58.9052 416.533 58.4463C418.795 57.9875 421.14 58.223 423.272 59.123C425.403 60.023 427.224 61.5471 428.506 63.5026C429.787 65.4581 430.471 67.7572 430.471 70.109C430.468 73.2617 429.238 76.2843 427.052 78.5136C424.865 80.7429 421.901 81.9968 418.808 82.0002ZM418.808 59.0715C416.667 59.0715 414.574 59.7188 412.794 60.9316C411.014 62.1445 409.626 63.8683 408.807 65.8851C407.987 67.902 407.773 70.1212 408.191 72.2623C408.608 74.4034 409.639 76.3701 411.153 77.9137C412.667 79.4573 414.596 80.5086 416.696 80.9344C418.796 81.3603 420.973 81.1418 422.951 80.3063C424.929 79.4709 426.62 78.0562 427.81 76.2411C428.999 74.426 429.634 72.292 429.634 70.109C429.631 67.1827 428.489 64.3772 426.46 62.308C424.43 60.2388 421.679 59.0749 418.808 59.0715Z" fill="black"/>
<path d="M442.905 81.7824C440.597 81.7858 438.341 81.0912 436.42 79.7867C434.5 78.4821 433.003 76.6261 432.117 74.4536C431.232 72.2811 430.999 69.8896 431.447 67.5818C431.895 65.2741 433.005 63.1537 434.635 61.489C436.265 59.8242 438.343 58.69 440.606 58.2298C442.869 57.7696 445.215 58.0041 447.347 58.9036C449.479 59.8031 451.302 61.3272 452.584 63.2831C453.866 65.2389 454.551 67.5386 454.551 69.8912C454.547 73.041 453.32 76.061 451.137 78.2898C448.954 80.5186 445.994 81.7745 442.905 81.7824ZM442.905 58.8537C440.763 58.8503 438.668 59.4948 436.886 60.7055C435.103 61.9163 433.713 63.639 432.891 65.6555C432.069 67.672 431.852 69.8919 432.268 72.034C432.684 74.1762 433.714 76.1445 435.227 77.6899C436.74 79.2352 438.669 80.2881 440.77 80.7154C442.87 81.1427 445.048 80.9251 447.027 80.0902C449.006 79.2553 450.698 77.8406 451.888 76.0251C453.078 74.2096 453.713 72.075 453.713 69.8912C453.71 66.9679 452.571 64.165 450.545 62.0963C448.519 60.0276 445.772 58.8616 442.905 58.8537Z" fill="black"/>
<path d="M483.762 70.1089C483.762 72.3764 483.103 74.5929 481.867 76.4782C480.632 78.3635 478.876 79.8329 476.821 80.7006C474.766 81.5683 472.506 81.7954 470.324 81.353C468.143 80.9106 466.14 79.8188 464.567 78.2155C462.995 76.6121 461.924 74.5694 461.49 72.3455C461.056 70.1217 461.279 67.8166 462.13 65.7217C462.981 63.6269 464.422 61.8364 466.271 60.5767C468.12 59.317 470.294 58.6446 472.518 58.6446C475.5 58.6446 478.36 59.8524 480.469 62.0024C482.578 64.1524 483.762 67.0684 483.762 70.1089Z" fill="black"/>
<path d="M507.854 69.8912C507.854 72.1588 507.195 74.3755 505.959 76.2609C504.723 78.1462 502.967 79.6157 500.912 80.4832C498.857 81.3508 496.596 81.5776 494.415 81.1349C492.234 80.6922 490.23 79.5999 488.658 77.9962C487.085 76.3924 486.015 74.3493 485.581 72.1251C485.148 69.901 485.371 67.5958 486.223 65.501C487.075 63.4062 488.516 61.616 490.366 60.3568C492.216 59.0976 494.39 58.426 496.614 58.4268C499.596 58.428 502.455 59.6363 504.562 61.7862C506.67 63.936 507.854 66.8514 507.854 69.8912Z" fill="black"/>
<path d="M527.245 82.0002C524.938 82.001 522.683 81.3043 520.764 79.9982C518.846 78.6921 517.35 76.8353 516.467 74.6625C515.584 72.4898 515.352 70.0987 515.802 67.7918C516.251 65.4848 517.362 63.3656 518.993 61.7022C520.623 60.0388 522.702 58.9058 524.964 58.4466C527.227 57.9875 529.572 58.2227 531.703 59.1226C533.835 60.0225 535.656 61.5466 536.938 63.5022C538.22 65.4578 538.904 67.757 538.904 70.109C538.901 73.261 537.671 76.2829 535.486 78.5121C533.3 80.7412 530.337 81.9956 527.245 82.0002ZM527.245 59.0715C525.104 59.0706 523.01 59.7173 521.23 60.9296C519.449 62.1419 518.061 63.8654 517.241 65.8822C516.421 67.8989 516.206 70.1183 516.623 72.2597C517.04 74.401 518.071 76.3681 519.585 77.9122C521.098 79.4563 523.027 80.5079 525.127 80.9341C527.228 81.3604 529.404 81.142 531.383 80.3068C533.361 79.4715 535.052 78.0568 536.242 76.2416C537.432 74.4264 538.067 72.2922 538.067 70.109C538.063 67.1834 536.922 64.3786 534.894 62.3095C532.865 60.2405 530.115 59.076 527.245 59.0715Z" fill="black"/>
<path d="M551.337 81.7824C549.03 81.7824 546.775 81.085 544.857 79.7784C542.94 78.4718 541.445 76.6146 540.562 74.4418C539.679 72.269 539.448 69.878 539.898 67.5714C540.348 65.2647 541.459 63.1459 543.09 61.4829C544.721 59.8199 546.799 58.6874 549.062 58.2286C551.324 57.7697 553.669 58.0052 555.8 58.9052C557.931 59.8052 559.753 61.3294 561.034 63.2849C562.316 65.2403 563 67.5394 563 69.8912C562.997 73.0439 561.767 76.0665 559.58 78.2958C557.394 80.5251 554.429 81.779 551.337 81.7824ZM551.337 58.8537C549.196 58.8537 547.103 59.501 545.323 60.7139C543.542 61.9267 542.155 63.6505 541.335 65.6674C540.516 67.6842 540.302 69.9035 540.719 72.0445C541.137 74.1856 542.168 76.1523 543.682 77.6959C545.196 79.2396 547.125 80.2908 549.225 80.7167C551.325 81.1426 553.502 80.924 555.48 80.0886C557.458 79.2532 559.149 77.8385 560.338 76.0233C561.528 74.2082 562.163 72.0742 562.163 69.8912C562.159 66.9649 561.018 64.1595 558.988 62.0903C556.959 60.0211 554.207 58.8571 551.337 58.8537Z" fill="black"/>
</g>
<g clip-path="url(#clip1_309_2339)">
<path d="M593.489 70.1089C593.489 72.3764 592.829 74.5929 591.594 76.4782C590.358 78.3635 588.602 79.8329 586.547 80.7006C584.493 81.5683 582.232 81.7954 580.051 81.353C577.869 80.9106 575.866 79.8188 574.293 78.2155C572.721 76.6121 571.65 74.5694 571.216 72.3455C570.782 70.1217 571.005 67.8166 571.856 65.7217C572.707 63.6269 574.148 61.8364 575.997 60.5767C577.846 59.317 580.02 58.6446 582.244 58.6446C585.226 58.6457 588.086 59.8539 590.194 62.0037C592.302 64.1534 593.487 67.0688 593.489 70.1089Z" fill="black"/>
<path d="M617.581 69.8912C617.581 72.1586 616.921 74.3751 615.686 76.2604C614.45 78.1457 612.694 79.6151 610.639 80.4828C608.585 81.3505 606.324 81.5776 604.143 81.1352C601.961 80.6929 599.958 79.601 598.385 77.9977C596.813 76.3944 595.742 74.3516 595.308 72.1277C594.874 69.9039 595.097 67.5988 595.948 65.5039C596.799 63.4091 598.24 61.6186 600.089 60.3589C601.938 59.0992 604.112 58.4268 606.336 58.4268C609.318 58.4268 612.178 59.6347 614.287 61.7846C616.396 63.9346 617.581 66.8506 617.581 69.8912Z" fill="black"/>
<path d="M636.967 82.0002C634.66 82.0002 632.406 81.3028 630.488 79.9961C628.57 78.6895 627.075 76.8324 626.192 74.6596C625.309 72.4867 625.078 70.0958 625.528 67.7892C625.978 65.4825 627.089 63.3637 628.72 61.7007C630.351 60.0377 632.429 58.9052 634.692 58.4463C636.954 57.9875 639.299 58.223 641.43 59.123C643.561 60.023 645.383 61.5471 646.665 63.5026C647.946 65.4581 648.63 67.7572 648.63 70.109C648.627 73.2617 647.397 76.2843 645.21 78.5136C643.024 80.7429 640.059 81.9968 636.967 82.0002ZM636.967 59.0715C634.826 59.0715 632.733 59.7188 630.953 60.9316C629.172 62.1445 627.785 63.8683 626.966 65.8851C626.146 67.902 625.932 70.1212 626.349 72.2623C626.767 74.4034 627.798 76.3701 629.312 77.9137C630.826 79.4573 632.755 80.5086 634.855 80.9344C636.955 81.3603 639.132 81.1418 641.11 80.3063C643.088 79.4709 644.779 78.0562 645.968 76.2411C647.158 74.426 647.793 72.292 647.793 70.109C647.789 67.1827 646.648 64.3772 644.618 62.308C642.589 60.2388 639.837 59.0749 636.967 59.0715Z" fill="black"/>
<path d="M661.063 81.7824C658.757 81.7824 656.502 81.085 654.584 79.7784C652.666 78.4718 651.171 76.6146 650.288 74.4418C649.405 72.269 649.174 69.878 649.624 67.5714C650.074 65.2647 651.185 63.1459 652.816 61.4829C654.447 59.8199 656.526 58.6874 658.788 58.2286C661.05 57.7697 663.395 58.0052 665.526 58.9052C667.658 59.8052 669.479 61.3294 670.761 63.2849C672.042 65.2403 672.726 67.5394 672.726 69.8912C672.723 73.0439 671.493 76.0665 669.306 78.2958C667.12 80.5251 664.155 81.779 661.063 81.7824ZM661.063 58.8537C658.922 58.8537 656.829 59.501 655.049 60.7139C653.269 61.9267 651.881 63.6505 651.062 65.6674C650.242 67.6842 650.028 69.9035 650.446 72.0445C650.863 74.1856 651.894 76.1523 653.408 77.6959C654.922 79.2396 656.851 80.2908 658.951 80.7167C661.051 81.1426 663.228 80.924 665.206 80.0886C667.184 79.2532 668.875 77.8385 670.064 76.0233C671.254 74.2082 671.889 72.0742 671.889 69.8912C671.886 66.9649 670.744 64.1595 668.714 62.0903C666.685 60.0211 663.933 58.8571 661.063 58.8537Z" fill="black"/>
<path d="M705.073 70.1089C705.073 72.3764 704.414 74.5929 703.178 76.4782C701.943 78.3635 700.187 79.8329 698.132 80.7006C696.077 81.5683 693.817 81.7954 691.635 81.353C689.454 80.9106 687.451 79.8188 685.878 78.2155C684.306 76.6121 683.235 74.5694 682.801 72.3455C682.367 70.1217 682.59 67.8166 683.441 65.7217C684.292 63.6269 685.733 61.8364 687.582 60.5767C689.431 59.317 691.605 58.6446 693.829 58.6446C696.811 58.6446 699.671 59.8524 701.78 62.0024C703.889 64.1524 705.073 67.0684 705.073 70.1089Z" fill="black"/>
<path d="M729.165 69.8912C729.165 72.1593 728.505 74.3765 727.269 76.2622C726.033 78.1479 724.276 79.6173 722.22 80.4845C720.165 81.3517 717.903 81.5777 715.721 81.134C713.54 80.6902 711.536 79.5967 709.964 77.9916C708.392 76.3866 707.323 74.3423 706.891 72.1173C706.459 69.8923 706.684 67.5867 707.537 65.4921C708.391 63.3976 709.835 61.6083 711.686 60.3506C713.538 59.093 715.713 58.4235 717.938 58.4268C720.917 58.4314 723.773 59.6412 725.878 61.7907C727.983 63.9402 729.165 66.8536 729.165 69.8912Z" fill="black"/>
<path d="M748.556 82.0002C746.249 82.0002 743.995 81.3028 742.077 79.9961C740.159 78.6895 738.664 76.8324 737.781 74.6596C736.898 72.4867 736.667 70.0958 737.117 67.7892C737.567 65.4825 738.678 63.3637 740.309 61.7007C741.94 60.0377 744.018 58.9052 746.281 58.4463C748.543 57.9875 750.888 58.223 753.019 59.123C755.15 60.023 756.972 61.5471 758.253 63.5026C759.535 65.4581 760.219 67.7572 760.219 70.109C760.216 73.2617 758.986 76.2843 756.799 78.5136C754.613 80.7429 751.648 81.9968 748.556 82.0002ZM748.556 59.0715C746.415 59.0715 744.322 59.7188 742.542 60.9316C740.761 62.1445 739.374 63.8683 738.555 65.8851C737.735 67.902 737.521 70.1212 737.938 72.2623C738.356 74.4034 739.387 76.3701 740.901 77.9137C742.415 79.4573 744.344 80.5086 746.444 80.9344C748.544 81.3603 750.721 81.1418 752.699 80.3063C754.677 79.4709 756.368 78.0562 757.557 76.2411C758.747 74.426 759.382 72.292 759.382 70.109C759.378 67.1827 758.237 64.3772 756.207 62.308C754.178 60.2388 751.426 59.0749 748.556 59.0715Z" fill="black"/>
<path d="M772.648 81.7824C770.341 81.7824 768.086 81.085 766.168 79.7784C764.251 78.4718 762.756 76.6146 761.873 74.4418C760.99 72.269 760.759 69.878 761.209 67.5714C761.659 65.2647 762.77 63.1459 764.401 61.4829C766.032 59.8199 768.11 58.6874 770.373 58.2286C772.635 57.7697 774.98 58.0052 777.111 58.9052C779.242 59.8052 781.064 61.3294 782.345 63.2849C783.627 65.2403 784.311 67.5394 784.311 69.8912C784.308 73.0439 783.078 76.0665 780.891 78.2958C778.705 80.5251 775.74 81.779 772.648 81.7824ZM772.648 58.8537C770.507 58.8537 768.414 59.501 766.634 60.7139C764.853 61.9267 763.466 63.6505 762.646 65.6674C761.827 67.6842 761.613 69.9035 762.03 72.0445C762.448 74.1856 763.479 76.1523 764.993 77.6959C766.507 79.2396 768.436 80.2908 770.536 80.7167C772.636 81.1426 774.813 80.924 776.791 80.0886C778.769 79.2532 780.46 77.8385 781.649 76.0233C782.839 74.2082 783.474 72.0742 783.474 69.8912C783.47 66.9649 782.329 64.1595 780.299 62.0903C778.27 60.0211 775.518 58.8571 772.648 58.8537Z" fill="black"/>
<path d="M812.757 70.1089C812.757 72.3766 812.097 74.5932 810.861 76.4786C809.626 78.364 807.869 79.8334 805.814 80.701C803.759 81.5686 801.498 81.7954 799.317 81.3527C797.136 80.91 795.132 79.8177 793.56 78.2139C791.988 76.6102 790.917 74.567 790.484 72.3429C790.05 70.1188 790.273 67.8135 791.125 65.7188C791.977 63.624 793.419 61.8338 795.268 60.5746C797.118 59.3154 799.292 58.6438 801.517 58.6446C804.498 58.6457 807.357 59.8541 809.465 62.0039C811.573 64.1538 812.757 67.0691 812.757 70.1089Z" fill="black"/>
<path d="M836.853 69.8912C836.853 72.1586 836.193 74.3751 834.958 76.2604C833.722 78.1457 831.966 79.6151 829.911 80.4828C827.857 81.3505 825.596 81.5776 823.415 81.1352C821.234 80.6929 819.23 79.601 817.658 77.9977C816.085 76.3944 815.014 74.3516 814.58 72.1277C814.146 69.9039 814.369 67.5988 815.22 65.5039C816.071 63.4091 817.512 61.6186 819.361 60.3589C821.211 59.0992 823.385 58.4268 825.608 58.4268C828.59 58.428 831.45 59.6362 833.558 61.7859C835.667 63.9356 836.852 66.851 836.853 69.8912Z" fill="black"/>
<path d="M856.239 82.0002C853.933 82.0002 851.678 81.3028 849.76 79.9961C847.842 78.6895 846.347 76.8324 845.464 74.6596C844.581 72.4867 844.351 70.0958 844.801 67.7892C845.251 65.4825 846.361 63.3637 847.992 61.7007C849.623 60.0377 851.702 58.9052 853.964 58.4463C856.226 57.9875 858.571 58.223 860.703 59.123C862.834 60.023 864.655 61.5471 865.937 63.5026C867.218 65.4581 867.902 67.7572 867.902 70.109C867.899 73.2617 866.669 76.2843 864.483 78.5136C862.296 80.7429 859.332 81.9968 856.239 82.0002ZM856.239 59.0715C854.098 59.0715 852.005 59.7188 850.225 60.9316C848.445 62.1445 847.057 63.8683 846.238 65.8851C845.418 67.902 845.204 70.1212 845.622 72.2623C846.039 74.4034 847.07 76.3701 848.584 77.9137C850.098 79.4573 852.027 80.5086 854.127 80.9344C856.227 81.3603 858.404 81.1418 860.382 80.3063C862.36 79.4709 864.051 78.0562 865.241 76.2411C866.43 74.426 867.065 72.292 867.065 70.109C867.062 67.1827 865.92 64.3772 863.891 62.308C861.861 60.2388 859.109 59.0749 856.239 59.0715Z" fill="black"/>
<path d="M880.331 81.7824C878.025 81.7824 875.77 81.085 873.852 79.7784C871.934 78.4718 870.439 76.6146 869.556 74.4418C868.673 72.269 868.442 69.878 868.892 67.5714C869.342 65.2647 870.453 63.1459 872.084 61.4829C873.715 59.8199 875.794 58.6874 878.056 58.2286C880.318 57.7697 882.663 58.0052 884.794 58.9052C886.926 59.8052 888.747 61.3294 890.029 63.2849C891.31 65.2403 891.994 67.5394 891.994 69.8912C891.991 73.0439 890.761 76.0665 888.575 78.2958C886.388 80.5251 883.423 81.779 880.331 81.7824ZM880.331 58.8537C878.19 58.8537 876.097 59.501 874.317 60.7139C872.537 61.9267 871.149 63.6505 870.33 65.6674C869.51 67.6842 869.296 69.9035 869.714 72.0445C870.131 74.1856 871.162 76.1523 872.676 77.6959C874.19 79.2396 876.119 80.2908 878.219 80.7167C880.319 81.1426 882.496 80.924 884.474 80.0886C886.452 79.2532 888.143 77.8385 889.332 76.0233C890.522 74.2082 891.157 72.0742 891.157 69.8912C891.154 66.9649 890.012 64.1595 887.983 62.0903C885.953 60.0211 883.201 58.8571 880.331 58.8537Z" fill="black"/>
<path d="M921.193 70.1089C921.193 72.3764 920.534 74.5929 919.298 76.4782C918.063 78.3635 916.307 79.8329 914.252 80.7006C912.197 81.5683 909.937 81.7954 907.755 81.353C905.574 80.9106 903.571 79.8188 901.998 78.2155C900.426 76.6121 899.355 74.5694 898.921 72.3455C898.487 70.1217 898.71 67.8166 899.561 65.7217C900.412 63.6269 901.853 61.8364 903.702 60.5767C905.551 59.317 907.725 58.6446 909.949 58.6446C912.931 58.6457 915.79 59.8539 917.899 62.0037C920.007 64.1534 921.192 67.0688 921.193 70.1089Z" fill="black"/>
<path d="M945.285 69.8912C945.285 72.1586 944.626 74.3751 943.39 76.2604C942.155 78.1457 940.399 79.6151 938.344 80.4828C936.289 81.3505 934.029 81.5776 931.847 81.1352C929.666 80.6929 927.663 79.601 926.09 77.9977C924.518 76.3944 923.447 74.3516 923.013 72.1277C922.579 69.9039 922.802 67.5988 923.653 65.5039C924.504 63.4091 925.945 61.6186 927.794 60.3589C929.643 59.0992 931.817 58.4268 934.041 58.4268C937.023 58.4268 939.883 59.6347 941.992 61.7846C944.101 63.9346 945.285 66.8506 945.285 69.8912Z" fill="black"/>
<path d="M964.672 82.0002C962.365 82.0002 960.11 81.3028 958.192 79.9961C956.274 78.6895 954.779 76.8324 953.897 74.6596C953.014 72.4867 952.783 70.0958 953.233 67.7892C953.683 65.4825 954.794 63.3637 956.425 61.7007C958.056 60.0377 960.134 58.9052 962.397 58.4463C964.659 57.9875 967.004 58.223 969.135 59.123C971.266 60.023 973.088 61.5471 974.369 63.5026C975.651 65.4581 976.335 67.7572 976.335 70.109C976.331 73.2617 975.102 76.2843 972.915 78.5136C970.729 80.7429 967.764 81.9968 964.672 82.0002ZM964.672 59.0715C962.531 59.0715 960.438 59.7188 958.657 60.9316C956.877 62.1445 955.49 63.8683 954.67 65.8851C953.851 67.902 953.636 70.1212 954.054 72.2623C954.472 74.4034 955.503 76.3701 957.017 77.9137C958.531 79.4573 960.46 80.5086 962.56 80.9344C964.66 81.3603 966.837 81.1418 968.815 80.3063C970.793 79.4709 972.484 78.0562 973.673 76.2411C974.863 74.426 975.498 72.292 975.498 70.109C975.494 67.1827 974.353 64.3772 972.323 62.308C970.294 60.2388 967.542 59.0749 964.672 59.0715Z" fill="black"/>
<path d="M988.764 81.7824C986.457 81.7824 984.202 81.085 982.284 79.7784C980.366 78.4718 978.871 76.6146 977.989 74.4418C977.106 72.269 976.875 69.878 977.325 67.5714C977.775 65.2647 978.886 63.1459 980.517 61.4829C982.148 59.8199 984.226 58.6874 986.488 58.2286C988.751 57.7697 991.096 58.0052 993.227 58.9052C995.358 59.8052 997.18 61.3294 998.461 63.2849C999.743 65.2403 1000.43 67.5394 1000.43 69.8912C1000.42 73.0439 999.194 76.0665 997.007 78.2958C994.821 80.5251 991.856 81.779 988.764 81.7824ZM988.764 58.8537C986.623 58.8537 984.53 59.501 982.749 60.7139C980.969 61.9267 979.582 63.6505 978.762 65.6674C977.943 67.6842 977.728 69.9035 978.146 72.0445C978.564 74.1856 979.595 76.1523 981.109 77.6959C982.623 79.2396 984.552 80.2908 986.652 80.7167C988.752 81.1426 990.928 80.924 992.907 80.0886C994.885 79.2532 996.576 77.8385 997.765 76.0233C998.955 74.2082 999.589 72.0742 999.589 69.8912C999.586 66.9649 998.445 64.1595 996.415 62.0903C994.386 60.0211 991.634 58.8571 988.764 58.8537Z" fill="black"/>
<path d="M1031.07 70.1089C1031.07 72.3764 1030.41 74.5929 1029.18 76.4782C1027.94 78.3635 1026.18 79.8329 1024.13 80.7006C1022.07 81.5683 1019.81 81.7954 1017.63 81.353C1015.45 80.9106 1013.45 79.8188 1011.87 78.2155C1010.3 76.6121 1009.23 74.5694 1008.8 72.3455C1008.36 70.1217 1008.59 67.8166 1009.44 65.7217C1010.29 63.6269 1011.73 61.8364 1013.58 60.5767C1015.43 59.317 1017.6 58.6446 1019.83 58.6446C1022.81 58.6446 1025.67 59.8524 1027.78 62.0024C1029.89 64.1524 1031.07 67.0684 1031.07 70.1089Z" fill="black"/>
<path d="M1055.15 69.8912C1055.15 72.1586 1054.49 74.3751 1053.26 76.2604C1052.02 78.1457 1050.27 79.6151 1048.21 80.4828C1046.16 81.3505 1043.9 81.5776 1041.72 81.1352C1039.53 80.6929 1037.53 79.601 1035.96 77.9977C1034.39 76.3944 1033.32 74.3516 1032.88 72.1277C1032.45 69.9039 1032.67 67.5988 1033.52 65.5039C1034.37 63.4091 1035.81 61.6186 1037.66 60.3589C1039.51 59.0992 1041.69 58.4268 1043.91 58.4268C1046.89 58.428 1049.75 59.6362 1051.86 61.7859C1053.97 63.9356 1055.15 66.851 1055.15 69.8912Z" fill="black"/>
<path d="M1074.54 82.0002C1072.23 82.0002 1069.98 81.3028 1068.06 79.9961C1066.14 78.6895 1064.65 76.8324 1063.77 74.6596C1062.88 72.4867 1062.65 70.0958 1063.1 67.7892C1063.55 65.4825 1064.66 63.3637 1066.29 61.7007C1067.92 60.0377 1070 58.9052 1072.27 58.4463C1074.53 57.9875 1076.87 58.223 1079 59.123C1081.13 60.023 1082.96 61.5471 1084.24 63.5026C1085.52 65.4581 1086.2 67.7572 1086.2 70.109C1086.2 73.2617 1084.97 76.2843 1082.78 78.5136C1080.6 80.7429 1077.63 81.9968 1074.54 82.0002ZM1074.54 59.0715C1072.4 59.0715 1070.31 59.7188 1068.53 60.9316C1066.75 62.1445 1065.36 63.8683 1064.54 65.8851C1063.72 67.902 1063.5 70.1212 1063.92 72.2623C1064.34 74.4034 1065.37 76.3701 1066.89 77.9137C1068.4 79.4573 1070.33 80.5086 1072.43 80.9344C1074.53 81.3603 1076.71 81.1418 1078.68 80.3063C1080.66 79.4709 1082.35 78.0562 1083.54 76.2411C1084.73 74.426 1085.37 72.292 1085.37 70.109C1085.36 67.1827 1084.22 64.3772 1082.19 62.308C1080.16 60.2388 1077.41 59.0749 1074.54 59.0715Z" fill="black"/>
<path d="M1098.63 81.7824C1096.33 81.7824 1094.07 81.085 1092.15 79.7784C1090.23 78.4718 1088.74 76.6146 1087.86 74.4418C1086.97 72.269 1086.74 69.878 1087.19 67.5714C1087.64 65.2647 1088.75 63.1459 1090.39 61.4829C1092.02 59.8199 1094.09 58.6874 1096.36 58.2286C1098.62 57.7697 1100.96 58.0052 1103.1 58.9052C1105.23 59.8052 1107.05 61.3294 1108.33 63.2849C1109.61 65.2403 1110.3 67.5394 1110.3 69.8912C1110.29 73.0439 1109.06 76.0665 1106.88 78.2958C1104.69 80.5251 1101.72 81.779 1098.63 81.7824ZM1098.63 58.8537C1096.49 58.8537 1094.4 59.501 1092.62 60.7139C1090.84 61.9267 1089.45 63.6505 1088.63 65.6674C1087.81 67.6842 1087.6 69.9035 1088.01 72.0445C1088.43 74.1856 1089.46 76.1523 1090.98 77.6959C1092.49 79.2396 1094.42 80.2908 1096.52 80.7167C1098.62 81.1426 1100.8 80.924 1102.78 80.0886C1104.75 79.2532 1106.44 77.8385 1107.63 76.0233C1108.82 74.2082 1109.46 72.0742 1109.46 69.8912C1109.45 66.9649 1108.31 64.1595 1106.28 62.0903C1104.25 60.0211 1101.5 58.8571 1098.63 58.8537Z" fill="black"/>
<path d="M1142.65 70.1089C1142.65 72.3764 1141.99 74.5929 1140.75 76.4782C1139.52 78.3635 1137.76 79.8329 1135.71 80.7006C1133.65 81.5683 1131.39 81.7954 1129.21 81.353C1127.03 80.9106 1125.02 79.8188 1123.45 78.2155C1121.88 76.6121 1120.81 74.5694 1120.37 72.3455C1119.94 70.1217 1120.16 67.8166 1121.01 65.7217C1121.87 63.6269 1123.31 61.8364 1125.16 60.5767C1127 59.317 1129.18 58.6446 1131.4 58.6446C1134.38 58.6457 1137.24 59.8539 1139.35 62.0037C1141.46 64.1534 1142.65 67.0688 1142.65 70.1089Z" fill="black"/>
<path d="M1166.74 69.8912C1166.74 72.1586 1166.08 74.3751 1164.84 76.2604C1163.61 78.1457 1161.85 79.6151 1159.8 80.4828C1157.74 81.3505 1155.48 81.5776 1153.3 81.1352C1151.12 80.6929 1149.12 79.601 1147.54 77.9977C1145.97 76.3944 1144.9 74.3516 1144.47 72.1277C1144.03 69.9039 1144.25 67.5988 1145.11 65.5039C1145.96 63.4091 1147.4 61.6186 1149.25 60.3589C1151.1 59.0992 1153.27 58.4268 1155.49 58.4268C1158.48 58.4268 1161.34 59.6347 1163.45 61.7846C1165.55 63.9346 1166.74 66.8506 1166.74 69.8912Z" fill="black"/>
<path d="M1186.13 82.0002C1183.82 82.0002 1181.56 81.3028 1179.65 79.9961C1177.73 78.6895 1176.23 76.8324 1175.35 74.6596C1174.47 72.4867 1174.24 70.0958 1174.69 67.7892C1175.14 65.4825 1176.25 63.3637 1177.88 61.7007C1179.51 60.0377 1181.59 58.9052 1183.85 58.4463C1186.11 57.9875 1188.46 58.223 1190.59 59.123C1192.72 60.023 1194.54 61.5471 1195.82 63.5026C1197.1 65.4581 1197.79 67.7572 1197.79 70.109C1197.78 73.2617 1196.55 76.2843 1194.37 78.5136C1192.18 80.7429 1189.22 81.9968 1186.13 82.0002ZM1186.13 59.0715C1183.98 59.0715 1181.89 59.7188 1180.11 60.9316C1178.33 62.1445 1176.94 63.8683 1176.12 65.8851C1175.3 67.902 1175.09 70.1212 1175.51 72.2623C1175.93 74.4034 1176.96 76.3701 1178.47 77.9137C1179.98 79.4573 1181.91 80.5086 1184.01 80.9344C1186.11 81.3603 1188.29 81.1418 1190.27 80.3063C1192.25 79.4709 1193.94 78.0562 1195.13 76.2411C1196.32 74.426 1196.95 72.292 1196.95 70.109C1196.95 67.1827 1195.81 64.3772 1193.78 62.308C1191.75 60.2388 1189 59.0749 1186.13 59.0715Z" fill="black"/>
<path d="M1210.22 81.7824C1207.91 81.7824 1205.66 81.085 1203.74 79.7784C1201.82 78.4718 1200.32 76.6146 1199.44 74.4418C1198.56 72.269 1198.33 69.878 1198.78 67.5714C1199.23 65.2647 1200.34 63.1459 1201.97 61.4829C1203.6 59.8199 1205.68 58.6874 1207.94 58.2286C1210.2 57.7697 1212.55 58.0052 1214.68 58.9052C1216.81 59.8052 1218.63 61.3294 1219.91 63.2849C1221.2 65.2403 1221.88 67.5394 1221.88 69.8912C1221.88 73.0439 1220.65 76.0665 1218.46 78.2958C1216.27 80.5251 1213.31 81.779 1210.22 81.7824ZM1210.22 58.8537C1208.08 58.8537 1205.98 59.501 1204.2 60.7139C1202.42 61.9267 1201.03 63.6505 1200.22 65.6674C1199.4 67.6842 1199.18 69.9035 1199.6 72.0445C1200.02 74.1856 1201.05 76.1523 1202.56 77.6959C1204.08 79.2396 1206.01 80.2908 1208.11 80.7167C1210.21 81.1426 1212.38 80.924 1214.36 80.0886C1216.34 79.2532 1218.03 77.8385 1219.22 76.0233C1220.41 74.2082 1221.04 72.0742 1221.04 69.8912C1221.04 66.9649 1219.9 64.1595 1217.87 62.0903C1215.84 60.0211 1213.09 58.8571 1210.22 58.8537Z" fill="black"/>
<path d="M1250.33 70.1089C1250.33 72.3764 1249.67 74.5929 1248.43 76.4782C1247.2 78.3635 1245.44 79.8329 1243.39 80.7006C1241.33 81.5683 1239.07 81.7954 1236.89 81.353C1234.71 80.9106 1232.71 79.8188 1231.13 78.2155C1229.56 76.6121 1228.49 74.5694 1228.06 72.3455C1227.62 70.1217 1227.85 67.8166 1228.7 65.7217C1229.55 63.6269 1230.99 61.8364 1232.84 60.5767C1234.69 59.317 1236.86 58.6446 1239.09 58.6446C1242.07 58.6457 1244.93 59.8539 1247.04 62.0037C1249.14 64.1534 1250.33 67.0688 1250.33 70.1089Z" fill="black"/>
<path d="M1274.42 69.8912C1274.42 72.1588 1273.76 74.3755 1272.53 76.2609C1271.29 78.1462 1269.53 79.6157 1267.48 80.4832C1265.42 81.3508 1263.16 81.5776 1260.98 81.1349C1258.8 80.6922 1256.8 79.5999 1255.23 77.9962C1253.65 76.3924 1252.58 74.3493 1252.15 72.1251C1251.72 69.901 1251.94 67.5958 1252.79 65.501C1253.64 63.4062 1255.08 61.616 1256.93 60.3568C1258.78 59.0976 1260.96 58.426 1263.18 58.4268C1266.16 58.428 1269.02 59.6363 1271.13 61.7862C1273.24 63.936 1274.42 66.8514 1274.42 69.8912Z" fill="black"/>
<path d="M1293.81 82.0002C1291.5 82.0002 1289.25 81.3028 1287.33 79.9961C1285.41 78.6895 1283.92 76.8324 1283.03 74.6596C1282.15 72.4867 1281.92 70.0958 1282.37 67.7892C1282.82 65.4825 1283.93 63.3637 1285.56 61.7007C1287.19 60.0377 1289.27 58.9052 1291.53 58.4463C1293.8 57.9875 1296.14 58.223 1298.27 59.123C1300.4 60.023 1302.22 61.5471 1303.51 63.5026C1304.79 65.4581 1305.47 67.7572 1305.47 70.109C1305.47 73.2617 1304.24 76.2843 1302.05 78.5136C1299.87 80.7429 1296.9 81.9968 1293.81 82.0002ZM1293.81 59.0715C1291.67 59.0715 1289.57 59.7188 1287.79 60.9316C1286.01 62.1445 1284.63 63.8683 1283.81 65.8851C1282.99 67.902 1282.77 70.1212 1283.19 72.2623C1283.61 74.4034 1284.64 76.3701 1286.15 77.9137C1287.67 79.4573 1289.6 80.5086 1291.7 80.9344C1293.8 81.3603 1295.97 81.1418 1297.95 80.3063C1299.93 79.4709 1301.62 78.0562 1302.81 76.2411C1304 74.426 1304.63 72.292 1304.63 70.109C1304.63 67.1827 1303.49 64.3772 1301.46 62.308C1299.43 60.2388 1296.68 59.0749 1293.81 59.0715Z" fill="black"/>
<path d="M1317.9 81.7824C1315.6 81.7858 1313.34 81.0912 1311.42 79.7867C1309.5 78.4821 1308 76.6261 1307.12 74.4536C1306.23 72.2811 1306 69.8896 1306.45 67.5818C1306.9 65.2741 1308 63.1537 1309.63 61.489C1311.27 59.8242 1313.34 58.69 1315.61 58.2298C1317.87 57.7696 1320.22 58.0041 1322.35 58.9036C1324.48 59.8031 1326.3 61.3272 1327.58 63.2831C1328.87 65.2389 1329.55 67.5386 1329.55 69.8912C1329.55 73.041 1328.32 76.061 1326.14 78.2898C1323.95 80.5186 1320.99 81.7745 1317.9 81.7824ZM1317.9 58.8537C1315.76 58.8503 1313.67 59.4948 1311.89 60.7055C1310.1 61.9163 1308.71 63.639 1307.89 65.6555C1307.07 67.672 1306.85 69.8919 1307.27 72.034C1307.68 74.1762 1308.71 76.1445 1310.23 77.6899C1311.74 79.2352 1313.67 80.2881 1315.77 80.7154C1317.87 81.1427 1320.05 80.9251 1322.03 80.0902C1324.01 79.2553 1325.7 77.8406 1326.89 76.0251C1328.08 74.2096 1328.71 72.075 1328.71 69.8912C1328.71 66.9679 1327.57 64.165 1325.54 62.0963C1323.52 60.0276 1320.77 58.8616 1317.9 58.8537Z" fill="black"/>
<path d="M1358.76 70.1089C1358.76 72.3764 1358.1 74.5929 1356.87 76.4782C1355.63 78.3635 1353.88 79.8329 1351.82 80.7006C1349.77 81.5683 1347.51 81.7954 1345.32 81.353C1343.14 80.9106 1341.14 79.8188 1339.57 78.2155C1337.99 76.6121 1336.92 74.5694 1336.49 72.3455C1336.06 70.1217 1336.28 67.8166 1337.13 65.7217C1337.98 63.6269 1339.42 61.8364 1341.27 60.5767C1343.12 59.317 1345.29 58.6446 1347.52 58.6446C1350.5 58.6446 1353.36 59.8524 1355.47 62.0024C1357.58 64.1524 1358.76 67.0684 1358.76 70.1089Z" fill="black"/>
<path d="M1382.85 69.8912C1382.85 72.1588 1382.19 74.3755 1380.96 76.2609C1379.72 78.1462 1377.97 79.6157 1375.91 80.4832C1373.86 81.3508 1371.6 81.5776 1369.41 81.1349C1367.23 80.6922 1365.23 79.5999 1363.66 77.9962C1362.09 76.3924 1361.01 74.3493 1360.58 72.1251C1360.15 69.901 1360.37 67.5958 1361.22 65.501C1362.07 63.4062 1363.52 61.616 1365.37 60.3568C1367.22 59.0976 1369.39 58.426 1371.61 58.4268C1374.6 58.428 1377.45 59.6363 1379.56 61.7862C1381.67 63.936 1382.85 66.8514 1382.85 69.8912Z" fill="black"/>
<path d="M1402.25 82.0002C1399.94 82.001 1397.68 81.3043 1395.76 79.9982C1393.85 78.6921 1392.35 76.8353 1391.47 74.6625C1390.58 72.4898 1390.35 70.0987 1390.8 67.7918C1391.25 65.4848 1392.36 63.3656 1393.99 61.7022C1395.62 60.0388 1397.7 58.9058 1399.96 58.4466C1402.23 57.9875 1404.57 58.2227 1406.7 59.1226C1408.83 60.0225 1410.66 61.5466 1411.94 63.5022C1413.22 65.4578 1413.9 67.757 1413.9 70.109C1413.9 73.261 1412.67 76.2829 1410.49 78.5121C1408.3 80.7412 1405.34 81.9956 1402.25 82.0002ZM1402.25 59.0715C1400.1 59.0706 1398.01 59.7173 1396.23 60.9296C1394.45 62.1419 1393.06 63.8654 1392.24 65.8822C1391.42 67.8989 1391.21 70.1183 1391.62 72.2597C1392.04 74.401 1393.07 76.3681 1394.58 77.9122C1396.1 79.4563 1398.03 80.5079 1400.13 80.9341C1402.23 81.3604 1404.4 81.142 1406.38 80.3068C1408.36 79.4715 1410.05 78.0568 1411.24 76.2416C1412.43 74.4264 1413.07 72.2922 1413.07 70.109C1413.06 67.1834 1411.92 64.3786 1409.89 62.3095C1407.87 60.2405 1405.11 59.076 1402.25 59.0715Z" fill="black"/>
<path d="M1426.34 81.7824C1424.03 81.7824 1421.78 81.085 1419.86 79.7784C1417.94 78.4718 1416.44 76.6146 1415.56 74.4418C1414.68 72.269 1414.45 69.878 1414.9 67.5714C1415.35 65.2647 1416.46 63.1459 1418.09 61.4829C1419.72 59.8199 1421.8 58.6874 1424.06 58.2286C1426.32 57.7697 1428.67 58.0052 1430.8 58.9052C1432.93 59.8052 1434.75 61.3294 1436.03 63.2849C1437.32 65.2403 1438 67.5394 1438 69.8912C1438 73.0439 1436.77 76.0665 1434.58 78.2958C1432.39 80.5251 1429.43 81.779 1426.34 81.7824ZM1426.34 58.8537C1424.2 58.8537 1422.1 59.501 1420.32 60.7139C1418.54 61.9267 1417.15 63.6505 1416.34 65.6674C1415.52 67.6842 1415.3 69.9035 1415.72 72.0445C1416.14 74.1856 1417.17 76.1523 1418.68 77.6959C1420.2 79.2396 1422.13 80.2908 1424.22 80.7167C1426.32 81.1426 1428.5 80.924 1430.48 80.0886C1432.46 79.2532 1434.15 77.8385 1435.34 76.0233C1436.53 74.2082 1437.16 72.0742 1437.16 69.8912C1437.16 66.9649 1436.02 64.1595 1433.99 62.0903C1431.96 60.0211 1429.21 58.8571 1426.34 58.8537Z" fill="black"/>
</g>
<g clip-path="url(#clip2_309_2339)">
<path d="M1415.51 11.8912C1415.51 9.62375 1416.17 7.40724 1417.41 5.52194C1418.64 3.63664 1420.4 2.16722 1422.45 1.29951C1424.51 0.431805 1426.77 0.204774 1428.95 0.647128C1431.13 1.08948 1433.13 2.18136 1434.71 3.78467C1436.28 5.38799 1437.35 7.43074 1437.78 9.6546C1438.22 11.8785 1438 14.1836 1437.14 16.2784C1436.29 18.3732 1434.85 20.1637 1433 21.4234C1431.15 22.6832 1428.98 23.3555 1426.76 23.3555C1423.77 23.3544 1420.91 22.1462 1418.81 19.9965C1416.7 17.8467 1415.51 14.9314 1415.51 11.8912Z" fill="black"/>
<path d="M1391.42 12.109C1391.42 9.84153 1392.08 7.62501 1393.31 5.73971C1394.55 3.85441 1396.31 2.385 1398.36 1.51729C1400.42 0.649581 1402.68 0.422549 1404.86 0.864904C1407.04 1.30726 1409.04 2.39913 1410.61 4.00245C1412.19 5.60576 1413.26 7.64852 1413.69 9.87238C1414.13 12.0962 1413.9 14.4013 1413.05 16.4962C1412.2 18.591 1410.76 20.3815 1408.91 21.6412C1407.06 22.9009 1404.89 23.5733 1402.66 23.5733C1399.68 23.5733 1396.82 22.3655 1394.71 20.2155C1392.6 18.0655 1391.42 15.1495 1391.42 12.109Z" fill="black"/>
<path d="M1372.03 -3.92521e-05C1374.34 -3.90504e-05 1376.59 0.697364 1378.51 2.00398C1380.43 3.3106 1381.93 5.16775 1382.81 7.34057C1383.69 9.5134 1383.92 11.9043 1383.47 14.211C1383.02 16.5176 1381.91 18.6364 1380.28 20.2994C1378.65 21.9625 1376.57 23.095 1374.31 23.5538C1372.05 24.0126 1369.7 23.7771 1367.57 22.8771C1365.44 21.9771 1363.62 20.453 1362.34 18.4975C1361.05 16.542 1360.37 14.243 1360.37 11.8911C1360.37 8.73843 1361.6 5.71583 1363.79 3.48654C1365.98 1.25725 1368.94 0.00334984 1372.03 -3.92521e-05ZM1372.03 22.9286C1374.17 22.9286 1376.27 22.2813 1378.05 21.0685C1379.83 19.8557 1381.22 18.1318 1382.03 16.115C1382.85 14.0982 1383.07 11.8789 1382.65 9.73781C1382.23 7.59674 1381.2 5.63004 1379.69 4.08641C1378.17 2.54279 1376.24 1.49156 1374.14 1.06568C1372.04 0.639794 1369.87 0.858374 1367.89 1.69378C1365.91 2.52918 1364.22 3.94389 1363.03 5.759C1361.84 7.57411 1361.21 9.7081 1361.21 11.8911C1361.21 14.8174 1362.35 17.6229 1364.38 19.6921C1366.41 21.7613 1369.16 22.9253 1372.03 22.9286Z" fill="black"/>
<path d="M1347.94 0.217734C1350.24 0.217734 1352.5 0.915139 1354.42 2.22176C1356.33 3.52838 1357.83 5.38552 1358.71 7.55835C1359.59 9.73117 1359.83 12.1221 1359.38 14.4287C1358.93 16.7354 1357.81 18.8542 1356.18 20.5172C1354.55 22.1802 1352.47 23.3127 1350.21 23.7716C1347.95 24.2304 1345.6 23.9949 1343.47 23.0949C1341.34 22.1949 1339.52 20.6708 1338.24 18.7153C1336.96 16.7598 1336.27 14.4607 1336.27 12.1089C1336.28 8.9562 1337.51 5.93361 1339.69 3.70432C1341.88 1.47503 1344.84 0.221123 1347.94 0.217734ZM1347.94 23.1464C1350.08 23.1464 1352.17 22.4991 1353.95 21.2863C1355.73 20.0734 1357.12 18.3496 1357.94 16.3328C1358.76 14.3159 1358.97 12.0967 1358.55 9.95558C1358.14 7.81451 1357.11 5.84781 1355.59 4.30419C1354.08 2.76056 1352.15 1.70934 1350.05 1.28345C1347.95 0.85757 1345.77 1.07615 1343.79 1.91155C1341.82 2.74696 1340.13 4.16166 1338.94 5.97677C1337.75 7.79189 1337.11 9.92588 1337.11 12.1089C1337.11 15.0352 1338.26 17.8407 1340.29 19.9099C1342.32 21.9791 1345.07 23.143 1347.94 23.1464Z" fill="black"/>
<path d="M1303.93 11.8912C1303.93 9.62375 1304.59 7.40724 1305.82 5.52194C1307.06 3.63664 1308.81 2.16722 1310.87 1.29951C1312.92 0.431805 1315.18 0.204774 1317.36 0.647128C1319.55 1.08948 1321.55 2.18136 1323.12 3.78467C1324.69 5.38799 1325.77 7.43074 1326.2 9.6546C1326.63 11.8785 1326.41 14.1836 1325.56 16.2784C1324.71 18.3732 1323.27 20.1637 1321.42 21.4234C1319.57 22.6832 1317.39 23.3555 1315.17 23.3555C1312.19 23.3555 1309.33 22.1477 1307.22 19.9977C1305.11 17.8477 1303.93 14.9317 1303.93 11.8912Z" fill="black"/>
<path d="M1279.83 12.1089C1279.83 9.84079 1280.49 7.6236 1281.73 5.73793C1282.97 3.85226 1284.72 2.38286 1286.78 1.51565C1288.84 0.648448 1291.1 0.422416 1293.28 0.866155C1295.46 1.30989 1297.46 2.40346 1299.04 4.00849C1300.61 5.61352 1301.68 7.65786 1302.11 9.88285C1302.54 12.1078 1302.32 14.4135 1301.46 16.508C1300.61 18.6025 1299.17 20.3918 1297.31 21.6495C1295.46 22.9072 1293.29 23.5767 1291.06 23.5733C1288.08 23.5688 1285.23 22.3589 1283.12 20.2094C1281.02 18.0599 1279.83 15.1465 1279.83 12.1089Z" fill="black"/>
<path d="M1260.44 -3.92521e-05C1262.75 -3.90504e-05 1265.01 0.697364 1266.92 2.00398C1268.84 3.3106 1270.34 5.16775 1271.22 7.34057C1272.1 9.5134 1272.33 11.9043 1271.88 14.211C1271.43 16.5176 1270.32 18.6364 1268.69 20.2994C1267.06 21.9625 1264.98 23.095 1262.72 23.5538C1260.46 24.0126 1258.11 23.7771 1255.98 22.8771C1253.85 21.9771 1252.03 20.453 1250.75 18.4975C1249.46 16.542 1248.78 14.243 1248.78 11.8911C1248.78 8.73843 1250.01 5.71583 1252.2 3.48654C1254.39 1.25725 1257.35 0.00334984 1260.44 -3.92521e-05ZM1260.44 22.9286C1262.58 22.9286 1264.68 22.2813 1266.46 21.0685C1268.24 19.8557 1269.63 18.1318 1270.45 16.115C1271.26 14.0982 1271.48 11.8789 1271.06 9.73781C1270.64 7.59674 1269.61 5.63004 1268.1 4.08641C1266.58 2.54279 1264.66 1.49156 1262.56 1.06568C1260.46 0.639794 1258.28 0.858374 1256.3 1.69378C1254.32 2.52918 1252.63 3.94389 1251.44 5.759C1250.25 7.57411 1249.62 9.7081 1249.62 11.8911C1249.62 14.8174 1250.76 17.6229 1252.79 19.6921C1254.82 21.7613 1257.57 22.9253 1260.44 22.9286Z" fill="black"/>
<path d="M1236.35 0.217734C1238.66 0.217734 1240.91 0.915139 1242.83 2.22176C1244.75 3.52838 1246.24 5.38552 1247.13 7.55835C1248.01 9.73117 1248.24 12.1221 1247.79 14.4287C1247.34 16.7354 1246.23 18.8542 1244.6 20.5172C1242.97 22.1802 1240.89 23.3127 1238.63 23.7716C1236.36 24.2304 1234.02 23.9949 1231.89 23.0949C1229.76 22.1949 1227.94 20.6708 1226.65 18.7153C1225.37 16.7598 1224.69 14.4607 1224.69 12.1089C1224.69 8.9562 1225.92 5.93361 1228.11 3.70432C1230.3 1.47503 1233.26 0.221123 1236.35 0.217734ZM1236.35 23.1464C1238.49 23.1464 1240.59 22.4991 1242.37 21.2863C1244.15 20.0734 1245.53 18.3496 1246.35 16.3328C1247.17 14.3159 1247.39 12.0967 1246.97 9.95558C1246.55 7.81451 1245.52 5.84781 1244.01 4.30419C1242.49 2.76056 1240.56 1.70934 1238.46 1.28345C1236.36 0.85757 1234.19 1.07615 1232.21 1.91155C1230.23 2.74696 1228.54 4.16166 1227.35 5.97677C1226.16 7.79189 1225.53 9.92588 1225.53 12.1089C1225.53 15.0352 1226.67 17.8407 1228.7 19.9099C1230.73 21.9791 1233.48 23.143 1236.35 23.1464Z" fill="black"/>
<path d="M1196.24 11.8912C1196.24 9.62357 1196.9 7.40689 1198.14 5.52149C1199.37 3.6361 1201.13 2.16669 1203.19 1.29911C1205.24 0.431523 1207.5 0.204741 1209.68 0.647441C1211.86 1.09014 1213.87 2.18244 1215.44 3.78618C1217.01 5.38993 1218.08 7.43308 1218.52 9.65722C1218.95 11.8814 1218.73 14.1866 1217.87 16.2814C1217.02 18.3761 1215.58 20.1663 1213.73 21.4255C1211.88 22.6847 1209.71 23.3564 1207.48 23.3555C1204.5 23.3544 1201.64 22.1461 1199.54 19.9962C1197.43 17.8463 1196.24 14.931 1196.24 11.8912Z" fill="black"/>
<path d="M1172.15 12.109C1172.15 9.84153 1172.81 7.62501 1174.04 5.73971C1175.28 3.85441 1177.03 2.385 1179.09 1.51729C1181.14 0.649581 1183.4 0.422549 1185.59 0.864904C1187.77 1.30726 1189.77 2.39913 1191.34 4.00245C1192.92 5.60576 1193.99 7.64852 1194.42 9.87238C1194.85 12.0962 1194.63 14.4013 1193.78 16.4962C1192.93 18.591 1191.49 20.3815 1189.64 21.6412C1187.79 22.9009 1185.62 23.5733 1183.39 23.5733C1180.41 23.5722 1177.55 22.364 1175.44 20.2142C1173.33 18.0645 1172.15 15.1491 1172.15 12.109Z" fill="black"/>
<path d="M1152.76 -3.92521e-05C1155.07 -3.90504e-05 1157.32 0.697364 1159.24 2.00398C1161.16 3.3106 1162.65 5.16775 1163.54 7.34057C1164.42 9.5134 1164.65 11.9043 1164.2 14.211C1163.75 16.5176 1162.64 18.6364 1161.01 20.2994C1159.38 21.9625 1157.3 23.095 1155.04 23.5538C1152.77 24.0126 1150.43 23.7771 1148.3 22.8771C1146.17 21.9771 1144.34 20.453 1143.06 18.4975C1141.78 16.542 1141.1 14.243 1141.1 11.8911C1141.1 8.73843 1142.33 5.71583 1144.52 3.48654C1146.7 1.25725 1149.67 0.00334984 1152.76 -3.92521e-05ZM1152.76 22.9286C1154.9 22.9286 1156.99 22.2813 1158.78 21.0685C1160.56 19.8557 1161.94 18.1318 1162.76 16.115C1163.58 14.0982 1163.8 11.8789 1163.38 9.73781C1162.96 7.59674 1161.93 5.63004 1160.42 4.08641C1158.9 2.54279 1156.97 1.49156 1154.87 1.06568C1152.77 0.639794 1150.6 0.858374 1148.62 1.69378C1146.64 2.52918 1144.95 3.94389 1143.76 5.759C1142.57 7.57411 1141.94 9.7081 1141.94 11.8911C1141.94 14.8174 1143.08 17.6229 1145.11 19.6921C1147.14 21.7613 1149.89 22.9253 1152.76 22.9286Z" fill="black"/>
<path d="M1128.67 0.217734C1130.98 0.217734 1133.23 0.915139 1135.15 2.22176C1137.07 3.52838 1138.56 5.38552 1139.44 7.55835C1140.33 9.73117 1140.56 12.1221 1140.11 14.4287C1139.66 16.7354 1138.55 18.8542 1136.92 20.5172C1135.28 22.1802 1133.21 23.3127 1130.94 23.7716C1128.68 24.2304 1126.34 23.9949 1124.21 23.0949C1122.07 22.1949 1120.25 20.6708 1118.97 18.7153C1117.69 16.7598 1117.01 14.4607 1117.01 12.1089C1117.01 8.9562 1118.24 5.93361 1120.43 3.70432C1122.61 1.47503 1125.58 0.221123 1128.67 0.217734ZM1128.67 23.1464C1130.81 23.1464 1132.9 22.4991 1134.68 21.2863C1136.46 20.0734 1137.85 18.3496 1138.67 16.3328C1139.49 14.3159 1139.7 12.0967 1139.29 9.95558C1138.87 7.81451 1137.84 5.84781 1136.32 4.30419C1134.81 2.76056 1132.88 1.70934 1130.78 1.28345C1128.68 0.85757 1126.5 1.07615 1124.53 1.91155C1122.55 2.74696 1120.86 4.16166 1119.67 5.97677C1118.48 7.79189 1117.84 9.92588 1117.84 12.1089C1117.85 15.0352 1118.99 17.8407 1121.02 19.9099C1123.05 21.9791 1125.8 23.143 1128.67 23.1464Z" fill="black"/>
<path d="M1087.81 11.8912C1087.81 9.62375 1088.47 7.40724 1089.7 5.52194C1090.94 3.63664 1092.69 2.16722 1094.75 1.29951C1096.8 0.431805 1099.06 0.204774 1101.24 0.647128C1103.43 1.08948 1105.43 2.18136 1107 3.78467C1108.57 5.38799 1109.65 7.43074 1110.08 9.6546C1110.51 11.8785 1110.29 14.1836 1109.44 16.2784C1108.59 18.3732 1107.15 20.1637 1105.3 21.4234C1103.45 22.6832 1101.27 23.3555 1099.05 23.3555C1096.07 23.3544 1093.21 22.1462 1091.1 19.9965C1088.99 17.8467 1087.81 14.9314 1087.81 11.8912Z" fill="black"/>
<path d="M1063.71 12.109C1063.71 9.84153 1064.37 7.62501 1065.61 5.73971C1066.85 3.85441 1068.6 2.385 1070.66 1.51729C1072.71 0.649581 1074.97 0.422549 1077.15 0.864904C1079.33 1.30726 1081.34 2.39913 1082.91 4.00245C1084.48 5.60576 1085.55 7.64852 1085.99 9.87238C1086.42 12.0962 1086.2 14.4013 1085.35 16.4962C1084.5 18.591 1083.06 20.3815 1081.21 21.6412C1079.36 22.9009 1077.18 23.5733 1074.96 23.5733C1071.98 23.5733 1069.12 22.3655 1067.01 20.2155C1064.9 18.0655 1063.71 15.1495 1063.71 12.109Z" fill="black"/>
<path d="M1044.33 -3.92521e-05C1046.63 -3.90504e-05 1048.89 0.697364 1050.81 2.00398C1052.73 3.3106 1054.22 5.16775 1055.1 7.34057C1055.99 9.5134 1056.22 11.9043 1055.77 14.211C1055.32 16.5176 1054.21 18.6364 1052.58 20.2994C1050.94 21.9625 1048.87 23.095 1046.6 23.5538C1044.34 24.0126 1042 23.7771 1039.86 22.8771C1037.73 21.9771 1035.91 20.453 1034.63 18.4975C1033.35 16.542 1032.67 14.243 1032.67 11.8911C1032.67 8.73843 1033.9 5.71583 1036.08 3.48654C1038.27 1.25725 1041.24 0.00334984 1044.33 -3.92521e-05ZM1044.33 22.9286C1046.47 22.9286 1048.56 22.2813 1050.34 21.0685C1052.12 19.8557 1053.51 18.1318 1054.33 16.115C1055.15 14.0982 1055.36 11.8789 1054.95 9.73781C1054.53 7.59674 1053.5 5.63004 1051.98 4.08641C1050.47 2.54279 1048.54 1.49156 1046.44 1.06568C1044.34 0.639794 1042.16 0.858374 1040.19 1.69378C1038.21 2.52918 1036.52 3.94389 1035.33 5.759C1034.14 7.57411 1033.5 9.7081 1033.5 11.8911C1033.51 14.8174 1034.65 17.6229 1036.68 19.6921C1038.71 21.7613 1041.46 22.9253 1044.33 22.9286Z" fill="black"/>
<path d="M1020.24 0.217734C1022.54 0.217734 1024.8 0.915139 1026.72 2.22176C1028.63 3.52838 1030.13 5.38552 1031.01 7.55835C1031.89 9.73117 1032.13 12.1221 1031.68 14.4287C1031.22 16.7354 1030.11 18.8542 1028.48 20.5172C1026.85 22.1802 1024.77 23.3127 1022.51 23.7716C1020.25 24.2304 1017.9 23.9949 1015.77 23.0949C1013.64 22.1949 1011.82 20.6708 1010.54 18.7153C1009.26 16.7598 1008.57 14.4607 1008.57 12.1089C1008.58 8.9562 1009.81 5.93361 1011.99 3.70432C1014.18 1.47503 1017.14 0.221123 1020.24 0.217734ZM1020.24 23.1464C1022.38 23.1464 1024.47 22.4991 1026.25 21.2863C1028.03 20.0734 1029.42 18.3496 1030.24 16.3328C1031.06 14.3159 1031.27 12.0967 1030.85 9.95558C1030.44 7.81451 1029.41 5.84781 1027.89 4.30419C1026.38 2.76056 1024.45 1.70934 1022.35 1.28345C1020.25 0.85757 1018.07 1.07615 1016.09 1.91155C1014.12 2.74696 1012.42 4.16166 1011.23 5.97677C1010.05 7.79189 1009.41 9.92588 1009.41 12.1089C1009.41 15.0352 1010.56 17.8407 1012.58 19.9099C1014.61 21.9791 1017.37 23.143 1020.24 23.1464Z" fill="black"/>
<path d="M977.93 11.8912C977.93 9.62375 978.589 7.40724 979.825 5.52194C981.06 3.63664 982.816 2.16722 984.871 1.29951C986.926 0.431805 989.187 0.204774 991.368 0.647128C993.549 1.08948 995.552 2.18136 997.125 3.78467C998.698 5.38799 999.768 7.43074 1000.2 9.6546C1000.64 11.8785 1000.41 14.1836 999.562 16.2784C998.711 18.3732 997.27 20.1637 995.421 21.4234C993.572 22.6832 991.398 23.3555 989.174 23.3555C986.192 23.3555 983.332 22.1477 981.223 19.9977C979.114 17.8477 977.93 14.9317 977.93 11.8912Z" fill="black"/>
<path d="M953.846 12.109C953.846 9.84153 954.506 7.62501 955.741 5.73971C956.977 3.85441 958.733 2.385 960.788 1.51729C962.842 0.649581 965.103 0.422549 967.284 0.864904C969.465 1.30726 971.469 2.39913 973.041 4.00245C974.614 5.60576 975.685 7.64852 976.119 9.87238C976.553 12.0962 976.33 14.4013 975.479 16.4962C974.628 18.591 973.187 20.3815 971.338 21.6412C969.488 22.9009 967.314 23.5733 965.091 23.5733C962.109 23.5722 959.249 22.364 957.141 20.2142C955.032 18.0645 953.847 15.1491 953.846 12.109Z" fill="black"/>
<path d="M934.46 -3.92521e-05C936.766 -3.90504e-05 939.021 0.697364 940.939 2.00398C942.857 3.3106 944.352 5.16775 945.235 7.34057C946.118 9.5134 946.349 11.9043 945.899 14.211C945.448 16.5176 944.338 18.6364 942.707 20.2994C941.076 21.9625 938.997 23.095 936.735 23.5538C934.473 24.0126 932.128 23.7771 929.996 22.8771C927.865 21.9771 926.044 20.453 924.762 18.4975C923.481 16.542 922.797 14.243 922.797 11.8911C922.8 8.73843 924.03 5.71583 926.216 3.48654C928.403 1.25725 931.368 0.00334984 934.46 -3.92521e-05ZM934.46 22.9286C936.601 22.9286 938.694 22.2813 940.474 21.0685C942.254 19.8557 943.642 18.1318 944.461 16.115C945.281 14.0982 945.495 11.8789 945.077 9.73781C944.66 7.59674 943.629 5.63004 942.115 4.08641C940.601 2.54279 938.672 1.49156 936.572 1.06568C934.472 0.639794 932.295 0.858374 930.317 1.69378C928.339 2.52918 926.648 3.94389 925.458 5.759C924.269 7.57411 923.634 9.7081 923.634 11.8911C923.637 14.8174 924.779 17.6229 926.808 19.6921C928.838 21.7613 931.59 22.9253 934.46 22.9286Z" fill="black"/>
<path d="M910.368 0.217734C912.674 0.217734 914.929 0.915139 916.847 2.22176C918.765 3.52838 920.26 5.38552 921.143 7.55835C922.026 9.73117 922.257 12.1221 921.807 14.4287C921.357 16.7354 920.246 18.8542 918.615 20.5172C916.984 22.1802 914.905 23.3127 912.643 23.7716C910.381 24.2304 908.036 23.9949 905.905 23.0949C903.773 22.1949 901.952 20.6708 900.67 18.7153C899.389 16.7598 898.705 14.4607 898.705 12.1089C898.708 8.9562 899.938 5.93361 902.124 3.70432C904.311 1.47503 907.276 0.221123 910.368 0.217734ZM910.368 23.1464C912.509 23.1464 914.602 22.4991 916.382 21.2863C918.162 20.0734 919.55 18.3496 920.369 16.3328C921.189 14.3159 921.403 12.0967 920.985 9.95558C920.568 7.81451 919.537 5.84781 918.023 4.30419C916.509 2.76056 914.58 1.70934 912.48 1.28345C910.38 0.85757 908.203 1.07615 906.225 1.91155C904.247 2.74696 902.556 4.16166 901.366 5.97677C900.177 7.79189 899.542 9.92588 899.542 12.1089C899.545 15.0352 900.687 17.8407 902.716 19.9099C904.746 21.9791 907.498 23.143 910.368 23.1464Z" fill="black"/>
<path d="M866.353 11.8912C866.353 9.62375 867.013 7.40724 868.248 5.52194C869.484 3.63664 871.24 2.16722 873.295 1.29951C875.349 0.431805 877.61 0.204774 879.791 0.647128C881.972 1.08948 883.976 2.18136 885.549 3.78467C887.121 5.38799 888.192 7.43074 888.626 9.6546C889.06 11.8785 888.837 14.1836 887.986 16.2784C887.135 18.3732 885.694 20.1637 883.845 21.4234C881.996 22.6832 879.822 23.3555 877.598 23.3555C874.616 23.3544 871.756 22.1462 869.648 19.9965C867.54 17.8467 866.354 14.9314 866.353 11.8912Z" fill="black"/>
<path d="M842.261 12.109C842.261 9.84153 842.921 7.62501 844.156 5.73971C845.392 3.85441 847.148 2.385 849.203 1.51729C851.257 0.649581 853.518 0.422549 855.699 0.864904C857.881 1.30726 859.884 2.39913 861.457 4.00245C863.029 5.60576 864.1 7.64852 864.534 9.87238C864.968 12.0962 864.745 14.4013 863.894 16.4962C863.043 18.591 861.602 20.3815 859.753 21.6412C857.904 22.9009 855.73 23.5733 853.506 23.5733C850.524 23.5733 847.664 22.3655 845.555 20.2155C843.446 18.0655 842.261 15.1495 842.261 12.109Z" fill="black"/>
<path d="M822.875 -3.92521e-05C825.182 -3.90504e-05 827.436 0.697364 829.354 2.00398C831.272 3.3106 832.767 5.16775 833.65 7.34057C834.533 9.5134 834.764 11.9043 834.314 14.211C833.864 16.5176 832.753 18.6364 831.122 20.2994C829.491 21.9625 827.413 23.095 825.15 23.5538C822.888 24.0126 820.543 23.7771 818.412 22.8771C816.281 21.9771 814.459 20.453 813.178 18.4975C811.896 16.542 811.212 14.243 811.212 11.8911C811.215 8.73843 812.445 5.71583 814.632 3.48654C816.818 1.25725 819.783 0.00334984 822.875 -3.92521e-05ZM822.875 22.9286C825.016 22.9286 827.109 22.2813 828.889 21.0685C830.67 19.8557 832.057 18.1318 832.876 16.115C833.696 14.0982 833.91 11.8789 833.493 9.73781C833.075 7.59674 832.044 5.63004 830.53 4.08641C829.016 2.54279 827.087 1.49156 824.987 1.06568C822.887 0.639794 820.71 0.858374 818.732 1.69378C816.754 2.52918 815.063 3.94389 813.874 5.759C812.684 7.57411 812.049 9.7081 812.049 11.8911C812.053 14.8174 813.194 17.6229 815.224 19.6921C817.253 21.7613 820.005 22.9253 822.875 22.9286Z" fill="black"/>
<path d="M798.783 0.217734C801.09 0.217734 803.345 0.915139 805.263 2.22176C807.18 3.52838 808.675 5.38552 809.558 7.55835C810.441 9.73117 810.672 12.1221 810.222 14.4287C809.772 16.7354 808.661 18.8542 807.03 20.5172C805.399 22.1802 803.321 23.3127 801.058 23.7716C798.796 24.2304 796.451 23.9949 794.32 23.0949C792.189 22.1949 790.367 20.6708 789.086 18.7153C787.804 16.7598 787.12 14.4607 787.12 12.1089C787.123 8.9562 788.353 5.93361 790.54 3.70432C792.726 1.47503 795.691 0.221123 798.783 0.217734ZM798.783 23.1464C800.924 23.1464 803.017 22.4991 804.797 21.2863C806.578 20.0734 807.965 18.3496 808.785 16.3328C809.604 14.3159 809.818 12.0967 809.401 9.95558C808.983 7.81451 807.952 5.84781 806.438 4.30419C804.924 2.76056 802.995 1.70934 800.895 1.28345C798.795 0.85757 796.618 1.07615 794.64 1.91155C792.662 2.74696 790.971 4.16166 789.782 5.97677C788.592 7.79189 787.957 9.92588 787.957 12.1089C787.961 15.0352 789.102 17.8407 791.132 19.9099C793.161 21.9791 795.913 23.143 798.783 23.1464Z" fill="black"/>
<path d="M758.67 11.8912C758.67 9.62375 759.33 7.40724 760.565 5.52194C761.801 3.63664 763.557 2.16722 765.611 1.29951C767.666 0.431805 769.927 0.204774 772.108 0.647128C774.289 1.08948 776.293 2.18136 777.865 3.78467C779.438 5.38799 780.509 7.43074 780.943 9.6546C781.377 11.8785 781.154 14.1836 780.303 16.2784C779.452 18.3732 778.011 20.1637 776.161 21.4234C774.312 22.6832 772.138 23.3555 769.914 23.3555C766.933 23.3544 764.073 22.1462 761.965 19.9965C759.856 17.8467 758.671 14.9314 758.67 11.8912Z" fill="black"/>
<path d="M734.578 12.109C734.578 9.84134 735.238 7.62466 736.474 5.73927C737.709 3.85387 739.466 2.38446 741.52 1.51688C743.575 0.649296 745.836 0.422515 748.018 0.865214C750.199 1.30792 752.203 2.40021 753.775 4.00396C755.347 5.6077 756.418 7.65085 756.851 9.875C757.285 12.0991 757.061 14.4044 756.21 16.4991C755.358 18.5939 753.916 20.3841 752.066 21.6433C750.217 22.9025 748.042 23.5741 745.818 23.5733C742.837 23.5722 739.978 22.3638 737.87 20.214C735.762 18.0641 734.578 15.1488 734.578 12.109Z" fill="black"/>
<path d="M715.192 -3.92521e-05C717.498 -3.90504e-05 719.753 0.697364 721.671 2.00398C723.589 3.3106 725.084 5.16775 725.967 7.34057C726.849 9.5134 727.08 11.9043 726.63 14.211C726.18 16.5176 725.07 18.6364 723.439 20.2994C721.807 21.9625 719.729 23.095 717.467 23.5538C715.205 24.0126 712.86 23.7771 710.728 22.8771C708.597 21.9771 706.776 20.453 705.494 18.4975C704.213 16.542 703.529 14.243 703.529 11.8911C703.532 8.73843 704.762 5.71583 706.948 3.48654C709.135 1.25725 712.099 0.00334984 715.192 -3.92521e-05ZM715.192 22.9286C717.333 22.9286 719.426 22.2813 721.206 21.0685C722.986 19.8557 724.374 18.1318 725.193 16.115C726.013 14.0982 726.227 11.8789 725.809 9.73781C725.392 7.59674 724.361 5.63004 722.847 4.08641C721.333 2.54279 719.404 1.49156 717.304 1.06568C715.204 0.639794 713.027 0.858374 711.049 1.69378C709.071 2.52918 707.38 3.94389 706.19 5.759C705.001 7.57411 704.366 9.7081 704.366 11.8911C704.369 14.8174 705.511 17.6229 707.54 19.6921C709.57 21.7613 712.321 22.9253 715.192 22.9286Z" fill="black"/>
<path d="M691.095 0.217746C693.403 0.214368 695.659 0.908901 697.58 2.21346C699.5 3.51803 700.997 5.37399 701.883 7.54652C702.768 9.71904 703.001 12.1105 702.553 14.4183C702.105 16.7261 700.995 18.8465 699.365 20.5112C697.735 22.1759 695.657 23.3101 693.394 23.7703C691.131 24.2305 688.785 23.996 686.653 23.0965C684.521 22.197 682.698 20.6729 681.416 18.7171C680.134 16.7612 679.449 14.4615 679.449 12.1089C679.453 8.95917 680.68 5.93915 682.863 3.71035C685.046 1.48154 688.006 0.225648 691.095 0.217746ZM691.095 23.1464C693.237 23.1498 695.332 22.5053 697.114 21.2946C698.897 20.0838 700.287 18.3612 701.109 16.3446C701.931 14.3281 702.148 12.1083 701.732 9.96608C701.316 7.82388 700.286 5.85559 698.773 4.31025C697.26 2.76492 695.331 1.712 693.23 1.28473C691.13 0.857459 688.952 1.07504 686.973 1.90994C684.994 2.74484 683.302 4.15954 682.112 5.97502C680.922 7.79049 680.287 9.92516 680.287 12.1089C680.29 15.0322 681.429 17.8351 683.455 19.9039C685.481 21.9726 688.228 23.1385 691.095 23.1464Z" fill="black"/>
<path d="M650.238 11.8912C650.238 9.62375 650.897 7.40724 652.133 5.52194C653.368 3.63664 655.124 2.16722 657.179 1.29951C659.234 0.431805 661.494 0.204774 663.676 0.647128C665.857 1.08948 667.86 2.18136 669.433 3.78467C671.005 5.38799 672.076 7.43074 672.51 9.6546C672.944 11.8785 672.721 14.1836 671.87 16.2784C671.019 18.3732 669.578 20.1637 667.729 21.4234C665.88 22.6832 663.706 23.3555 661.482 23.3555C658.5 23.3555 655.64 22.1477 653.531 19.9977C651.422 17.8477 650.238 14.9317 650.238 11.8912Z" fill="black"/>
<path d="M626.146 12.109C626.146 9.84134 626.805 7.62466 628.041 5.73927C629.277 3.85387 631.033 2.38446 633.088 1.51688C635.143 0.649296 637.404 0.422515 639.585 0.865214C641.766 1.30792 643.77 2.40021 645.342 4.00396C646.915 5.6077 647.985 7.65085 648.419 9.875C648.852 12.0991 648.629 14.4044 647.777 16.4991C646.925 18.5939 645.484 20.3841 643.634 21.6433C641.784 22.9025 639.61 23.5741 637.386 23.5733C634.404 23.5722 631.545 22.3638 629.438 20.214C627.33 18.0641 626.146 15.1488 626.146 12.109Z" fill="black"/>
<path d="M606.755 -3.92525e-05C609.062 -0.000882099 611.317 0.695806 613.236 2.00191C615.154 3.30801 616.65 5.16487 617.533 7.33762C618.416 9.51037 618.648 11.9014 618.198 14.2084C617.749 16.5153 616.638 18.6345 615.007 20.2979C613.377 21.9614 611.298 23.0943 609.036 23.5535C606.773 24.0127 604.428 23.7774 602.297 22.8775C600.165 21.9776 598.344 20.4535 597.062 18.4979C595.78 16.5424 595.096 14.2432 595.096 11.8911C595.099 8.73917 596.329 5.71722 598.514 3.48805C600.7 1.25888 603.663 0.00448089 606.755 -3.92525e-05ZM606.755 22.9286C608.896 22.9295 610.99 22.2829 612.77 21.0706C614.551 19.8583 615.939 18.1347 616.759 16.118C617.579 14.1012 617.794 11.8818 617.377 9.74043C616.96 7.59908 615.929 5.63198 614.415 4.08792C612.902 2.54387 610.973 1.49223 608.873 1.066C606.772 0.639764 604.596 0.858092 602.617 1.69337C600.639 2.52865 598.948 3.94335 597.758 5.75856C596.568 7.57376 595.933 9.70792 595.933 11.8911C595.937 14.8167 597.078 17.6215 599.106 19.6906C601.135 21.7597 603.885 22.9241 606.755 22.9286Z" fill="black"/>
<path d="M582.663 0.217734C584.97 0.217734 587.225 0.915139 589.143 2.22176C591.06 3.52838 592.555 5.38552 593.438 7.55835C594.321 9.73117 594.552 12.1221 594.102 14.4287C593.652 16.7354 592.541 18.8542 590.91 20.5172C589.279 22.1802 587.201 23.3127 584.938 23.7716C582.676 24.2304 580.331 23.9949 578.2 23.0949C576.069 22.1949 574.247 20.6708 572.966 18.7153C571.684 16.7598 571 14.4607 571 12.1089C571.003 8.9562 572.233 5.93361 574.42 3.70432C576.606 1.47503 579.571 0.221123 582.663 0.217734ZM582.663 23.1464C584.804 23.1464 586.897 22.4991 588.677 21.2863C590.458 20.0734 591.845 18.3496 592.665 16.3328C593.484 14.3159 593.698 12.0967 593.281 9.95558C592.863 7.81451 591.832 5.84781 590.318 4.30419C588.804 2.76056 586.875 1.70934 584.775 1.28345C582.675 0.85757 580.498 1.07615 578.52 1.91155C576.542 2.74696 574.851 4.16166 573.662 5.97677C572.472 7.79189 571.837 9.92588 571.837 12.1089C571.841 15.0352 572.982 17.8407 575.012 19.9099C577.041 21.9791 579.793 23.143 582.663 23.1464Z" fill="black"/>
</g>
<g clip-path="url(#clip3_309_2339)">
<path d="M538.511 11.8912C538.511 9.62375 539.171 7.40724 540.406 5.52194C541.642 3.63664 543.398 2.16722 545.453 1.29951C547.507 0.431805 549.768 0.204774 551.949 0.647128C554.131 1.08948 556.134 2.18136 557.707 3.78467C559.279 5.38799 560.35 7.43074 560.784 9.6546C561.218 11.8785 560.995 14.1836 560.144 16.2784C559.293 18.3732 557.852 20.1637 556.003 21.4234C554.154 22.6832 551.98 23.3555 549.756 23.3555C546.774 23.3544 543.914 22.1462 541.806 19.9965C539.698 17.8467 538.513 14.9314 538.511 11.8912Z" fill="black"/>
<path d="M514.419 12.109C514.419 9.84153 515.079 7.62501 516.314 5.73971C517.55 3.85441 519.306 2.385 521.361 1.51729C523.415 0.649581 525.676 0.422549 527.857 0.864904C530.039 1.30726 532.042 2.39913 533.615 4.00245C535.187 5.60576 536.258 7.64852 536.692 9.87238C537.126 12.0962 536.903 14.4013 536.052 16.4962C535.201 18.591 533.76 20.3815 531.911 21.6412C530.062 22.9009 527.888 23.5733 525.664 23.5733C522.682 23.5733 519.822 22.3655 517.713 20.2155C515.604 18.0655 514.419 15.1495 514.419 12.109Z" fill="black"/>
<path d="M495.033 -3.92521e-05C497.34 -3.90504e-05 499.595 0.697364 501.512 2.00398C503.43 3.3106 504.925 5.16775 505.808 7.34057C506.691 9.5134 506.922 11.9043 506.472 14.211C506.022 16.5176 504.911 18.6364 503.28 20.2994C501.649 21.9625 499.571 23.095 497.308 23.5538C495.046 24.0126 492.701 23.7771 490.57 22.8771C488.439 21.9771 486.617 20.453 485.336 18.4975C484.054 16.542 483.37 14.243 483.37 11.8911C483.373 8.73843 484.603 5.71583 486.79 3.48654C488.976 1.25725 491.941 0.00334984 495.033 -3.92521e-05ZM495.033 22.9286C497.174 22.9286 499.267 22.2813 501.047 21.0685C502.828 19.8557 504.215 18.1318 505.035 16.115C505.854 14.0982 506.068 11.8789 505.651 9.73781C505.233 7.59674 504.202 5.63004 502.688 4.08641C501.174 2.54279 499.245 1.49156 497.145 1.06568C495.045 0.639794 492.868 0.858374 490.89 1.69378C488.912 2.52918 487.221 3.94389 486.032 5.759C484.842 7.57411 484.207 9.7081 484.207 11.8911C484.211 14.8174 485.352 17.6229 487.382 19.6921C489.411 21.7613 492.163 22.9253 495.033 22.9286Z" fill="black"/>
<path d="M470.937 0.217734C473.243 0.217734 475.498 0.915139 477.416 2.22176C479.334 3.52838 480.829 5.38552 481.712 7.55835C482.595 9.73117 482.826 12.1221 482.376 14.4287C481.926 16.7354 480.815 18.8542 479.184 20.5172C477.553 22.1802 475.474 23.3127 473.212 23.7716C470.95 24.2304 468.605 23.9949 466.474 23.0949C464.342 22.1949 462.521 20.6708 461.239 18.7153C459.958 16.7598 459.274 14.4607 459.274 12.1089C459.277 8.9562 460.507 5.93361 462.694 3.70432C464.88 1.47503 467.845 0.221123 470.937 0.217734ZM470.937 23.1464C473.078 23.1464 475.171 22.4991 476.951 21.2863C478.731 20.0734 480.119 18.3496 480.938 16.3328C481.758 14.3159 481.972 12.0967 481.554 9.95558C481.137 7.81451 480.106 5.84781 478.592 4.30419C477.078 2.76056 475.149 1.70934 473.049 1.28345C470.949 0.85757 468.772 1.07615 466.794 1.91155C464.816 2.74696 463.125 4.16166 461.936 5.97677C460.746 7.79189 460.111 9.92588 460.111 12.1089C460.114 15.0352 461.256 17.8407 463.286 19.9099C465.315 21.9791 468.067 23.143 470.937 23.1464Z" fill="black"/>
<path d="M426.927 11.8912C426.927 9.62375 427.586 7.40724 428.822 5.52194C430.057 3.63664 431.813 2.16722 433.868 1.29951C435.923 0.431805 438.183 0.204774 440.365 0.647128C442.546 1.08948 444.549 2.18136 446.122 3.78467C447.694 5.38799 448.765 7.43074 449.199 9.6546C449.633 11.8785 449.41 14.1836 448.559 16.2784C447.708 18.3732 446.267 20.1637 444.418 21.4234C442.569 22.6832 440.395 23.3555 438.171 23.3555C435.189 23.3555 432.329 22.1477 430.22 19.9977C428.111 17.8477 426.927 14.9317 426.927 11.8912Z" fill="black"/>
<path d="M402.835 12.1089C402.835 9.84079 403.495 7.6236 404.731 5.73793C405.967 3.85226 407.724 2.38286 409.78 1.51565C411.835 0.648448 414.097 0.422416 416.279 0.866155C418.46 1.30989 420.464 2.40346 422.036 4.00849C423.608 5.61352 424.677 7.65786 425.109 9.88285C425.541 12.1078 425.316 14.4135 424.463 16.508C423.609 18.6025 422.165 20.3918 420.314 21.6495C418.462 22.9072 416.287 23.5767 414.062 23.5733C411.083 23.5688 408.227 22.3589 406.122 20.2094C404.017 18.0599 402.835 15.1465 402.835 12.1089Z" fill="black"/>
<path d="M383.444 -3.92521e-05C385.751 -3.90504e-05 388.006 0.697364 389.923 2.00398C391.841 3.3106 393.336 5.16775 394.219 7.34057C395.102 9.5134 395.333 11.9043 394.883 14.211C394.433 16.5176 393.322 18.6364 391.691 20.2994C390.06 21.9625 387.982 23.095 385.719 23.5538C383.457 24.0126 381.112 23.7771 378.981 22.8771C376.85 21.9771 375.028 20.453 373.747 18.4975C372.465 16.542 371.781 14.243 371.781 11.8911C371.784 8.73843 373.014 5.71583 375.201 3.48654C377.387 1.25725 380.352 0.00334984 383.444 -3.92521e-05ZM383.444 22.9286C385.585 22.9286 387.678 22.2813 389.458 21.0685C391.239 19.8557 392.626 18.1318 393.446 16.115C394.265 14.0982 394.479 11.8789 394.062 9.73781C393.644 7.59674 392.613 5.63004 391.099 4.08641C389.585 2.54279 387.656 1.49156 385.556 1.06568C383.456 0.639794 381.279 0.858374 379.301 1.69378C377.323 2.52918 375.632 3.94389 374.443 5.759C373.253 7.57411 372.618 9.7081 372.618 11.8911C372.622 14.8174 373.763 17.6229 375.793 19.6921C377.822 21.7613 380.574 22.9253 383.444 22.9286Z" fill="black"/>
<path d="M359.352 0.217734C361.659 0.217734 363.914 0.915139 365.832 2.22176C367.749 3.52838 369.244 5.38552 370.127 7.55835C371.01 9.73117 371.241 12.1221 370.791 14.4287C370.341 16.7354 369.23 18.8542 367.599 20.5172C365.968 22.1802 363.89 23.3127 361.627 23.7716C359.365 24.2304 357.02 23.9949 354.889 23.0949C352.758 22.1949 350.936 20.6708 349.655 18.7153C348.373 16.7598 347.689 14.4607 347.689 12.1089C347.692 8.9562 348.922 5.93361 351.109 3.70432C353.295 1.47503 356.26 0.221123 359.352 0.217734ZM359.352 23.1464C361.493 23.1464 363.586 22.4991 365.366 21.2863C367.147 20.0734 368.534 18.3496 369.354 16.3328C370.173 14.3159 370.387 12.0967 369.97 9.95558C369.552 7.81451 368.521 5.84781 367.007 4.30419C365.493 2.76056 363.564 1.70934 361.464 1.28345C359.364 0.85757 357.187 1.07615 355.209 1.91155C353.231 2.74696 351.54 4.16166 350.351 5.97677C349.161 7.79189 348.526 9.92588 348.526 12.1089C348.53 15.0352 349.671 17.8407 351.701 19.9099C353.73 21.9791 356.482 23.143 359.352 23.1464Z" fill="black"/>
<path d="M319.243 11.8912C319.243 9.62357 319.903 7.40689 321.139 5.52149C322.374 3.6361 324.131 2.16669 326.186 1.29911C328.24 0.431523 330.502 0.204741 332.683 0.647441C334.864 1.09014 336.868 2.18244 338.44 3.78618C340.012 5.38993 341.083 7.43308 341.516 9.65722C341.95 11.8814 341.727 14.1866 340.875 16.2814C340.023 18.3761 338.581 20.1663 336.732 21.4255C334.882 22.6847 332.708 23.3564 330.483 23.3555C327.502 23.3544 324.643 22.1461 322.535 19.9962C320.427 17.8463 319.243 14.931 319.243 11.8912Z" fill="black"/>
<path d="M295.147 12.109C295.147 9.84153 295.807 7.62501 297.042 5.73971C298.278 3.85441 300.034 2.385 302.089 1.51729C304.143 0.649581 306.404 0.422549 308.585 0.864904C310.766 1.30726 312.77 2.39913 314.342 4.00245C315.915 5.60576 316.986 7.64852 317.42 9.87238C317.854 12.0962 317.631 14.4013 316.78 16.4962C315.929 18.591 314.488 20.3815 312.639 21.6412C310.789 22.9009 308.615 23.5733 306.392 23.5733C303.41 23.5722 300.55 22.364 298.442 20.2142C296.333 18.0645 295.148 15.1491 295.147 12.109Z" fill="black"/>
<path d="M275.761 -3.92521e-05C278.067 -3.90504e-05 280.322 0.697364 282.24 2.00398C284.158 3.3106 285.653 5.16775 286.536 7.34057C287.419 9.5134 287.649 11.9043 287.199 14.211C286.749 16.5176 285.639 18.6364 284.008 20.2994C282.377 21.9625 280.298 23.095 278.036 23.5538C275.774 24.0126 273.429 23.7771 271.297 22.8771C269.166 21.9771 267.345 20.453 266.063 18.4975C264.782 16.542 264.098 14.243 264.098 11.8911C264.101 8.73843 265.331 5.71583 267.517 3.48654C269.704 1.25725 272.668 0.00334984 275.761 -3.92521e-05ZM275.761 22.9286C277.902 22.9286 279.995 22.2813 281.775 21.0685C283.555 19.8557 284.943 18.1318 285.762 16.115C286.582 14.0982 286.796 11.8789 286.378 9.73781C285.961 7.59674 284.93 5.63004 283.416 4.08641C281.902 2.54279 279.973 1.49156 277.873 1.06568C275.773 0.639794 273.596 0.858374 271.618 1.69378C269.64 2.52918 267.949 3.94389 266.759 5.759C265.57 7.57411 264.935 9.7081 264.935 11.8911C264.938 14.8174 266.08 17.6229 268.109 19.6921C270.139 21.7613 272.891 22.9253 275.761 22.9286Z" fill="black"/>
<path d="M251.669 0.217734C253.975 0.217734 256.23 0.915139 258.148 2.22176C260.066 3.52838 261.561 5.38552 262.444 7.55835C263.327 9.73117 263.558 12.1221 263.108 14.4287C262.658 16.7354 261.547 18.8542 259.916 20.5172C258.285 22.1802 256.206 23.3127 253.944 23.7716C251.682 24.2304 249.337 23.9949 247.206 23.0949C245.074 22.1949 243.253 20.6708 241.971 18.7153C240.69 16.7598 240.006 14.4607 240.006 12.1089C240.009 8.9562 241.239 5.93361 243.425 3.70432C245.612 1.47503 248.577 0.221123 251.669 0.217734ZM251.669 23.1464C253.81 23.1464 255.903 22.4991 257.683 21.2863C259.463 20.0734 260.851 18.3496 261.67 16.3328C262.49 14.3159 262.704 12.0967 262.286 9.95558C261.869 7.81451 260.838 5.84781 259.324 4.30419C257.81 2.76056 255.881 1.70934 253.781 1.28345C251.681 0.85757 249.504 1.07615 247.526 1.91155C245.548 2.74696 243.857 4.16166 242.668 5.97677C241.478 7.79189 240.843 9.92588 240.843 12.1089C240.846 15.0352 241.988 17.8407 244.018 19.9099C246.047 21.9791 248.799 23.143 251.669 23.1464Z" fill="black"/>
<path d="M210.807 11.8912C210.807 9.62375 211.466 7.40724 212.702 5.52194C213.937 3.63664 215.693 2.16722 217.748 1.29951C219.803 0.431805 222.063 0.204774 224.245 0.647128C226.426 1.08948 228.429 2.18136 230.002 3.78467C231.574 5.38799 232.645 7.43074 233.079 9.6546C233.513 11.8785 233.29 14.1836 232.439 16.2784C231.588 18.3732 230.147 20.1637 228.298 21.4234C226.449 22.6832 224.275 23.3555 222.051 23.3555C219.069 23.3544 216.21 22.1462 214.101 19.9965C211.993 17.8467 210.808 14.9314 210.807 11.8912Z" fill="black"/>
<path d="M186.715 12.109C186.715 9.84153 187.374 7.62501 188.61 5.73971C189.845 3.85441 191.601 2.385 193.656 1.51729C195.711 0.649581 197.971 0.422549 200.153 0.864904C202.334 1.30726 204.337 2.39913 205.91 4.00245C207.482 5.60576 208.553 7.64852 208.987 9.87238C209.421 12.0962 209.198 14.4013 208.347 16.4962C207.496 18.591 206.055 20.3815 204.206 21.6412C202.357 22.9009 200.183 23.5733 197.959 23.5733C194.977 23.5733 192.117 22.3655 190.008 20.2155C187.899 18.0655 186.715 15.1495 186.715 12.109Z" fill="black"/>
<path d="M167.328 -3.92521e-05C169.635 -3.90504e-05 171.89 0.697364 173.808 2.00398C175.726 3.3106 177.221 5.16775 178.103 7.34057C178.986 9.5134 179.217 11.9043 178.767 14.211C178.317 16.5176 177.206 18.6364 175.575 20.2994C173.944 21.9625 171.866 23.095 169.603 23.5538C167.341 24.0126 164.996 23.7771 162.865 22.8771C160.734 21.9771 158.912 20.453 157.631 18.4975C156.349 16.542 155.665 14.243 155.665 11.8911C155.669 8.73843 156.898 5.71583 159.085 3.48654C161.271 1.25725 164.236 0.00334984 167.328 -3.92521e-05ZM167.328 22.9286C169.469 22.9286 171.562 22.2813 173.343 21.0685C175.123 19.8557 176.51 18.1318 177.33 16.115C178.149 14.0982 178.363 11.8789 177.946 9.73781C177.528 7.59674 176.497 5.63004 174.983 4.08641C173.469 2.54279 171.54 1.49156 169.44 1.06568C167.34 0.639794 165.163 0.858374 163.185 1.69378C161.207 2.52918 159.516 3.94389 158.327 5.759C157.137 7.57411 156.502 9.7081 156.502 11.8911C156.506 14.8174 157.647 17.6229 159.677 19.6921C161.706 21.7613 164.458 22.9253 167.328 22.9286Z" fill="black"/>
<path d="M143.236 0.217734C145.543 0.217734 147.798 0.915139 149.716 2.22176C151.634 3.52838 153.129 5.38552 154.011 7.55835C154.894 9.73117 155.125 12.1221 154.675 14.4287C154.225 16.7354 153.114 18.8542 151.483 20.5172C149.852 22.1802 147.774 23.3127 145.512 23.7716C143.249 24.2304 140.904 23.9949 138.773 23.0949C136.642 22.1949 134.82 20.6708 133.539 18.7153C132.257 16.7598 131.573 14.4607 131.573 12.1089C131.577 8.9562 132.806 5.93361 134.993 3.70432C137.179 1.47503 140.144 0.221123 143.236 0.217734ZM143.236 23.1464C145.377 23.1464 147.47 22.4991 149.251 21.2863C151.031 20.0734 152.418 18.3496 153.238 16.3328C154.057 14.3159 154.272 12.0967 153.854 9.95558C153.436 7.81451 152.405 5.84781 150.891 4.30419C149.377 2.76056 147.448 1.70934 145.348 1.28345C143.248 0.85757 141.072 1.07615 139.093 1.91155C137.115 2.74696 135.424 4.16166 134.235 5.97677C133.045 7.79189 132.411 9.92588 132.411 12.1089C132.414 15.0352 133.555 17.8407 135.585 19.9099C137.614 21.9791 140.366 23.143 143.236 23.1464Z" fill="black"/>
<path d="M100.93 11.8912C100.93 9.62375 101.589 7.40724 102.825 5.52194C104.06 3.63664 105.816 2.16722 107.871 1.29951C109.926 0.431805 112.187 0.204774 114.368 0.647128C116.549 1.08948 118.552 2.18136 120.125 3.78467C121.698 5.38799 122.768 7.43074 123.202 9.6546C123.636 11.8785 123.414 14.1836 122.562 16.2784C121.711 18.3732 120.27 20.1637 118.421 21.4234C116.572 22.6832 114.398 23.3555 112.174 23.3555C109.192 23.3555 106.332 22.1477 104.223 19.9977C102.114 17.8477 100.93 14.9317 100.93 11.8912Z" fill="black"/>
<path d="M76.8462 12.109C76.8462 9.84153 77.5057 7.62501 78.7412 5.73971C79.9768 3.85441 81.7329 2.385 83.7876 1.51729C85.8422 0.649581 88.103 0.422549 90.2842 0.864904C92.4654 1.30726 94.4689 2.39913 96.0415 4.00245C97.614 5.60576 98.685 7.64852 99.1188 9.87238C99.5527 12.0962 99.33 14.4013 98.4789 16.4962C97.6279 18.591 96.1866 20.3815 94.3375 21.6412C92.4884 22.9009 90.3144 23.5733 88.0905 23.5733C85.1087 23.5722 82.2493 22.364 80.1409 20.2142C78.0324 18.0645 76.8473 15.1491 76.8462 12.109Z" fill="black"/>
<path d="M57.4597 -3.92521e-05C59.7664 -3.90504e-05 62.0213 0.697364 63.9393 2.00398C65.8572 3.3106 67.3521 5.16775 68.2348 7.34057C69.1176 9.5134 69.3485 11.9043 68.8985 14.211C68.4485 16.5176 67.3377 18.6364 65.7066 20.2994C64.0755 21.9625 61.9974 23.095 59.735 23.5538C57.4726 24.0126 55.1276 23.7771 52.9965 22.8771C50.8653 21.9771 49.0438 20.453 47.7623 18.4975C46.4808 16.542 45.7968 14.243 45.7968 11.8911C45.8001 8.73843 47.0299 5.71583 49.2164 3.48654C51.4029 1.25725 54.3675 0.00334984 57.4597 -3.92521e-05ZM57.4597 22.9286C59.6008 22.9286 61.6938 22.2813 63.4741 21.0685C65.2544 19.8557 66.6419 18.1318 67.4613 16.115C68.2807 14.0982 68.495 11.8789 68.0773 9.73781C67.6596 7.59674 66.6286 5.63004 65.1146 4.08641C63.6006 2.54279 61.6717 1.49156 59.5717 1.06568C57.4717 0.639794 55.295 0.858374 53.3169 1.69378C51.3387 2.52918 49.648 3.94389 48.4585 5.759C47.2689 7.57411 46.634 9.7081 46.634 11.8911C46.6373 14.8174 47.7789 17.6229 49.8084 19.6921C51.8379 21.7613 54.5896 22.9253 57.4597 22.9286Z" fill="black"/>
<path d="M33.3677 0.217734C35.6744 0.217734 37.9293 0.915139 39.8473 2.22176C41.7652 3.52838 43.2601 5.38552 44.1428 7.55835C45.0256 9.73117 45.2566 12.1221 44.8065 14.4287C44.3565 16.7354 43.2457 18.8542 41.6146 20.5172C39.9835 22.1802 37.9054 23.3127 35.643 23.7716C33.3806 24.2304 31.0356 23.9949 28.9045 23.0949C26.7734 22.1949 24.9519 20.6708 23.6704 18.7153C22.3888 16.7598 21.7048 14.4607 21.7048 12.1089C21.7081 8.9562 22.938 5.93361 25.1245 3.70432C27.311 1.47503 30.2755 0.221123 33.3677 0.217734ZM33.3677 23.1464C35.5088 23.1464 37.6019 22.4991 39.3821 21.2863C41.1624 20.0734 42.5499 18.3496 43.3693 16.3328C44.1887 14.3159 44.4031 12.0967 43.9854 9.95558C43.5677 7.81451 42.5366 5.84781 41.0226 4.30419C39.5086 2.76056 37.5797 1.70934 35.4797 1.28345C33.3797 0.85757 31.2031 1.07615 29.2249 1.91155C27.2468 2.74696 25.556 4.16166 24.3665 5.97677C23.1769 7.79189 22.542 9.92588 22.542 12.1089C22.5454 15.0352 23.687 17.8407 25.7165 19.9099C27.746 21.9791 30.4976 23.143 33.3677 23.1464Z" fill="black"/>
<path d="M-10.6467 11.8912C-10.6467 9.62375 -9.98718 7.40724 -8.75164 5.52194C-7.5161 3.63664 -5.75996 2.16722 -3.70534 1.29951C-1.65071 0.431805 0.61011 0.204774 2.79129 0.647128C4.97247 1.08948 6.97603 2.18136 8.54858 3.78467C10.1211 5.38799 11.1921 7.43074 11.6259 9.6546C12.0598 11.8785 11.8371 14.1836 10.986 16.2784C10.135 18.3732 8.69375 20.1637 6.84464 21.4234C4.99552 22.6832 2.82155 23.3555 0.59764 23.3555C-2.38419 23.3544 -5.24354 22.1462 -7.35202 19.9965C-9.46049 17.8467 -10.6455 14.9314 -10.6467 11.8912Z" fill="black"/>
</g>
<defs>
<clipPath id="clip0_309_2339">
<rect width="867" height="24" fill="white" transform="translate(-304 58.0001)"/>
</clipPath>
<clipPath id="clip1_309_2339">
<rect width="867" height="24" fill="white" transform="translate(571 58.0001)"/>
</clipPath>
<clipPath id="clip2_309_2339">
<rect width="867" height="24" fill="white" transform="translate(1438 24.0001) rotate(-180)"/>
</clipPath>
<clipPath id="clip3_309_2339">
<rect width="867" height="24" fill="white" transform="translate(561 24.0001) rotate(-180)"/>
</clipPath>
</defs>
</svg>
